<?xml version="1.0" standalone="no"?>
<!DOCTYPE svg PUBLIC "-//W3C//DTD SVG 20010904//EN"
 "http://www.w3.org/TR/2001/REC-SVG-20010904/DTD/svg10.dtd">
<svg version="1.0" xmlns="http://www.w3.org/2000/svg"
 width="1700.000000pt" height="2200.000000pt" viewBox="0 0 1700.000000 2200.000000"
 preserveAspectRatio="xMidYMid meet">
<metadata>
Created by potrace 1.16, written by Peter Selinger 2001-2019
</metadata>
<g transform="translate(0.000000,2200.000000) scale(0.100000,-0.100000)"
fill="#000000" stroke="none">
<path d="M2259 20853 c-49 -126 -109 -287 -109 -294 0 -5 8 -9 18 -9 12 0 23
14 33 43 l16 42 73 0 73 0 15 -42 c10 -31 19 -43 33 -43 10 0 19 4 19 9 0 4
-26 77 -58 162 -49 128 -63 155 -80 157 -16 3 -25 -4 -33 -25z"/>
<path d="M2900 20808 l0 -71 -21 19 c-13 11 -35 19 -59 19 -72 0 -126 -81
-101 -148 28 -72 111 -97 164 -50 16 15 17 14 17 -5 0 -15 6 -22 20 -22 19 0
20 7 20 165 0 158 -1 165 -20 165 -18 0 -20 -7 -20 -72z m-22 -88 c29 -27 29
-83 2 -110 -12 -12 -33 -20 -55 -20 -46 0 -75 29 -75 75 0 43 32 75 75 75 18
0 41 -9 53 -20z"/>
<path d="M3672 20811 l3 -68 -37 19 c-47 25 -85 18 -124 -23 -64 -67 -16 -184
75 -184 25 0 47 8 60 19 21 19 21 19 21 -2 0 -15 6 -22 20 -22 19 0 20 7 20
165 0 161 -1 165 -21 165 -19 0 -20 -5 -17 -69z m-24 -91 c48 -45 14 -130 -50
-130 -67 0 -104 84 -58 130 26 26 80 26 108 0z"/>
<path d="M3982 20870 c-46 -11 -100 -66 -113 -113 -31 -117 73 -224 196 -201
44 8 94 49 79 64 -9 8 -20 6 -45 -9 -91 -56 -199 1 -199 104 0 99 100 156 191
110 16 -9 34 -13 39 -10 45 28 -76 73 -148 55z"/>
<path d="M4632 20811 l3 -68 -37 19 c-47 25 -85 18 -124 -23 -64 -67 -16 -184
75 -184 25 0 47 8 60 19 21 19 21 19 21 -2 0 -15 6 -22 20 -22 19 0 20 7 20
165 0 161 -1 165 -21 165 -19 0 -20 -5 -17 -69z m-24 -91 c48 -45 14 -130 -50
-130 -67 0 -104 84 -58 130 26 26 80 26 108 0z"/>
<path d="M5111 20863 c-43 -22 -58 -61 -39 -100 9 -20 31 -35 74 -53 79 -33
84 -37 84 -65 0 -57 -80 -76 -127 -29 -32 32 -63 26 -41 -9 34 -51 115 -68
169 -34 29 18 43 71 27 104 -14 29 -32 41 -110 73 -39 16 -48 24 -48 44 0 42
65 62 106 31 10 -8 25 -15 32 -15 20 0 14 29 -11 45 -38 25 -79 27 -116 8z"/>
<path d="M6210 20715 c0 -158 1 -165 20 -165 18 0 20 7 20 78 0 87 14 112 61
112 41 0 49 -18 49 -107 0 -76 2 -83 20 -83 18 0 20 7 20 74 0 94 -13 131 -52
147 -27 11 -36 10 -67 -7 l-36 -20 3 68 c3 63 2 68 -17 68 -20 0 -21 -4 -21
-165z"/>
<path d="M1500 20860 c20 -8 17 -9 -17 -5 -27 3 -43 1 -43 -5 0 -6 -4 -9 -9
-6 -5 3 -15 -2 -22 -11 -12 -14 -12 -16 0 -8 10 5 12 4 7 -3 -4 -7 -13 -12
-19 -12 -18 0 -39 -37 -26 -45 5 -4 16 -1 24 5 11 9 15 9 15 1 0 -6 -7 -14
-15 -17 -11 -4 -13 -13 -9 -28 6 -18 5 -19 -9 -8 -9 8 -13 20 -10 28 3 8 1 14
-5 14 -23 0 -24 -92 -1 -115 7 -7 8 -3 4 10 -5 16 -5 17 3 5 8 -10 8 -18 0
-27 -7 -9 -7 -13 1 -13 6 0 11 -6 11 -14 0 -8 5 -18 12 -22 8 -5 9 -2 4 12
-12 30 -12 39 0 37 6 -1 9 19 6 56 -4 53 -2 59 27 88 35 35 38 43 17 43 -8 0
-18 4 -21 10 -3 6 1 7 9 4 9 -3 16 -1 16 5 0 16 52 3 69 -18 12 -14 12 -14 7
4 -5 16 -1 20 19 21 14 1 22 -2 19 -7 -3 -5 1 -9 9 -9 8 0 18 -7 21 -16 6 -15
4 -15 -20 1 -14 9 -29 14 -32 10 -4 -4 2 -11 12 -17 10 -6 27 -19 37 -29 11
-11 19 -16 19 -13 0 4 6 1 14 -5 8 -7 12 -22 9 -34 -2 -13 2 -8 11 11 8 18 13
39 10 47 -10 26 -90 73 -135 79 -35 4 -39 3 -19 -4z"/>
<path d="M13478 20830 c-52 -28 -81 -73 -86 -134 -5 -66 15 -115 64 -152 32
-25 46 -29 103 -29 53 0 72 5 99 23 72 52 92 151 46 230 -44 75 -146 104 -226
62z m159 -31 c61 -38 80 -114 46 -186 -44 -93 -189 -99 -243 -10 -40 65 -15
167 48 202 40 21 109 19 149 -6z"/>
<path d="M12813 20828 c-47 -12 -73 -51 -73 -107 0 -39 5 -52 28 -73 66 -63
157 -38 181 49 23 83 -51 154 -136 131z m96 -52 c6 -7 14 -27 17 -44 5 -26 1
-36 -24 -62 -34 -33 -66 -38 -100 -14 -76 53 -18 172 69 142 15 -5 33 -15 38
-22z"/>
<path d="M9530 20770 c0 -38 -1 -39 -25 -28 -19 9 -29 8 -50 -6 -21 -14 -25
-24 -25 -66 0 -42 4 -52 25 -66 21 -14 31 -15 50 -6 15 7 25 8 25 2 0 -6 5
-10 10 -10 6 0 10 43 10 110 0 67 -4 110 -10 110 -5 0 -10 -18 -10 -40z"/>
<path d="M2480 20665 c0 -108 1 -115 20 -115 18 0 20 7 20 78 0 87 14 112 61
112 41 0 49 -18 49 -107 0 -76 2 -83 20 -83 18 0 20 7 20 74 0 89 -13 130 -47
145 -27 13 -93 -1 -93 -20 0 -5 -4 -9 -10 -9 -5 0 -10 9 -10 20 0 11 -7 20
-15 20 -12 0 -15 -19 -15 -115z"/>
<path d="M3194 20765 c-66 -34 -79 -125 -25 -179 26 -26 39 -31 77 -30 37 1
51 7 77 33 27 26 32 38 31 77 -1 36 -7 51 -30 74 -36 36 -88 46 -130 25z m104
-45 c50 -47 14 -130 -55 -130 -44 0 -73 30 -73 75 0 68 78 101 128 55z"/>
<path d="M4265 20773 c-32 -8 -73 -53 -79 -87 -21 -109 109 -176 187 -97 27
26 32 38 31 77 -1 36 -7 52 -30 75 -29 29 -72 42 -109 32z m83 -53 c29 -27 29
-83 2 -110 -12 -12 -33 -20 -55 -20 -22 0 -43 8 -55 20 -12 12 -20 33 -20 55
0 68 78 101 128 55z"/>
<path d="M4790 20773 c-62 -20 -96 -71 -86 -127 14 -73 107 -115 175 -79 19
10 36 23 38 29 6 18 -31 23 -52 8 -27 -20 -89 -18 -108 4 -33 36 -22 42 78 42
55 0 95 4 95 10 0 5 -7 28 -16 50 -21 51 -76 79 -124 63z"/>
<path d="M5378 20764 c-73 -31 -88 -127 -27 -178 42 -36 89 -42 136 -20 20 11
38 24 40 30 6 18 -31 23 -52 8 -27 -20 -89 -18 -108 4 -33 36 -22 42 78 42 55
0 95 4 95 10 0 5 -7 28 -17 51 -11 30 -25 45 -49 55 -41 17 -49 17 -96 -2z"/>
<path d="M5613 20765 c-49 -21 -41 -35 15 -28 54 6 92 -8 92 -34 0 -12 -7 -14
-31 -9 -49 9 -104 -9 -118 -41 -34 -74 66 -132 132 -75 15 14 17 13 17 -6 0
-15 6 -22 20 -22 18 0 20 7 20 64 0 35 -3 78 -6 95 -11 55 -82 83 -141 56z"/>
<path d="M6030 20769 c-57 -24 -85 -70 -74 -125 14 -73 93 -111 162 -77 39 19
56 53 27 53 -9 0 -23 -7 -31 -15 -9 -8 -31 -15 -50 -15 -45 0 -74 29 -74 75 0
46 29 75 74 75 19 0 41 -7 50 -15 18 -19 46 -20 46 -1 0 34 -86 63 -130 45z"/>
<path d="M8805 20738 c-29 -16 -35 -28 -35 -70 0 -28 6 -42 26 -57 33 -26 45
-26 78 0 35 28 36 80 1 114 -27 28 -40 30 -70 13z"/>
<path d="M9295 20738 c-29 -16 -35 -28 -35 -70 0 -28 6 -42 26 -57 33 -26 45
-26 78 0 35 28 36 80 1 114 -27 28 -40 30 -70 13z"/>
<path d="M9844 20725 c-34 -34 -30 -90 7 -118 70 -52 138 55 74 118 -31 32
-50 31 -81 0z"/>
<path d="M7640 19967 c0 -32 -2 -33 -30 -29 -42 6 -60 -13 -60 -63 0 -52 21
-74 73 -72 l37 1 0 98 c0 59 -4 98 -10 98 -5 0 -10 -15 -10 -33z"/>
<path d="M11680 19967 c0 -32 -2 -33 -30 -29 -42 6 -60 -13 -60 -63 0 -53 22
-75 73 -72 l37 2 0 98 c0 58 -4 97 -10 97 -5 0 -10 -15 -10 -33z"/>
<path d="M11750 19900 c0 -60 4 -100 10 -100 6 0 10 5 10 10 0 7 6 7 19 0 28
-14 38 -13 61 10 24 24 26 67 4 99 -14 19 -23 22 -50 18 -33 -6 -34 -5 -34 29
0 19 -4 34 -10 34 -6 0 -10 -40 -10 -100z"/>
<path d="M8350 19838 c0 -59 4 -98 10 -98 6 0 10 16 10 36 0 34 1 35 29 29 45
-10 75 24 68 78 -7 48 -19 57 -74 54 l-43 -1 0 -98z"/>
<path d="M9240 19838 c0 -59 4 -98 10 -98 6 0 10 16 10 36 0 34 1 35 29 29 57
-12 93 60 56 113 -13 17 -24 21 -60 20 l-45 -2 0 -98z"/>
<path d="M10150 19843 c0 -55 4 -93 10 -93 6 0 10 14 10 31 0 29 2 30 29 24
57 -12 93 60 56 113 -13 17 -24 21 -60 20 l-45 -2 0 -93z"/>
<path d="M10902 19928 c-6 -6 -12 -31 -12 -55 0 -34 5 -46 25 -59 14 -9 32
-13 45 -9 16 5 20 2 20 -14 0 -25 -43 -39 -65 -21 -11 9 -15 9 -15 1 0 -6 11
-16 25 -23 19 -9 29 -8 50 6 23 15 25 22 25 99 l0 82 -43 3 c-24 1 -48 -3 -55
-10z"/>
<path d="M5238 19853 c-6 -13 -2 -98 5 -110 4 -6 26 -10 50 -8 34 2 43 7 45
24 4 25 32 28 33 4 1 -28 7 -127 8 -135 1 -5 15 -8 31 -8 24 0 30 -4 30 -21 0
-18 5 -20 52 -17 l52 3 0 55 -1 55 -52 3 c-45 3 -51 1 -51 -16 0 -26 -27 -36
-34 -14 -3 9 -4 35 -1 57 2 22 4 43 4 48 2 16 31 5 31 -12 0 -15 9 -20 46 -23
52 -4 53 -2 57 67 l2 50 -52 3 c-51 3 -53 2 -53 -22 0 -24 -3 -26 -50 -26 -47
0 -50 2 -50 25 0 23 -3 25 -49 25 -28 0 -51 -3 -53 -7z"/>
<path d="M14540 19780 c0 -27 -3 -30 -24 -24 -52 13 -83 -18 -77 -76 4 -35 27
-50 78 -48 l43 2 0 88 c0 52 -4 88 -10 88 -5 0 -10 -14 -10 -30z"/>
<path d="M15260 19780 c0 -28 -2 -29 -30 -23 -41 8 -70 -19 -70 -63 0 -46 22
-64 76 -62 l44 1 0 89 c0 52 -4 88 -10 88 -5 0 -10 -13 -10 -30z"/>
<path d="M1320 19670 c0 -82 3 -100 15 -100 11 0 14 9 11 33 l-5 33 47 0 c41
-1 48 2 60 27 25 51 -5 107 -57 107 -15 0 -32 -5 -39 -12 -9 -9 -12 -9 -12 0
0 7 -4 12 -10 12 -6 0 -10 -40 -10 -100z"/>
<path d="M1900 19750 c-24 -24 -26 -67 -4 -98 20 -29 76 -30 104 -2 43 43 11
120 -50 120 -17 0 -39 -9 -50 -20z"/>
<path d="M2740 19669 c0 -76 3 -100 13 -96 7 2 11 18 10 35 -1 29 1 31 23 26
64 -16 105 28 84 92 -6 18 -18 35 -26 38 -25 10 -59 7 -72 -6 -9 -9 -12 -9
-12 0 0 7 -4 12 -10 12 -6 0 -10 -40 -10 -101z"/>
<path d="M3168 19750 c-10 -40 -2 -174 10 -177 8 -3 12 6 12 29 0 33 1 33 39
30 31 -3 42 0 55 19 22 32 20 75 -4 99 -25 25 -107 25 -112 0z"/>
<path d="M3440 19750 c-42 -42 -14 -120 44 -120 42 0 64 17 72 55 13 66 -69
112 -116 65z"/>
<path d="M7631 19591 c-31 -58 2 -130 54 -117 23 6 26 4 23 -16 -3 -26 -41
-37 -64 -18 -9 9 -14 9 -14 2 0 -23 39 -34 68 -20 26 13 27 17 30 98 l3 85
-45 3 c-36 2 -47 -1 -55 -17z"/>
<path d="M8010 19591 c-30 -58 3 -130 55 -117 23 6 26 4 23 -16 -4 -27 -41
-36 -65 -16 -14 11 -15 11 -12 -1 8 -22 43 -31 70 -17 22 11 24 18 27 97 l3
86 -45 1 c-36 2 -47 -2 -56 -17z"/>
<path d="M14580 18800 l0 -140 185 0 185 0 0 140 0 140 -185 0 -185 0 0 -140z
m328 53 l3 -53 -105 0 -106 0 0 48 c0 27 3 52 7 56 4 4 50 5 103 4 l95 -3 3
-52z"/>
<path d="M9270 18888 c0 -33 -3 -39 -12 -30 -21 21 -65 14 -87 -14 -24 -30
-26 -55 -10 -87 17 -32 28 -36 86 -35 l53 2 0 103 c0 85 -3 103 -15 103 -11 0
-15 -11 -15 -42z"/>
<path d="M13320 18825 l0 -105 55 0 c81 0 120 46 78 92 -13 14 -14 21 -5 30
19 19 14 56 -10 72 -13 9 -43 16 -70 16 l-48 0 0 -105z"/>
<path d="M5965 18865 c-47 -46 -21 -131 36 -123 23 4 29 1 29 -14 0 -16 -7
-19 -32 -18 -50 3 -55 1 -34 -15 27 -21 62 -19 86 5 17 17 20 33 20 99 0 75
-12 110 -29 83 -4 -7 -12 -8 -21 -2 -22 14 -28 12 -55 -15z"/>
<path d="M6365 18865 c-47 -46 -21 -131 36 -123 23 4 29 1 29 -14 0 -16 -7
-19 -32 -18 -50 3 -55 1 -34 -15 27 -21 62 -19 86 5 17 17 20 33 20 99 0 75
-12 110 -29 83 -4 -7 -12 -8 -21 -2 -22 14 -28 12 -55 -15z"/>
<path d="M6702 18879 c-43 -16 -56 -85 -22 -119 42 -42 110 -14 112 47 2 59
-38 91 -90 72z"/>
<path d="M12007 18794 c30 -89 48 -94 73 -20 18 54 22 53 39 -11 9 -31 17 -43
30 -43 14 0 23 15 36 62 9 34 19 68 22 75 3 7 -2 13 -10 13 -9 0 -20 -16 -27
-37 -6 -21 -14 -45 -17 -53 -3 -9 -12 5 -23 35 -22 66 -43 70 -60 10 -7 -25
-16 -48 -20 -50 -5 -3 -13 18 -20 45 -9 37 -17 50 -30 50 -17 0 -17 -5 7 -76z"/>
<path d="M13740 18795 c0 -59 3 -75 14 -75 11 0 16 15 18 51 3 55 21 78 52 66
12 -5 16 -20 16 -62 0 -42 3 -55 15 -55 11 0 15 12 15 44 0 60 8 76 36 76 26
0 27 -4 24 -77 -1 -37 1 -43 19 -43 18 0 21 6 21 48 0 63 -18 96 -53 100 -16
2 -34 -2 -42 -8 -9 -7 -15 -8 -20 0 -9 14 -58 13 -73 -2 -9 -9 -12 -9 -12 0 0
7 -7 12 -15 12 -12 0 -15 -15 -15 -75z"/>
<path d="M1235 18463 c-26 -7 -55 -33 -55 -50 0 -10 47 -13 250 -13 266 0 277
2 229 46 -19 17 -40 19 -213 21 -105 1 -200 -1 -211 -4z"/>
<path d="M8940 18315 c0 -33 -1 -34 -26 -24 -44 16 -74 -11 -74 -66 0 -26 6
-50 16 -59 18 -19 55 -21 72 -4 9 9 12 9 12 0 0 -7 5 -12 10 -12 6 0 10 40 10
100 0 60 -4 100 -10 100 -5 0 -10 -16 -10 -35z"/>
<path d="M10890 18315 c0 -33 -1 -34 -26 -24 -44 16 -74 -11 -74 -66 0 -26 6
-50 16 -59 18 -19 55 -21 72 -4 9 9 12 9 12 0 0 -7 5 -12 10 -12 6 0 10 40 10
100 0 60 -4 100 -10 100 -5 0 -10 -16 -10 -35z"/>
<path d="M6897 18323 c-4 -3 -7 -44 -7 -90 l0 -83 50 0 c61 0 97 27 80 60 -6
11 -16 20 -22 20 -9 0 -9 3 0 12 7 7 12 24 12 39 0 21 -7 29 -31 38 -36 12
-72 14 -82 4z"/>
<path d="M11453 18324 c-9 -4 -13 -32 -13 -90 l0 -84 40 0 c55 0 90 34 90 88
0 39 -28 82 -53 82 -7 0 -21 2 -32 5 -11 2 -26 2 -32 -1z"/>
<path d="M7893 18285 c-30 -13 -33 -18 -33 -59 0 -35 5 -48 22 -60 47 -34 93
-13 103 46 6 31 3 41 -19 62 -29 30 -30 30 -73 11z"/>
<path d="M8195 18288 c-11 -28 -1 -191 13 -196 8 -2 12 8 12 31 0 33 1 34 37
33 32 -1 39 3 51 27 20 41 8 95 -24 107 -16 7 -32 7 -43 0 -12 -6 -22 -5 -29
2 -8 8 -13 7 -17 -4z"/>
<path d="M9520 18287 c-20 -10 -26 -21 -28 -56 -4 -51 17 -81 58 -81 38 0 60
20 66 62 5 30 2 41 -19 62 -29 29 -41 31 -77 13z"/>
<path d="M9655 18288 c-11 -28 -1 -191 13 -196 8 -2 12 8 12 31 0 33 1 34 37
33 32 -1 39 3 51 27 20 41 8 95 -24 107 -16 7 -32 7 -43 0 -12 -6 -22 -5 -29
2 -8 8 -13 7 -17 -4z"/>
<path d="M1330 18065 c0 -78 3 -95 15 -95 11 0 15 11 15 41 0 36 2 40 22 37
14 -2 30 -17 42 -40 11 -21 26 -38 33 -38 10 0 8 10 -7 40 -19 37 -19 42 -5
56 17 18 19 47 5 75 -9 15 -22 19 -65 19 l-55 0 0 -95z"/>
<path d="M1640 18008 c0 -59 4 -98 10 -98 11 0 13 11 12 47 -1 19 3 21 32 16
27 -4 36 -1 50 18 18 27 21 71 6 100 -9 16 -20 19 -60 18 l-50 -2 0 -99z"/>
<path d="M6896 17959 c-11 -30 -1 -192 12 -197 8 -2 12 8 12 31 0 33 1 34 37
33 32 -1 39 3 51 27 20 41 8 95 -24 107 -16 7 -32 7 -43 0 -12 -6 -22 -5 -29
2 -8 8 -13 8 -16 -3z"/>
<path d="M7800 17635 c0 -33 -1 -34 -26 -24 -44 16 -74 -11 -74 -66 0 -26 6
-50 16 -59 18 -19 55 -21 72 -4 9 9 12 9 12 0 0 -7 5 -12 10 -12 6 0 10 40 10
100 0 60 -4 100 -10 100 -5 0 -10 -16 -10 -35z"/>
<path d="M6895 17608 c-11 -28 -1 -191 13 -196 8 -2 12 8 12 31 0 33 1 34 37
33 32 -1 39 3 51 27 20 41 8 95 -24 107 -16 7 -32 7 -43 0 -12 -6 -22 -5 -29
2 -8 8 -13 7 -17 -4z"/>
<path d="M7570 17607 c-32 -16 -41 -88 -14 -118 20 -22 62 -25 89 -5 29 21 27
92 -4 117 -27 22 -37 23 -71 6z"/>
<path d="M2060 17486 c0 -33 -2 -35 -23 -27 -49 19 -86 -35 -67 -95 12 -36 26
-43 80 -42 l35 0 -1 96 c0 64 -4 97 -12 100 -8 2 -12 -9 -12 -32z"/>
<path d="M1540 17400 l0 -110 35 0 35 0 0 75 0 75 44 0 c25 0 48 -4 51 -10 3
-5 31 -10 61 -10 53 0 54 0 54 30 l0 30 -68 0 c-44 0 -75 5 -88 15 -11 8 -41
14 -71 15 l-53 0 0 -110z"/>
<path d="M1640 17355 l0 -65 90 0 90 0 0 50 0 50 -54 0 c-35 0 -58 5 -66 15
-7 8 -23 15 -36 15 -23 0 -24 -3 -24 -65z"/>
<path d="M6785 17320 c-4 -6 -18 -15 -32 -21 -32 -12 -29 -59 5 -74 16 -7 22
-18 22 -42 0 -37 -6 -40 -32 -16 -10 9 -21 13 -25 10 -8 -9 26 -47 43 -47 7 0
15 -6 17 -12 4 -10 8 -10 14 -2 4 6 18 15 31 19 24 7 43 41 34 63 -2 7 -17 19
-33 28 -31 15 -40 54 -14 54 8 0 15 -4 15 -10 0 -5 7 -10 16 -10 22 0 12 23
-16 37 -12 6 -26 17 -30 23 -6 9 -9 9 -15 0z"/>
<path d="M6898 17268 c-11 -29 -3 -191 10 -196 8 -2 12 8 12 31 0 33 1 34 37
33 32 -1 39 3 51 27 20 41 8 95 -24 107 -16 7 -32 7 -43 0 -12 -6 -22 -5 -28
1 -7 7 -12 6 -15 -3z"/>
<path d="M1620 16947 c0 -31 -2 -33 -33 -29 -41 5 -59 -15 -59 -63 0 -50 25
-75 73 -73 l39 1 1 46 c2 83 2 96 0 124 -2 39 -21 34 -21 -6z"/>
<path d="M2370 16920 c-7 -5 -19 -6 -27 -3 -10 4 -13 -16 -13 -96 0 -61 4
-101 10 -101 6 0 10 15 10 34 0 34 1 35 34 29 27 -4 36 -1 50 18 19 28 21 79
4 101 -16 19 -51 28 -68 18z"/>
<path d="M8379 16606 c-19 -9 -25 -21 -27 -58 -3 -39 1 -49 20 -62 47 -33 95
-13 104 44 10 61 -43 103 -97 76z"/>
<path d="M2060 16407 c0 -31 -2 -33 -33 -29 -38 4 -54 -10 -60 -53 -8 -61 21
-88 87 -82 31 2 29 -9 27 157 -1 22 -5 40 -11 40 -5 0 -10 -15 -10 -33z"/>
<path d="M1540 16320 l0 -110 35 0 35 0 0 75 0 75 44 0 c26 0 48 -6 56 -15 8
-10 30 -15 61 -15 l49 0 0 35 0 35 -68 0 c-44 0 -75 5 -88 15 -11 8 -41 14
-71 15 l-53 0 0 -110z"/>
<path d="M2770 16278 c0 -59 4 -98 10 -98 6 0 10 15 10 34 0 34 1 35 34 29 27
-4 36 -1 50 18 18 27 21 71 6 100 -9 16 -20 19 -60 18 l-50 -2 0 -99z"/>
<path d="M1640 16271 l0 -59 90 -1 90 -2 0 51 0 50 -59 0 c-33 0 -63 5 -66 10
-3 6 -17 10 -31 10 -23 0 -24 -3 -24 -59z"/>
<path d="M7080 16247 c-20 -10 -26 -21 -28 -56 -4 -51 17 -81 58 -81 38 0 60
20 66 62 5 30 2 41 -19 62 -29 29 -41 31 -77 13z"/>
<path d="M6206 15935 c-15 -15 -13 -37 6 -61 5 -7 3 -14 -7 -18 -8 -3 -15 -16
-15 -29 0 -32 49 -55 88 -41 32 11 42 52 18 70 -14 10 -15 13 -1 24 18 15 19
42 3 58 -17 17 -74 15 -92 -3z"/>
<path d="M2000 15728 c0 -59 4 -98 10 -98 6 0 10 15 10 34 0 34 1 35 34 29 27
-4 36 -1 50 18 18 27 21 71 6 100 -9 16 -20 19 -60 18 l-50 -2 0 -99z"/>
<path d="M2150 15728 c0 -59 4 -98 10 -98 9 0 15 28 11 57 -1 8 9 10 32 6 28
-4 37 -1 51 18 18 27 21 71 6 100 -9 16 -20 19 -60 18 l-50 -2 0 -99z"/>
<path d="M6897 15613 c-4 -3 -7 -44 -7 -90 l0 -83 40 0 c54 0 90 34 90 85 0
51 -15 73 -58 85 -43 12 -56 12 -65 3z"/>
<path d="M8540 15577 c-20 -10 -26 -21 -28 -56 -4 -51 17 -81 58 -81 38 0 60
20 66 62 5 30 2 41 -19 62 -29 29 -41 31 -77 13z"/>
<path d="M9337 15583 c-3 -4 -4 -50 -3 -102 1 -65 5 -96 14 -98 8 -3 12 7 12
30 0 33 1 34 37 33 32 -1 39 3 51 27 20 41 8 95 -24 107 -16 7 -32 7 -43 0
-12 -6 -22 -5 -28 1 -6 6 -13 7 -16 2z"/>
<path d="M10162 15575 c-17 -13 -22 -26 -22 -60 0 -26 6 -50 16 -59 18 -19 55
-21 72 -4 16 16 17 -5 2 -33 -11 -20 -50 -27 -50 -9 0 6 -7 10 -15 10 -21 0
-19 -17 4 -30 29 -15 56 -12 74 8 13 14 17 39 17 105 0 51 -4 87 -10 87 -5 0
-10 -5 -10 -11 0 -6 -7 -8 -15 -5 -8 3 -21 8 -28 11 -6 3 -22 -2 -35 -10z"/>
<path d="M10652 15575 c-17 -13 -22 -26 -22 -60 0 -26 6 -50 16 -59 18 -19 55
-21 72 -4 16 16 17 -5 2 -33 -11 -20 -50 -27 -50 -9 0 6 -7 10 -15 10 -21 0
-19 -17 4 -30 29 -15 56 -12 74 8 13 14 17 39 17 105 0 51 -4 87 -10 87 -5 0
-10 -5 -10 -11 0 -6 -7 -8 -15 -5 -8 3 -21 8 -28 11 -6 3 -22 -2 -35 -10z"/>
<path d="M1850 15250 c0 -60 4 -100 10 -100 6 0 10 5 10 12 0 9 3 9 12 0 34
-34 88 4 88 61 0 49 -16 67 -61 67 -32 0 -40 3 -38 18 3 29 -1 42 -11 42 -6 0
-10 -40 -10 -100z"/>
<path d="M2380 15315 c0 -31 -2 -35 -18 -26 -45 24 -91 -40 -70 -99 11 -32 27
-40 76 -37 l34 2 0 95 c0 59 -4 96 -11 98 -7 2 -11 -11 -11 -33z"/>
<path d="M6206 15258 c-36 -51 -7 -148 43 -148 45 0 67 42 62 117 -3 52 -76
73 -105 31z"/>
<path d="M7413 15245 c-30 -13 -33 -18 -33 -59 0 -35 5 -48 22 -60 47 -34 93
-13 103 46 6 31 3 41 -19 62 -29 30 -30 30 -73 11z"/>
<path d="M7310 14925 c0 -32 -2 -34 -23 -26 -16 6 -32 5 -48 -3 -19 -9 -25
-21 -27 -58 -2 -32 2 -50 13 -62 19 -19 56 -21 73 -4 9 9 12 9 12 0 0 -7 5
-12 10 -12 6 0 10 40 10 100 0 60 -4 100 -10 100 -5 0 -10 -16 -10 -35z"/>
<path d="M2320 14778 c0 -31 -2 -33 -37 -33 -47 0 -65 -28 -53 -82 10 -44 24
-54 74 -50 l40 2 0 94 c0 64 -4 96 -12 99 -8 2 -12 -8 -12 -30z"/>
<path d="M6660 14585 c0 -33 -1 -34 -26 -24 -44 16 -74 -11 -74 -66 0 -26 6
-50 16 -59 18 -19 55 -21 72 -4 9 9 12 9 12 0 0 -7 5 -12 10 -12 6 0 10 40 10
100 0 60 -4 100 -10 100 -5 0 -10 -16 -10 -35z"/>
<path d="M7410 14557 c-20 -10 -26 -21 -28 -56 -4 -51 17 -81 58 -81 38 0 60
20 66 62 5 30 2 41 -19 62 -29 29 -41 31 -77 13z"/>
<path d="M7547 14563 c-3 -4 -4 -50 -3 -102 1 -65 5 -96 14 -98 8 -3 12 7 12
31 0 34 1 35 30 30 36 -8 56 7 65 47 13 60 -31 112 -75 89 -11 -6 -21 -5 -27
1 -6 6 -13 7 -16 2z"/>
<path d="M8052 14555 c-17 -13 -22 -26 -22 -60 0 -26 6 -50 16 -59 18 -19 55
-21 72 -4 16 16 17 -5 2 -33 -11 -20 -50 -27 -50 -9 0 6 -7 10 -15 10 -21 0
-19 -17 4 -30 29 -15 56 -12 74 8 13 14 17 39 17 105 0 51 -4 87 -10 87 -5 0
-10 -5 -10 -11 0 -6 -7 -8 -15 -5 -8 3 -21 8 -28 11 -6 3 -22 -2 -35 -10z"/>
<path d="M8212 14555 c-17 -13 -22 -26 -22 -60 0 -26 6 -50 16 -59 18 -19 55
-21 72 -4 16 16 17 -5 2 -33 -11 -20 -50 -27 -50 -9 0 6 -7 10 -15 10 -21 0
-19 -17 4 -30 29 -15 56 -12 74 8 13 14 17 39 17 105 0 51 -4 87 -10 87 -5 0
-10 -5 -10 -11 0 -6 -7 -8 -15 -5 -8 3 -21 8 -28 11 -6 3 -22 -2 -35 -10z"/>
<path d="M6660 14255 c0 -33 -1 -34 -26 -24 -44 16 -74 -11 -74 -66 0 -26 6
-50 16 -59 18 -19 55 -21 72 -4 9 9 12 9 12 0 0 -7 5 -12 10 -12 6 0 10 40 10
100 0 60 -4 100 -10 100 -5 0 -10 -16 -10 -35z"/>
<path d="M1940 14235 c0 -33 -2 -35 -21 -25 -16 9 -26 8 -44 -4 -27 -18 -34
-47 -23 -90 10 -37 23 -45 73 -44 l40 0 -2 62 c-1 33 -2 78 -2 99 -1 47 -21
49 -21 2z"/>
<path d="M6660 13925 c0 -33 -1 -34 -26 -24 -44 16 -74 -11 -74 -66 0 -26 6
-50 16 -59 18 -19 55 -21 72 -4 9 9 12 9 12 0 0 -7 5 -12 10 -12 6 0 10 40 10
100 0 60 -4 100 -10 100 -5 0 -10 -16 -10 -35z"/>
<path d="M7800 13925 c0 -33 -1 -34 -26 -24 -44 16 -74 -11 -74 -66 0 -26 6
-50 16 -59 18 -19 55 -21 72 -4 9 9 12 9 12 0 0 -7 5 -12 10 -12 6 0 10 40 10
100 0 60 -4 100 -10 100 -5 0 -10 -16 -10 -35z"/>
<path d="M6775 13903 c-30 -7 -45 -32 -45 -73 0 -43 24 -70 61 -70 37 0 59 21
65 62 5 30 2 41 -19 62 -15 14 -30 25 -34 25 -4 -1 -17 -3 -28 -6z"/>
<path d="M7408 13894 c-24 -12 -28 -21 -28 -58 0 -49 22 -76 61 -76 37 0 59
21 65 62 5 30 2 41 -19 62 -30 30 -41 31 -79 10z"/>
<path d="M1862 13658 c-7 -7 -12 -33 -12 -60 0 -53 21 -74 67 -65 18 3 23 0
21 -11 -5 -26 -35 -39 -58 -24 -16 10 -20 10 -20 -2 0 -30 59 -35 85 -6 16 17
23 91 16 166 -1 15 -84 17 -99 2z"/>
<path d="M6759 13537 c-19 -10 -25 -21 -27 -59 -2 -32 2 -50 13 -62 19 -19 56
-21 73 -4 16 16 17 -5 2 -33 -11 -20 -50 -27 -50 -9 0 6 -7 10 -15 10 -21 0
-19 -17 4 -30 29 -15 56 -12 74 8 23 26 25 201 3 183 -10 -9 -20 -9 -33 -2
-14 7 -27 6 -44 -2z"/>
<path d="M6919 13537 c-19 -10 -25 -21 -27 -59 -2 -32 2 -50 13 -62 19 -19 56
-21 73 -4 16 16 17 -5 2 -33 -11 -20 -50 -27 -50 -9 0 6 -7 10 -15 10 -21 0
-19 -17 4 -30 29 -15 56 -12 74 8 23 26 25 201 3 183 -10 -9 -20 -9 -33 -2
-14 7 -27 6 -44 -2z"/>
<path d="M6912 13205 c-17 -13 -22 -26 -22 -60 0 -26 6 -50 16 -59 18 -19 55
-21 72 -4 16 16 17 -5 2 -33 -11 -20 -50 -27 -50 -9 0 6 -7 10 -15 10 -21 0
-19 -17 4 -30 29 -15 56 -12 74 8 13 14 17 39 17 105 0 51 -4 87 -10 87 -5 0
-10 -5 -10 -11 0 -6 -7 -8 -15 -5 -8 3 -21 8 -28 11 -6 3 -22 -2 -35 -10z"/>
<path d="M7072 13205 c-17 -13 -22 -26 -22 -60 0 -26 6 -50 16 -59 18 -19 55
-21 72 -4 16 16 17 -5 2 -33 -11 -20 -50 -27 -50 -9 0 6 -7 10 -15 10 -21 0
-19 -17 4 -30 29 -15 56 -12 74 8 13 14 17 39 17 105 0 51 -4 87 -10 87 -5 0
-10 -5 -10 -11 0 -6 -7 -8 -15 -5 -8 3 -21 8 -28 11 -6 3 -22 -2 -35 -10z"/>
<path d="M1947 13134 c-4 -5 -23 -7 -41 -6 -35 3 -53 -10 -56 -43 -7 -67 16
-100 62 -91 24 5 29 3 26 -11 -5 -27 -35 -40 -58 -25 -17 10 -20 10 -20 -2 0
-8 14 -17 31 -21 24 -5 36 -3 51 12 16 17 18 31 16 107 -2 48 -7 84 -11 80z"/>
<path d="M7092 12570 c-43 -18 -57 -110 -22 -148 45 -48 121 -9 106 53 -7 29
-48 49 -78 39 -16 -5 -19 -2 -16 13 3 15 12 18 48 16 l45 -2 -24 20 c-26 21
-27 21 -59 9z"/>
<path d="M6214 12562 c-19 -13 -23 -40 -9 -58 11 -15 10 -20 -3 -30 -10 -7
-13 -19 -8 -37 13 -52 116 -45 116 8 0 13 -7 28 -16 33 -14 8 -14 10 0 21 19
16 21 42 4 59 -13 13 -67 16 -84 4z"/>
<path d="M6565 12189 c-11 -29 -1 -192 13 -197 8 -2 12 8 12 31 0 33 1 34 37
33 32 -1 39 3 51 27 20 41 8 95 -24 107 -16 7 -32 7 -43 0 -12 -6 -22 -5 -29
2 -8 8 -13 7 -17 -3z"/>
<path d="M2000 12067 c0 -32 -2 -33 -30 -29 -17 2 -36 -1 -44 -7 -34 -29 -22
-118 17 -125 12 -2 34 -4 49 -4 l27 0 3 89 c3 95 2 109 -13 109 -5 0 -9 -15
-9 -33z"/>
<path d="M6830 11885 c0 -32 -2 -34 -23 -26 -16 6 -32 5 -48 -3 -19 -9 -25
-21 -27 -58 -2 -32 2 -50 13 -62 19 -19 56 -21 73 -4 9 9 12 9 12 0 0 -7 5
-12 10 -12 6 0 10 40 10 100 0 60 -4 100 -10 100 -5 0 -10 -16 -10 -35z"/>
<path d="M6206 11868 c-23 -33 -21 -103 4 -128 44 -44 101 -10 102 61 1 64
-15 89 -57 89 -24 0 -39 -7 -49 -22z"/>
<path d="M1857 11503 c-11 -11 -8 -203 3 -203 9 0 15 28 11 57 -1 8 9 10 32 6
28 -4 37 -1 51 18 19 28 21 79 4 101 -16 19 -51 28 -69 17 -8 -4 -16 -4 -19 2
-4 5 -9 6 -13 2z"/>
<path d="M2767 11504 c-11 -11 -9 -204 3 -204 6 0 10 15 10 34 0 34 1 35 34
29 27 -4 36 -1 50 18 19 28 21 78 3 103 -10 14 -23 17 -50 14 -20 -2 -38 0
-40 5 -1 4 -6 5 -10 1z"/>
<path d="M3502 11488 c-13 -17 -18 -67 -8 -95 8 -24 45 -39 71 -29 20 7 20
-18 0 -34 -12 -10 -21 -10 -40 -2 -20 9 -25 9 -25 -3 0 -21 47 -30 75 -15 27
14 32 36 27 126 l-4 61 -43 1 c-24 1 -47 -3 -53 -10z"/>
<path d="M2400 10987 c0 -32 -2 -33 -30 -29 -42 6 -60 -13 -60 -63 0 -53 22
-75 73 -73 41 1 38 -5 38 103 0 89 0 95 -11 95 -5 0 -10 -15 -10 -33z"/>
<path d="M2460 10920 c0 -60 4 -100 10 -100 6 0 10 5 10 12 0 9 3 9 12 0 34
-34 88 4 88 63 0 48 -20 68 -63 63 -36 -4 -37 -3 -37 29 0 18 -4 33 -10 33 -6
0 -10 -40 -10 -100z"/>
<path d="M7072 10825 c-17 -13 -22 -26 -22 -60 0 -26 6 -50 16 -59 18 -19 55
-21 72 -4 16 16 17 -5 2 -33 -11 -20 -50 -27 -50 -9 0 6 -7 10 -15 10 -21 0
-19 -17 4 -30 29 -15 56 -12 74 8 13 14 17 39 17 105 0 51 -4 87 -10 87 -5 0
-10 -5 -10 -11 0 -6 -7 -8 -15 -5 -8 3 -21 8 -28 11 -6 3 -22 -2 -35 -10z"/>
<path d="M7232 10825 c-17 -13 -22 -26 -22 -60 0 -26 6 -50 16 -59 18 -19 55
-21 72 -4 16 16 17 -5 2 -33 -11 -20 -50 -27 -50 -9 0 6 -7 10 -15 10 -21 0
-19 -17 4 -30 29 -15 56 -12 74 8 13 14 17 39 17 105 0 51 -4 87 -10 87 -5 0
-10 -5 -10 -11 0 -6 -7 -8 -15 -5 -8 3 -21 8 -28 11 -6 3 -22 -2 -35 -10z"/>
<path d="M8060 10827 c-20 -10 -26 -21 -28 -56 -4 -51 17 -81 58 -81 38 0 60
20 66 60 10 60 -44 103 -96 77z"/>
<path d="M8130 10525 c0 -33 -1 -34 -26 -24 -44 16 -74 -11 -74 -66 0 -26 6
-50 16 -59 18 -19 55 -21 72 -4 9 9 12 9 12 0 0 -7 5 -12 10 -12 6 0 10 40 10
100 0 60 -4 100 -10 100 -5 0 -10 -16 -10 -35z"/>
<path d="M2130 10380 l0 -140 110 0 110 0 0 103 0 103 -38 37 c-37 36 -40 37
-110 37 l-72 0 0 -140z"/>
<path d="M8702 10495 c-17 -13 -22 -26 -22 -60 0 -26 6 -50 16 -59 18 -19 55
-21 72 -4 16 16 17 -5 2 -33 -11 -20 -50 -27 -50 -9 0 6 -7 10 -15 10 -21 0
-19 -17 4 -30 29 -15 56 -12 74 8 13 14 17 39 17 105 0 51 -4 87 -10 87 -5 0
-10 -5 -10 -11 0 -6 -7 -8 -15 -5 -8 3 -21 8 -28 11 -6 3 -22 -2 -35 -10z"/>
<path d="M2615 10418 c-35 -50 -1 -127 51 -114 18 5 24 2 24 -9 0 -21 -29 -31
-50 -17 -14 9 -19 8 -24 -3 -12 -32 61 -43 93 -14 18 17 21 31 21 98 l0 78
-50 2 c-40 0 -52 -3 -65 -21z"/>
<path d="M3015 10418 c-35 -50 -1 -127 51 -114 18 5 24 2 24 -9 0 -21 -29 -31
-50 -17 -14 9 -19 8 -24 -3 -6 -17 1 -22 42 -30 54 -9 72 19 72 114 l0 78 -50
2 c-40 0 -52 -3 -65 -21z"/>
<path d="M3326 10418 c-47 -66 23 -147 89 -104 20 13 25 25 25 56 0 48 -21 70
-65 70 -24 0 -39 -7 -49 -22z"/>
<path d="M7072 10165 c-17 -13 -22 -26 -22 -60 0 -26 6 -50 16 -59 18 -19 55
-21 72 -4 16 16 17 -5 2 -33 -11 -20 -50 -27 -50 -9 0 6 -7 10 -15 10 -21 0
-19 -17 4 -30 29 -15 56 -12 74 8 13 14 17 39 17 105 0 51 -4 87 -10 87 -5 0
-10 -5 -10 -11 0 -6 -7 -8 -15 -5 -8 3 -21 8 -28 11 -6 3 -22 -2 -35 -10z"/>
<path d="M7232 10165 c-17 -13 -22 -26 -22 -60 0 -26 6 -50 16 -59 18 -19 55
-21 72 -4 16 16 17 -5 2 -33 -11 -20 -50 -27 -50 -9 0 6 -7 10 -15 10 -21 0
-19 -17 4 -30 29 -15 56 -12 74 8 13 14 17 39 17 105 0 51 -4 87 -10 87 -5 0
-10 -5 -10 -11 0 -6 -7 -8 -15 -5 -8 3 -21 8 -28 11 -6 3 -22 -2 -35 -10z"/>
<path d="M2130 9885 l0 -135 110 0 110 0 0 93 0 94 -41 41 c-40 41 -42 42
-110 42 l-69 0 0 -135z"/>
<path d="M3487 9944 c-11 -11 -9 -204 3 -204 9 0 15 28 11 57 -1 8 9 10 32 6
28 -4 37 -1 51 18 19 28 21 78 3 103 -10 14 -23 17 -50 14 -20 -2 -38 0 -40 5
-1 4 -6 5 -10 1z"/>
<path d="M2130 9385 l0 -135 110 0 110 0 0 93 -1 92 -40 43 c-39 42 -40 42
-109 42 l-70 0 0 -135z"/>
<path d="M2620 9468 c0 -33 -1 -34 -33 -30 -36 4 -54 -10 -57 -43 -8 -69 13
-96 71 -93 21 1 39 4 40 7 5 64 -1 186 -10 189 -7 2 -11 -9 -11 -30z"/>
<path d="M3445 9440 c-11 -4 -26 -5 -32 -3 -10 4 -13 -19 -13 -96 0 -61 4
-101 10 -101 11 0 13 12 10 47 -1 20 2 21 33 16 28 -4 37 -1 51 18 41 59 1
141 -59 119z"/>
<path d="M6214 9172 c-19 -13 -23 -40 -9 -58 11 -15 10 -20 -3 -30 -10 -7 -13
-19 -8 -37 13 -52 116 -45 116 8 0 13 -7 28 -16 33 -14 8 -14 10 0 21 19 16
21 42 4 59 -13 13 -67 16 -84 4z"/>
<path d="M2130 8885 l0 -135 110 0 110 0 0 92 0 92 -42 43 c-41 42 -43 43
-110 43 l-68 0 0 -135z"/>
<path d="M3297 8943 c-11 -11 -8 -203 3 -203 9 0 15 28 11 57 -1 8 9 10 32 6
28 -4 37 -1 51 18 19 28 21 79 4 101 -16 19 -51 28 -69 17 -8 -4 -16 -4 -19 2
-4 5 -9 6 -13 2z"/>
<path d="M3060 8838 c0 -59 4 -98 10 -98 6 0 10 16 10 35 0 33 1 34 30 28 41
-8 70 19 70 64 0 59 -14 74 -70 72 l-50 -2 0 -99z"/>
<path d="M13066 8809 c-11 -30 -1 -192 12 -197 8 -2 12 8 12 31 0 33 1 34 37
33 32 -1 39 3 51 27 20 41 8 95 -24 107 -16 7 -32 7 -43 0 -12 -6 -22 -5 -29
2 -8 8 -13 8 -16 -3z"/>
<path d="M13740 8807 c-20 -10 -26 -21 -28 -56 -4 -51 17 -81 58 -81 38 0 60
20 66 62 5 30 2 41 -19 62 -29 29 -41 31 -77 13z"/>
<path d="M14855 8808 c-11 -28 -1 -191 13 -196 8 -2 12 8 12 31 0 33 1 34 37
33 31 -1 39 3 51 26 29 61 -10 128 -64 107 -13 -4 -26 -3 -32 3 -8 8 -13 7
-17 -4z"/>
<path d="M10890 8505 c0 -33 -1 -34 -26 -24 -44 16 -74 -11 -74 -66 0 -57 18
-75 75 -73 l45 2 0 98 c0 59 -4 98 -10 98 -5 0 -10 -16 -10 -35z"/>
<path d="M15440 8505 c0 -33 -1 -34 -26 -24 -44 16 -74 -11 -74 -66 0 -26 6
-50 16 -59 18 -19 55 -21 72 -4 9 9 12 9 12 0 0 -7 5 -12 10 -12 6 0 10 40 10
100 0 60 -4 100 -10 100 -5 0 -10 -16 -10 -35z"/>
<path d="M2130 8385 l0 -135 110 0 110 0 0 93 0 94 -38 41 c-39 42 -39 42
-110 42 l-72 0 0 -135z"/>
<path d="M6206 8488 c-23 -33 -21 -103 4 -128 25 -25 51 -25 78 -2 20 16 27
48 24 99 -4 52 -77 73 -106 31z"/>
<path d="M7570 8477 c-20 -10 -26 -21 -28 -56 -4 -51 17 -81 58 -81 38 0 60
20 66 62 5 30 2 41 -19 62 -29 29 -41 31 -77 13z"/>
<path d="M12930 8477 c-20 -10 -26 -21 -28 -56 -4 -51 17 -81 58 -81 38 0 60
20 66 62 5 30 2 41 -19 62 -29 29 -41 31 -77 13z"/>
<path d="M13915 8478 c-29 -16 -35 -28 -35 -69 0 -42 24 -69 61 -69 37 0 59
21 65 62 5 30 2 41 -19 62 -29 29 -42 31 -72 14z"/>
<path d="M3080 8338 c0 -59 4 -98 10 -98 9 0 15 28 11 57 -1 8 9 10 32 6 28
-4 37 -1 51 18 18 27 21 71 6 100 -9 16 -20 19 -60 18 l-50 -2 0 -99z"/>
<path d="M2640 7880 c0 -60 4 -100 10 -100 6 0 10 5 10 12 0 9 3 9 12 0 34
-34 88 4 88 63 0 48 -20 68 -63 63 -36 -4 -37 -3 -37 29 0 18 -4 33 -10 33 -6
0 -10 -40 -10 -100z"/>
<path d="M2979 7917 c-13 -7 -28 -27 -33 -45 -18 -65 57 -119 103 -73 21 21
28 74 13 98 -14 22 -57 32 -83 20z"/>
<path d="M7056 7789 c-11 -31 -1 -192 12 -197 8 -2 12 8 12 32 0 34 1 35 30
30 17 -4 36 -1 44 5 17 15 28 66 20 98 -8 29 -47 47 -73 33 -12 -6 -22 -5 -29
2 -8 8 -13 8 -16 -3z"/>
<path d="M2130 7340 l0 -140 110 0 110 0 0 97 0 97 -42 43 c-41 42 -43 43
-110 43 l-68 0 0 -140z"/>
<path d="M3063 7452 c-22 -3 -23 -7 -23 -99 l0 -96 52 5 c64 7 88 31 88 93 0
71 -44 108 -117 97z"/>
<path d="M4010 7428 c0 -31 -2 -33 -37 -33 -49 0 -71 -37 -53 -90 12 -37 27
-45 77 -43 l32 1 3 76 c2 42 2 86 0 99 -5 34 -22 26 -22 -10z"/>
<path d="M2530 7355 c0 -78 3 -95 15 -95 11 0 15 11 15 41 0 36 2 40 22 37 14
-2 30 -17 42 -40 11 -21 26 -38 33 -38 10 0 8 11 -8 42 -19 37 -19 42 -5 50
18 10 21 50 6 79 -9 15 -22 19 -65 19 l-55 0 0 -95z"/>
<path d="M3220 7355 c0 -80 3 -95 16 -95 13 0 15 11 12 70 -2 39 -1 70 2 70 3
0 17 -30 31 -67 14 -37 30 -68 36 -70 6 -2 24 29 39 69 l29 73 3 -73 c2 -52 6
-72 15 -69 7 2 12 9 11 15 -1 7 -2 48 -2 92 -2 60 -5 80 -15 80 -13 0 -23 -18
-63 -115 l-16 -40 -30 78 c-23 59 -34 77 -49 77 -17 0 -19 -8 -19 -95z"/>
<path d="M8710 7127 c-20 -10 -26 -21 -28 -56 -4 -51 17 -81 58 -81 38 0 60
20 66 62 5 30 2 41 -19 62 -29 29 -41 31 -77 13z"/>
<path d="M8862 7125 c-17 -13 -22 -26 -22 -60 0 -26 6 -50 16 -59 18 -19 55
-21 72 -4 16 16 17 -5 2 -33 -11 -20 -50 -27 -50 -9 0 6 -7 10 -15 10 -21 0
-19 -17 4 -30 29 -15 56 -12 74 8 13 14 17 39 17 105 0 51 -4 87 -10 87 -5 0
-10 -5 -10 -11 0 -6 -7 -8 -15 -5 -8 3 -21 8 -28 11 -6 3 -22 -2 -35 -10z"/>
<path d="M2130 6840 l0 -140 110 0 110 0 0 97 0 97 -42 43 c-41 42 -43 43
-110 43 l-68 0 0 -140z"/>
<path d="M3487 6904 c-11 -11 -9 -204 3 -204 9 0 15 28 11 57 -1 8 9 10 32 6
28 -4 37 -1 51 18 19 28 21 78 3 103 -10 14 -23 17 -50 14 -20 -2 -38 0 -40 5
-1 4 -6 5 -10 1z"/>
<path d="M6565 6767 c-12 -29 -1 -190 13 -195 8 -2 12 8 12 31 0 33 1 34 37
33 32 -1 39 3 51 27 20 41 8 95 -24 107 -16 7 -32 7 -43 0 -12 -6 -22 -5 -29
2 -8 8 -13 7 -17 -5z"/>
<path d="M6896 6769 c-11 -30 -1 -192 12 -197 8 -2 12 8 12 31 0 33 1 34 37
33 32 -1 39 3 51 27 20 41 8 95 -24 107 -16 7 -32 7 -43 0 -12 -6 -22 -5 -29
2 -8 8 -13 8 -16 -3z"/>
<path d="M7413 6765 c-30 -13 -33 -18 -33 -59 0 -35 5 -48 22 -60 47 -34 93
-13 103 46 6 31 3 41 -19 62 -29 30 -30 30 -73 11z"/>
<path d="M7562 6765 c-17 -13 -22 -26 -22 -60 0 -26 6 -50 16 -59 18 -19 55
-21 72 -4 16 16 17 -5 2 -33 -11 -20 -50 -27 -50 -9 0 6 -7 10 -15 10 -21 0
-19 -17 4 -30 29 -15 56 -12 74 8 13 14 17 39 17 105 0 51 -4 87 -10 87 -5 0
-10 -5 -10 -11 0 -6 -7 -8 -15 -5 -8 3 -21 8 -28 11 -6 3 -22 -2 -35 -10z"/>
<path d="M7310 6465 c0 -33 -1 -34 -26 -24 -44 16 -74 -11 -74 -66 0 -26 6
-50 16 -59 18 -19 55 -21 72 -4 9 9 12 9 12 0 0 -7 5 -12 10 -12 6 0 10 40 10
100 0 60 -4 100 -10 100 -5 0 -10 -16 -10 -35z"/>
<path d="M9260 6465 c0 -33 -1 -34 -26 -24 -44 16 -74 -11 -74 -66 0 -26 6
-50 16 -59 18 -19 55 -21 72 -4 9 9 12 9 12 0 0 -7 5 -12 10 -12 6 0 10 40 10
100 0 60 -4 100 -10 100 -5 0 -10 -16 -10 -35z"/>
<path d="M2130 6340 l0 -140 110 0 110 0 0 97 0 97 -42 43 c-41 42 -43 43
-110 43 l-68 0 0 -140z"/>
<path d="M2620 6428 c0 -33 -1 -34 -33 -30 -36 4 -54 -10 -57 -43 -8 -69 13
-96 71 -93 21 1 39 4 40 7 5 64 -1 186 -10 189 -7 2 -11 -9 -11 -30z"/>
<path d="M6565 6438 c-11 -28 -1 -191 13 -196 8 -2 12 8 12 31 0 33 1 34 37
33 32 -1 39 3 51 27 20 41 8 95 -24 107 -16 7 -32 7 -43 0 -12 -6 -22 -5 -29
2 -8 8 -13 7 -17 -4z"/>
<path d="M6896 6439 c-11 -30 -1 -192 12 -197 8 -2 12 8 12 31 0 33 1 34 37
33 32 -1 39 3 51 27 20 41 8 95 -24 107 -16 7 -32 7 -43 0 -12 -6 -22 -5 -29
2 -8 8 -13 8 -16 -3z"/>
<path d="M10170 6437 c-22 -11 -25 -19 -25 -62 0 -42 4 -51 26 -64 34 -19 73
-8 87 24 18 39 15 63 -13 90 -27 28 -39 30 -75 12z"/>
<path d="M3445 6400 c-11 -4 -26 -5 -32 -3 -10 4 -13 -19 -13 -96 0 -61 4
-101 10 -101 11 0 13 12 10 47 -1 20 2 21 33 16 28 -4 37 -1 51 18 41 59 1
141 -59 119z"/>
<path d="M2130 5840 l0 -140 110 0 110 0 0 97 0 97 -42 43 c-41 42 -43 43
-110 43 l-68 0 0 -140z"/>
<path d="M3297 5903 c-11 -11 -8 -203 3 -203 9 0 15 28 11 57 -1 8 9 10 32 6
28 -4 37 -1 51 18 19 28 21 79 4 101 -16 19 -51 28 -69 17 -8 -4 -16 -4 -19 2
-4 5 -9 6 -13 2z"/>
<path d="M3060 5798 c0 -59 4 -98 10 -98 6 0 10 16 10 35 0 33 1 34 30 28 41
-8 70 19 70 64 0 59 -14 74 -70 72 l-50 -2 0 -99z"/>
<path d="M6206 5784 c-20 -19 -20 -24 -1 -51 13 -19 13 -22 0 -27 -8 -3 -15
-16 -15 -29 0 -32 49 -55 88 -41 32 11 42 52 18 70 -14 10 -15 13 -1 24 18 15
19 42 3 58 -17 17 -74 15 -92 -4z"/>
<path d="M9030 5767 c-20 -10 -26 -21 -28 -56 -4 -51 17 -81 58 -81 38 0 60
20 66 62 5 30 2 41 -19 62 -29 29 -41 31 -77 13z"/>
<path d="M9832 5765 c-17 -13 -22 -26 -22 -60 0 -26 6 -50 16 -59 18 -19 55
-21 72 -4 16 16 17 -5 2 -33 -11 -20 -50 -27 -50 -9 0 6 -7 10 -15 10 -21 0
-19 -17 4 -30 29 -15 56 -12 74 8 13 14 17 39 17 105 0 51 -4 87 -10 87 -5 0
-10 -5 -10 -11 0 -6 -7 -8 -15 -5 -8 3 -21 8 -28 11 -6 3 -22 -2 -35 -10z"/>
<path d="M10637 5773 c-12 -18 -2 -196 11 -201 8 -2 12 8 12 31 0 33 1 34 37
33 32 -1 39 3 51 27 29 61 -17 134 -67 108 -12 -7 -22 -6 -28 0 -6 6 -13 7
-16 2z"/>
<path d="M10820 5767 c-20 -10 -26 -21 -28 -56 -4 -51 17 -81 58 -81 38 0 60
20 66 60 10 60 -44 103 -96 77z"/>
<path d="M2400 5408 c0 -31 -2 -33 -37 -33 -47 0 -65 -28 -53 -82 10 -44 23
-52 75 -51 l40 0 -3 99 c-2 55 -8 99 -13 99 -5 0 -9 -15 -9 -32z"/>
<path d="M2470 5340 c0 -60 4 -100 10 -100 6 0 10 5 10 12 0 9 3 9 12 0 34
-34 88 4 88 61 0 49 -16 67 -61 67 -32 0 -40 3 -38 18 3 29 -1 42 -11 42 -6 0
-10 -40 -10 -100z"/>
<path d="M7408 5414 c-24 -12 -28 -21 -28 -58 0 -49 22 -76 61 -76 37 0 59 21
65 62 5 30 2 41 -19 62 -30 30 -41 31 -79 10z"/>
<path d="M2172 5368 c-7 -7 -12 -31 -12 -54 0 -53 22 -77 62 -72 21 4 28 1 26
-10 -5 -26 -35 -38 -58 -24 -17 10 -20 10 -20 -2 0 -8 14 -17 31 -21 24 -5 36
-3 49 11 20 20 23 38 21 125 l-1 56 -43 1 c-24 1 -48 -3 -55 -10z"/>
<path d="M6206 5088 c-23 -33 -21 -103 4 -128 25 -25 51 -25 78 -2 19 16 26
44 23 99 -2 52 -76 73 -105 31z"/>
<path d="M6920 5077 c-20 -10 -26 -21 -28 -56 -4 -51 17 -81 58 -81 38 0 60
20 66 62 5 30 2 41 -19 62 -29 29 -41 31 -77 13z"/>
<path d="M2188 4932 l-58 -3 0 -134 0 -135 110 0 110 0 0 98 0 98 -37 36 c-45
42 -51 44 -125 40z"/>
<path d="M3480 4758 c0 -59 4 -98 10 -98 6 0 10 15 10 34 0 34 1 35 34 29 27
-4 36 -1 50 18 18 27 21 71 6 100 -9 16 -20 19 -60 18 l-50 -2 0 -99z"/>
<path d="M6918 4744 c-24 -13 -28 -21 -28 -59 0 -34 5 -47 22 -59 48 -34 95
-13 104 46 5 30 2 41 -19 62 -30 30 -41 31 -79 10z"/>
<path d="M7721 4744 c-26 -19 -30 -94 -5 -118 18 -19 55 -21 72 -4 18 18 16
-13 -2 -37 -13 -17 -17 -18 -40 -6 -31 17 -49 5 -22 -15 27 -19 60 -18 79 4
13 14 17 39 17 105 0 48 -4 87 -9 87 -5 0 -11 -5 -13 -11 -2 -7 -12 -7 -29 0
-20 7 -32 6 -48 -5z"/>
<path d="M1820 4295 l0 -135 110 0 110 0 0 98 0 98 -38 37 c-37 36 -40 37
-110 37 l-72 0 0 -135z"/>
<path d="M6919 4416 c-19 -9 -25 -21 -27 -58 -3 -39 1 -49 20 -62 47 -33 95
-13 104 44 10 61 -43 103 -97 76z"/>
<path d="M7722 4415 c-17 -13 -22 -26 -22 -60 0 -26 6 -50 16 -59 18 -19 55
-21 72 -4 16 16 17 -5 2 -33 -11 -20 -50 -27 -50 -9 0 6 -7 10 -15 10 -21 0
-19 -17 4 -30 29 -15 56 -12 74 8 13 14 17 39 17 105 0 51 -4 87 -10 87 -5 0
-10 -5 -10 -11 0 -6 -7 -8 -15 -5 -8 3 -21 8 -28 11 -6 3 -22 -2 -35 -10z"/>
<path d="M2386 4363 c-4 -4 -22 -6 -40 -5 -35 3 -53 -10 -56 -43 -7 -66 15
-99 62 -93 21 4 28 1 26 -10 -5 -26 -35 -38 -58 -24 -17 10 -20 10 -20 -2 0
-8 14 -17 31 -21 52 -12 68 14 70 113 2 82 -1 98 -15 85z"/>
<path d="M2682 4348 c-13 -17 -18 -67 -8 -95 8 -24 45 -39 72 -29 21 8 15 -23
-8 -38 -13 -8 -23 -8 -38 2 -17 10 -20 10 -20 -2 0 -24 58 -31 81 -10 16 14
19 31 19 99 l0 82 -44 1 c-25 1 -48 -3 -54 -10z"/>
<path d="M1820 3795 l0 -135 110 0 110 0 0 98 0 98 -38 37 c-37 36 -40 37
-110 37 l-72 0 0 -135z"/>
<path d="M2640 3888 c0 -31 -2 -33 -37 -33 -49 0 -71 -37 -53 -90 12 -37 27
-45 78 -43 l32 1 0 99 c0 59 -4 98 -10 98 -5 0 -10 -15 -10 -32z"/>
<path d="M3110 3887 c0 -32 -2 -33 -30 -29 -17 2 -36 -1 -44 -7 -34 -28 -22
-117 17 -126 29 -7 77 -2 77 8 0 4 0 48 0 97 0 53 -4 90 -10 90 -5 0 -10 -15
-10 -33z"/>
<path d="M3250 3822 l0 -98 42 -1 c54 -3 78 18 78 67 0 52 -19 74 -63 72 -20
-1 -36 2 -36 6 4 23 -2 52 -11 52 -6 0 -10 -39 -10 -98z"/>
<path d="M3407 3864 c-11 -11 -9 -204 3 -204 8 0 15 36 11 62 0 4 14 4 33 1
27 -4 36 -1 50 18 19 28 21 78 3 103 -10 14 -23 17 -50 14 -20 -2 -38 0 -40 5
-1 4 -6 5 -10 1z"/>
<path d="M6760 3727 c-20 -10 -26 -21 -28 -59 -3 -39 1 -49 20 -62 47 -33 95
-13 104 44 10 60 -44 103 -96 77z"/>
<path d="M6760 3397 c-20 -10 -26 -21 -28 -56 -4 -51 17 -81 58 -81 38 0 60
20 66 62 5 30 2 41 -19 62 -29 29 -41 31 -77 13z"/>
<path d="M7562 3395 c-17 -13 -22 -26 -22 -60 0 -26 6 -50 16 -59 18 -19 55
-21 72 -4 16 16 17 -5 2 -33 -11 -20 -50 -27 -50 -9 0 6 -7 10 -15 10 -21 0
-19 -17 4 -30 29 -15 56 -12 74 8 13 14 17 39 17 105 0 51 -4 87 -10 87 -5 0
-10 -5 -10 -11 0 -6 -7 -8 -15 -5 -8 3 -21 8 -28 11 -6 3 -22 -2 -35 -10z"/>
<path d="M1820 3235 l0 -135 110 0 110 0 0 96 0 96 -41 39 c-39 38 -43 39
-110 39 l-69 0 0 -135z"/>
<path d="M2462 3334 c-35 -14 -47 -45 -43 -112 1 -31 44 -72 76 -72 14 0 37
11 50 25 46 45 25 152 -33 167 -11 3 -33 0 -50 -8z"/>
<path d="M7079 3056 c-19 -9 -25 -21 -27 -58 -3 -39 1 -49 20 -62 47 -33 95
-13 104 44 10 61 -43 103 -97 76z"/>
<path d="M1820 2795 l0 -135 110 0 110 0 0 98 0 98 -38 37 c-37 36 -40 37
-110 37 l-72 0 0 -135z"/>
<path d="M2240 2890 c-31 -31 -28 -113 5 -145 51 -52 115 -20 122 61 4 40 1
54 -17 77 -27 34 -80 37 -110 7z"/>
<path d="M2403 2897 c3 -8 13 -51 23 -96 10 -45 23 -81 29 -81 7 0 20 28 30
63 10 34 22 66 25 70 4 5 15 -21 25 -58 17 -61 30 -84 41 -72 5 5 44 162 44
178 0 5 -4 9 -9 9 -5 0 -17 -33 -27 -72 l-18 -73 -17 55 c-10 30 -18 63 -18
73 -1 9 -7 17 -15 17 -9 0 -21 -22 -31 -57 -25 -91 -26 -92 -44 -19 -9 39 -22
71 -30 74 -9 3 -12 0 -8 -11z"/>
<path d="M3000 2815 c0 -78 3 -95 15 -95 11 0 15 11 15 40 0 55 31 55 62 0 32
-55 55 -54 27 2 -19 37 -19 42 -5 50 18 10 21 50 6 79 -9 15 -22 19 -65 19
l-55 0 0 -95z"/>
<path d="M7058 2708 c-11 -29 -3 -191 10 -196 8 -2 12 8 12 31 0 33 1 34 37
33 32 -1 39 3 51 27 20 41 8 95 -24 107 -16 7 -32 7 -43 0 -12 -6 -22 -5 -28
1 -7 7 -12 6 -15 -3z"/>
<path d="M7245 2708 c-29 -16 -35 -28 -35 -69 0 -42 24 -69 61 -69 37 0 59 21
65 62 5 30 2 41 -19 62 -29 29 -42 31 -72 14z"/>
<path d="M6214 2402 c-19 -13 -23 -40 -9 -58 11 -15 10 -20 -3 -30 -10 -7 -13
-19 -8 -37 13 -52 116 -45 116 8 0 13 -7 28 -16 33 -14 8 -14 10 0 21 19 16
21 42 4 59 -13 13 -67 16 -84 4z"/>
<path d="M6736 2369 c-10 -46 -2 -182 12 -187 8 -2 12 8 12 31 0 33 1 34 37
33 32 -1 39 3 51 27 20 41 8 95 -24 107 -16 7 -32 7 -43 0 -12 -6 -22 -5 -29
2 -8 8 -12 4 -16 -13z"/>
<path d="M2380 2228 c0 -59 4 -98 10 -98 6 0 10 15 10 34 0 34 1 35 34 29 27
-4 36 -1 50 18 18 27 21 71 6 100 -9 16 -20 19 -60 18 l-50 -2 0 -99z"/>
<path d="M2290 1688 c0 -59 4 -98 10 -98 6 0 10 15 10 34 0 34 1 35 34 29 27
-4 36 -1 50 18 18 27 21 71 6 100 -9 16 -20 19 -60 18 l-50 -2 0 -99z"/>
<path d="M2080 1277 c0 -31 -2 -33 -33 -29 -38 4 -54 -10 -60 -53 -4 -31 7
-64 27 -77 6 -4 28 -7 49 -6 l37 1 0 99 c0 59 -4 98 -10 98 -5 0 -10 -15 -10
-33z"/>
<path d="M6552 1274 c-16 -11 -22 -25 -22 -53 0 -46 24 -71 68 -71 33 0 72 38
72 70 0 10 -9 29 -21 44 -24 30 -63 34 -97 10z"/>
</g>
</svg>
