<?xml version="1.0" standalone="no"?>
<!DOCTYPE svg PUBLIC "-//W3C//DTD SVG 20010904//EN"
 "http://www.w3.org/TR/2001/REC-SVG-20010904/DTD/svg10.dtd">
<svg version="1.0" xmlns="http://www.w3.org/2000/svg"
 width="1700.000000pt" height="2200.000000pt" viewBox="0 0 1700.000000 2200.000000"
 preserveAspectRatio="xMidYMid meet">
<metadata>
Created by potrace 1.16, written by Peter Selinger 2001-2019
</metadata>
<g transform="translate(0.000000,2200.000000) scale(0.100000,-0.100000)"
fill="#000000" stroke="none">
<path d="M1240 10435 c0 -10 -10 -15 -30 -15 -23 0 -30 -4 -30 -20 0 -11 7
-23 15 -26 8 -4 15 -17 15 -30 0 -15 -6 -24 -15 -24 -8 0 -15 -9 -15 -20 0
-13 7 -20 20 -20 11 0 20 7 20 15 0 8 7 15 16 15 8 0 22 -7 30 -15 9 -8 24
-15 35 -15 14 0 19 7 19 30 0 20 5 30 15 30 8 0 15 7 15 15 0 8 -6 15 -14 15
-8 0 -16 10 -18 23 -2 16 -11 23 -30 25 -16 2 -28 9 -28 18 0 8 -4 14 -10 14
-5 0 -10 -7 -10 -15z"/>
</g>
</svg>
