<?xml version="1.0" standalone="no"?>
<!DOCTYPE svg PUBLIC "-//W3C//DTD SVG 20010904//EN"
 "http://www.w3.org/TR/2001/REC-SVG-20010904/DTD/svg10.dtd">
<svg version="1.0" xmlns="http://www.w3.org/2000/svg"
 width="1700.000000pt" height="2200.000000pt" viewBox="0 0 1700.000000 2200.000000"
 preserveAspectRatio="xMidYMid meet">
<metadata>
Created by potrace 1.16, written by Peter Selinger 2001-2019
</metadata>
<g transform="translate(0.000000,2200.000000) scale(0.100000,-0.100000)"
fill="#000000" stroke="none">
<path d="M7300 21465 l0 -75 44 0 c36 0 48 5 65 26 24 30 26 55 10 87 -17 31
-28 37 -76 37 l-43 0 0 -75z"/>
<path d="M1089 20959 c-6 -3 -10 -9 -10 -13 4 -32 1 -38 -16 -25 -14 12 -16
12 -11 -1 3 -8 12 -15 20 -14 20 2 11 -50 -13 -72 -23 -21 -25 -7 -3 24 9 13
13 26 9 30 -3 3 -11 0 -16 -8 -8 -12 -9 -10 -4 7 3 12 1 24 -5 28 -7 4 -10
-28 -10 -98 0 -91 2 -106 18 -112 16 -6 16 -7 0 -19 -41 -30 -20 -36 109 -31
70 3 129 7 131 10 3 3 10 5 16 5 6 0 4 -5 -4 -10 -13 -8 -12 -10 4 -10 21 0
45 27 46 50 0 13 -1 13 -10 0 -5 -8 -10 -10 -10 -4 0 6 2 13 5 16 11 11 14
247 3 254 -6 4 -15 -1 -20 -10 -5 -9 -14 -14 -19 -11 -5 4 -6 12 -2 18 4 8 1
7 -9 -1 -11 -9 -18 -10 -23 -2 -8 14 -42 13 -51 -2 -5 -7 -2 -8 7 -3 11 6 12
5 2 -5 -10 -11 -16 -11 -30 2 -18 16 -83 21 -104 7z m57 -26 c0 -9 5 -17 12
-19 7 -1 8 0 2 3 -7 3 -6 11 1 24 12 24 33 14 26 -12 -3 -11 -1 -19 4 -19 5 0
4 -11 -1 -25 -7 -19 -6 -23 5 -19 9 4 12 17 9 37 -2 19 0 27 5 19 5 -9 17 -11
34 -7 15 4 24 12 20 18 -3 6 -1 7 6 3 7 -4 11 -15 10 -24 -1 -10 1 -25 6 -34
9 -22 0 -48 -17 -48 -9 0 -8 3 2 10 13 8 13 10 -2 10 -14 0 -29 -24 -33 -50 0
-3 -4 -11 -9 -19 -7 -11 -5 -13 7 -8 11 4 14 2 11 -7 -3 -7 2 -21 11 -30 9 -9
12 -16 7 -16 -5 0 -15 7 -22 15 -7 8 -17 15 -22 15 -7 0 -6 -5 1 -13 14 -18 4
-27 -31 -27 -23 0 -28 5 -29 25 -3 47 -14 69 -32 59 -8 -5 -8 -3 1 7 15 16 16
29 1 29 -5 0 -7 -4 -4 -10 3 -5 1 -10 -4 -10 -14 0 -14 13 1 28 9 9 8 15 -7
25 -20 15 -29 63 -14 73 5 3 7 9 4 13 -2 5 6 6 19 4 13 -3 23 -12 22 -20z"/>
<path d="M2010 20820 l0 -100 25 0 c21 0 25 5 25 33 l1 32 27 -33 c20 -24 35
-33 50 -30 l22 3 -25 38 -26 37 27 35 26 35 -23 0 c-13 0 -34 -13 -50 -32
l-28 -33 -2 30 c0 17 0 42 1 58 1 23 -2 27 -24 27 l-26 0 0 -100z"/>
<path d="M8770 20820 l0 -100 38 0 c43 0 54 6 71 39 28 52 -11 121 -59 106
-17 -5 -20 -2 -20 24 0 21 -5 31 -15 31 -12 0 -15 -18 -15 -100z"/>
<path d="M9650 20820 l0 -100 38 0 c43 0 54 6 71 39 28 52 -11 121 -59 106
-17 -5 -20 -2 -20 24 0 21 -5 31 -15 31 -12 0 -15 -18 -15 -100z"/>
<path d="M1490 20815 c0 -88 1 -95 20 -95 17 0 20 7 20 40 0 39 1 40 35 40 34
0 35 -1 35 -40 0 -33 3 -40 20 -40 19 0 20 7 20 95 0 88 -1 95 -20 95 -16 0
-20 -7 -20 -35 0 -33 -2 -35 -35 -35 -33 0 -35 2 -35 35 0 28 -4 35 -20 35
-19 0 -20 -7 -20 -95z"/>
<path d="M2580 20815 c0 -88 2 -95 20 -95 16 0 19 8 22 63 l3 62 35 -62 c27
-49 40 -63 57 -63 22 0 23 3 23 95 0 87 -2 95 -19 95 -17 0 -20 -8 -23 -52
l-3 -52 -28 52 c-24 44 -33 52 -58 52 l-29 0 0 -95z"/>
<path d="M1703 20864 c-29 -13 -12 -31 28 -30 25 1 44 -4 46 -11 3 -9 -5 -13
-24 -13 -55 0 -94 -50 -60 -78 7 -6 41 -11 75 -11 l62 1 0 52 c0 29 -6 60 -13
70 -13 18 -89 31 -114 20z"/>
<path d="M2220 20863 c-56 -22 -68 -87 -24 -122 39 -31 134 -28 134 4 0 9 -16
12 -51 11 -73 -2 -79 22 -7 26 50 3 53 4 50 28 -1 14 -8 30 -15 37 -15 15 -66
24 -87 16z"/>
<path d="M2820 20863 c-56 -21 -68 -87 -24 -122 39 -31 134 -28 134 5 0 10
-12 12 -49 7 -32 -4 -51 -1 -56 6 -11 18 -1 23 52 25 45 1 48 3 45 26 -1 14
-8 30 -15 36 -15 15 -67 25 -87 17z"/>
<path d="M2940 20864 c0 -4 9 -38 20 -75 18 -61 24 -69 45 -69 21 0 27 7 37
48 l12 47 11 -45 c9 -37 15 -46 36 -48 24 -3 27 2 46 67 21 73 21 81 -7 81
-13 0 -21 -14 -30 -47 l-13 -48 -11 45 c-9 34 -17 45 -31 45 -15 0 -23 -10
-29 -37 -12 -49 -23 -48 -31 2 -6 34 -11 40 -31 40 -13 0 -24 -3 -24 -6z"/>
<path d="M4370 20762 c0 -78 3 -103 13 -100 6 3 13 17 15 31 3 20 9 27 25 27
44 0 72 43 63 96 -8 41 -17 46 -72 49 l-44 2 0 -105z"/>
<path d="M5356 20849 c-52 -41 -23 -129 42 -129 94 0 84 148 -9 150 -4 0 -18
-9 -33 -21z"/>
<path d="M7877 20850 c-53 -42 -25 -130 41 -130 38 0 64 30 65 75 2 62 -57 93
-106 55z"/>
<path d="M8627 20850 c-53 -42 -25 -130 41 -130 38 0 66 32 66 76 0 61 -59 91
-107 54z"/>
<path d="M15597 20850 c-53 -42 -25 -130 41 -130 38 0 66 32 66 76 0 61 -59
91 -107 54z"/>
<path d="M15749 20849 c-45 -45 -10 -139 46 -125 18 5 25 2 25 -8 0 -21 -27
-38 -50 -31 -11 3 -20 2 -20 -4 0 -16 36 -22 63 -10 31 14 37 34 37 125 l0 71
-41 0 c-27 0 -48 -6 -60 -18z"/>
<path d="M4250 20161 l0 -100 33 1 c50 0 64 7 77 38 24 57 -12 120 -60 105
-17 -5 -20 -2 -20 24 0 21 -5 31 -15 31 -12 0 -15 -18 -15 -99z"/>
<path d="M5930 20161 l0 -99 38 0 c21 0 43 2 48 6 35 23 39 106 8 129 -11 8
-29 11 -41 8 -20 -5 -23 -2 -23 25 0 20 -5 30 -15 30 -12 0 -15 -18 -15 -99z"/>
<path d="M1470 20155 l0 -95 40 0 c46 0 95 21 104 45 3 9 6 34 6 56 0 59 -34
89 -100 89 l-50 0 0 -95z"/>
<path d="M1677 20190 c-53 -42 -25 -130 41 -130 38 0 66 32 66 76 0 61 -59 91
-107 54z"/>
<path d="M2897 20190 c-53 -42 -25 -130 41 -130 38 0 66 32 66 76 0 61 -59 91
-107 54z"/>
<path d="M6016 18374 c-20 -20 -21 -88 -1 -104 8 -7 26 -10 40 -7 20 3 25 1
23 -12 -2 -9 -15 -17 -31 -19 -36 -4 -35 -22 2 -22 42 0 54 23 59 106 l3 74
-40 0 c-23 0 -46 -7 -55 -16z"/>
<path d="M4595 17977 c-10 -41 -1 -150 13 -155 8 -2 12 7 12 27 0 41 28 42 58
1 13 -16 30 -30 38 -30 13 0 10 8 -11 36 -25 33 -26 37 -11 53 19 21 21 55 3
69 -7 6 -31 13 -55 15 -37 5 -43 3 -47 -16z"/>
<path d="M7716 17934 c-20 -20 -21 -88 -1 -104 8 -7 26 -10 40 -7 20 3 25 1
23 -12 -2 -10 -17 -18 -38 -22 -26 -4 -31 -7 -18 -13 28 -13 62 -2 75 24 7 14
13 53 13 88 l0 62 -39 0 c-23 0 -46 -7 -55 -16z"/>
<path d="M2261 17538 c-4 -13 -21 -58 -37 -100 l-29 -78 -157 0 c-99 0 -158
-4 -158 -10 0 -6 95 -10 265 -10 170 0 265 4 265 10 0 6 -22 10 -49 10 l-49 0
38 98 c35 90 42 119 21 96 -4 -5 -23 -51 -42 -101 l-33 -93 -42 0 -42 0 18 48
c10 26 28 71 39 100 11 28 16 52 11 52 -6 0 -14 -10 -19 -22z"/>
<path d="M3771 17538 c-4 -13 -21 -58 -37 -100 l-29 -78 -587 0 c-385 0 -588
-3 -588 -10 0 -7 715 -10 2125 -10 1410 0 2125 3 2125 10 0 6 -16 10 -35 10
-22 0 -35 5 -35 13 1 6 16 50 34 97 31 80 37 106 17 84 -4 -5 -23 -51 -42
-101 l-33 -93 -452 0 -452 0 38 98 c35 90 42 119 21 96 -4 -5 -23 -51 -42
-101 l-33 -93 -287 0 -287 0 38 98 c35 90 42 119 21 96 -4 -5 -23 -51 -42
-101 l-33 -93 -427 0 -427 0 38 98 c35 90 42 119 21 96 -4 -5 -23 -51 -42
-101 l-33 -93 -292 0 -292 0 18 48 c10 26 28 71 39 100 11 28 16 52 11 52 -6
0 -14 -10 -19 -22z"/>
<path d="M2426 17494 c-20 -20 -21 -88 -1 -104 8 -7 26 -10 40 -7 20 3 25 1
23 -12 -2 -10 -17 -18 -38 -22 -26 -4 -31 -7 -18 -13 28 -13 62 -2 75 24 7 14
13 53 13 88 l0 62 -39 0 c-23 0 -46 -7 -55 -16z"/>
<path d="M6840 17350 c0 -7 148 -10 425 -10 277 0 425 3 425 10 0 7 -148 10
-425 10 -277 0 -425 -3 -425 -10z"/>
<path d="M7890 17350 c0 -7 203 -10 590 -10 387 0 590 3 590 10 0 7 -203 10
-590 10 -387 0 -590 -3 -590 -10z"/>
<path d="M2261 16658 c-4 -13 -21 -58 -37 -100 l-29 -78 -157 0 c-99 0 -158
-4 -158 -10 0 -6 95 -10 265 -10 170 0 265 4 265 10 0 6 -22 10 -49 10 l-49 0
38 98 c35 90 42 119 21 96 -4 -5 -23 -51 -42 -101 l-33 -93 -42 0 -42 0 18 48
c10 26 28 71 39 100 11 28 16 52 11 52 -6 0 -14 -10 -19 -22z"/>
<path d="M3771 16658 c-4 -13 -21 -58 -37 -100 l-29 -78 -587 0 c-385 0 -588
-3 -588 -10 0 -7 1119 -10 3336 -10 2221 0 3333 3 3329 10 -4 7 -585 10 -1710
10 l-1703 0 38 101 c21 55 34 99 28 97 -6 -2 -27 -48 -47 -101 l-35 -97 -287
0 -287 0 38 98 c35 90 42 119 21 96 -4 -5 -23 -51 -42 -101 l-33 -93 -427 0
-427 0 38 98 c35 90 42 119 21 96 -4 -5 -23 -51 -42 -101 l-33 -93 -292 0
-292 0 18 48 c10 26 28 71 39 100 11 28 16 52 11 52 -6 0 -14 -10 -19 -22z"/>
<path d="M2426 16614 c-20 -20 -21 -88 -1 -104 8 -7 26 -10 40 -7 20 3 25 1
23 -12 -2 -10 -17 -18 -38 -22 -26 -4 -31 -7 -18 -13 28 -13 62 -2 75 24 7 14
13 53 13 88 l0 62 -39 0 c-23 0 -46 -7 -55 -16z"/>
<path d="M6886 13654 c-20 -20 -21 -88 -1 -104 8 -7 26 -10 40 -7 20 3 25 1
23 -12 -2 -10 -17 -18 -38 -22 -26 -4 -31 -7 -18 -13 28 -13 62 -2 75 24 7 14
13 53 13 88 l0 62 -39 0 c-23 0 -46 -7 -55 -16z"/>
<path d="M12706 13654 c-20 -20 -21 -88 -1 -104 8 -7 26 -10 40 -7 20 3 25 1
23 -12 -2 -10 -17 -18 -38 -22 -26 -4 -31 -7 -18 -13 28 -13 62 -2 75 24 7 14
13 53 13 88 l0 62 -39 0 c-23 0 -46 -7 -55 -16z"/>
<path d="M5886 11304 c-20 -20 -21 -88 -1 -104 8 -7 26 -10 40 -7 20 3 25 1
23 -12 -2 -10 -17 -18 -38 -22 -26 -4 -31 -7 -18 -13 28 -13 62 -2 75 24 7 14
13 53 13 88 l0 62 -39 0 c-23 0 -46 -7 -55 -16z"/>
<path d="M8507 11302 c-21 -23 -22 -85 -2 -102 8 -7 26 -10 40 -7 20 3 25 1
23 -12 -2 -10 -17 -18 -38 -22 -26 -4 -31 -7 -18 -13 28 -13 62 -2 75 24 7 14
13 53 13 88 l0 62 -38 0 c-25 0 -45 -7 -55 -18z"/>
<path d="M9666 11304 c-20 -19 -21 -74 -3 -99 10 -12 22 -16 41 -13 21 4 26 2
24 -11 -2 -10 -15 -17 -36 -19 -39 -4 -33 -22 7 -22 42 0 55 23 58 106 l3 74
-39 0 c-23 0 -46 -7 -55 -16z"/>
<path d="M14107 11302 c-21 -23 -22 -85 -2 -102 8 -7 26 -10 40 -7 20 3 25 1
23 -12 -2 -10 -17 -18 -38 -22 -26 -4 -31 -7 -18 -13 28 -13 62 -2 75 24 7 14
13 53 13 88 l0 62 -38 0 c-25 0 -45 -7 -55 -18z"/>
<path d="M9254 11067 c-3 -8 -4 -47 -2 -88 l3 -74 41 -3 c32 -2 48 2 69 20 37
32 39 89 4 122 -29 28 -107 44 -115 23z"/>
<path d="M6296 11014 c-20 -20 -21 -88 -1 -104 8 -7 26 -10 40 -7 20 3 25 1
23 -12 -2 -10 -15 -17 -36 -19 -39 -4 -33 -22 7 -22 42 0 55 23 58 106 l3 74
-39 0 c-23 0 -46 -7 -55 -16z"/>
<path d="M5196 9684 c-20 -20 -21 -88 -1 -104 8 -7 26 -10 40 -7 20 3 25 1 23
-12 -2 -10 -17 -18 -38 -22 -26 -4 -31 -7 -18 -13 28 -13 62 -2 75 24 7 14 13
53 13 88 l0 62 -39 0 c-23 0 -46 -7 -55 -16z"/>
<path d="M5846 9684 c-20 -20 -21 -88 -1 -104 8 -7 26 -10 40 -7 20 3 25 1 23
-12 -2 -10 -17 -18 -38 -22 -26 -4 -31 -7 -18 -13 28 -13 62 -2 75 24 7 14 13
53 13 88 l0 62 -39 0 c-23 0 -46 -7 -55 -16z"/>
<path d="M12490 9241 c-15 -29 -12 -87 5 -101 8 -7 26 -10 40 -7 20 3 25 1 23
-12 -2 -10 -17 -18 -38 -22 -26 -4 -31 -7 -18 -13 28 -13 62 -2 75 24 7 14 13
53 13 88 l0 62 -45 0 c-34 0 -47 -5 -55 -19z"/>
<path d="M14187 7922 c-21 -23 -22 -85 -2 -102 8 -7 26 -10 40 -7 20 3 25 1
23 -12 -2 -10 -17 -18 -38 -22 -26 -4 -31 -7 -18 -13 28 -13 62 -2 75 24 7 14
13 53 13 88 l0 62 -38 0 c-25 0 -45 -7 -55 -18z"/>
<path d="M6627 7632 c-21 -23 -22 -85 -2 -102 8 -7 26 -10 40 -7 20 3 25 1 23
-12 -2 -10 -17 -18 -38 -22 -26 -4 -31 -7 -18 -13 28 -13 62 -2 75 24 7 14 13
53 13 88 l0 62 -38 0 c-25 0 -45 -7 -55 -18z"/>
<path d="M6976 7634 c-20 -20 -21 -88 -1 -104 8 -7 26 -10 40 -7 20 3 25 1 23
-12 -2 -10 -17 -18 -38 -22 -26 -4 -31 -7 -18 -13 28 -13 62 -2 75 24 7 14 13
53 13 88 l0 62 -39 0 c-23 0 -46 -7 -55 -16z"/>
<path d="M12536 7354 c-20 -20 -21 -88 -1 -104 8 -7 26 -10 40 -7 20 3 25 1
23 -12 -2 -10 -17 -18 -38 -22 -26 -4 -31 -7 -18 -13 28 -13 62 -2 75 24 7 14
13 53 13 88 l0 62 -39 0 c-23 0 -46 -7 -55 -16z"/>
<path d="M13636 7064 c-20 -20 -21 -88 -1 -104 8 -7 26 -10 40 -7 20 3 25 1
23 -12 -2 -10 -15 -17 -36 -19 -39 -4 -33 -22 7 -22 42 0 54 22 59 106 l4 74
-40 0 c-24 0 -47 -7 -56 -16z"/>
<path d="M14410 6621 c-15 -29 -12 -87 5 -101 8 -7 26 -10 40 -7 20 3 25 1 23
-12 -2 -10 -15 -17 -36 -19 -39 -4 -33 -22 7 -22 41 0 53 22 59 105 l5 75 -46
0 c-36 0 -49 -5 -57 -19z"/>
<path d="M5366 6334 c-20 -20 -21 -88 -1 -104 8 -7 26 -10 40 -7 20 3 25 1 23
-12 -2 -10 -17 -18 -38 -22 -26 -4 -31 -7 -18 -13 28 -13 62 -2 75 24 7 14 13
53 13 88 l0 62 -39 0 c-23 0 -46 -7 -55 -16z"/>
<path d="M5946 6044 c-20 -20 -21 -88 -1 -104 8 -7 26 -10 40 -7 20 3 25 1 23
-12 -2 -10 -15 -17 -36 -19 -39 -4 -33 -22 7 -22 43 0 56 24 58 107 l2 73 -39
0 c-22 0 -45 -7 -54 -16z"/>
<path d="M8707 5074 c-4 -4 -7 -45 -7 -91 l0 -83 48 0 c70 0 97 33 70 83 -7
12 -11 34 -9 49 1 14 -1 28 -6 31 -16 10 -89 18 -96 11z"/>
<path d="M4416 4032 c-3 -5 -5 -46 -4 -91 1 -61 4 -81 15 -81 8 0 13 12 13 30
0 22 5 30 18 30 10 0 28 -13 40 -30 13 -16 30 -30 38 -30 13 0 10 8 -11 36
-25 33 -26 37 -11 53 19 21 21 55 4 69 -18 14 -95 25 -102 14z"/>
<path d="M11266 3534 c-20 -20 -21 -88 -1 -104 8 -7 26 -10 40 -7 20 3 25 1
23 -12 -2 -10 -17 -18 -38 -22 -26 -4 -31 -7 -18 -13 28 -13 62 -2 75 24 7 14
13 53 13 88 l0 62 -39 0 c-23 0 -46 -7 -55 -16z"/>
<path d="M8777 2554 c-4 -4 -7 -45 -7 -91 l0 -83 48 0 c70 0 97 33 70 83 -7
12 -11 34 -9 49 1 14 -1 28 -6 31 -16 10 -89 18 -96 11z"/>
<path d="M14106 2494 c-20 -20 -21 -88 -1 -104 8 -7 26 -10 40 -7 20 3 25 1
23 -12 -2 -10 -15 -17 -36 -19 -39 -4 -33 -22 7 -22 43 0 56 24 58 107 l3 73
-39 0 c-23 0 -46 -7 -55 -16z"/>
<path d="M6967 2274 c-4 -4 -7 -45 -7 -91 l0 -83 48 0 c70 0 97 33 70 83 -7
12 -11 34 -9 49 1 14 -1 28 -6 31 -16 10 -89 18 -96 11z"/>
<path d="M7206 2214 c-20 -19 -21 -74 -3 -99 10 -12 22 -16 41 -13 21 4 26 2
24 -11 -2 -10 -15 -17 -36 -19 -39 -4 -33 -22 7 -22 42 0 54 22 59 106 l4 74
-40 0 c-24 0 -47 -7 -56 -16z"/>
<path d="M7796 1924 c-20 -20 -21 -88 -1 -104 8 -7 26 -10 40 -7 20 3 25 1 23
-12 -2 -10 -17 -18 -38 -22 -26 -4 -31 -7 -18 -13 28 -13 62 -2 75 24 7 14 13
53 13 88 l0 62 -39 0 c-23 0 -46 -7 -55 -16z"/>
</g>
</svg>
