<?xml version="1.0" standalone="no"?>
<!DOCTYPE svg PUBLIC "-//W3C//DTD SVG 20010904//EN"
 "http://www.w3.org/TR/2001/REC-SVG-20010904/DTD/svg10.dtd">
<svg version="1.0" xmlns="http://www.w3.org/2000/svg"
 width="1700.000000pt" height="2200.000000pt" viewBox="0 0 1700.000000 2200.000000"
 preserveAspectRatio="xMidYMid meet">
<metadata>
Created by potrace 1.16, written by Peter Selinger 2001-2019
</metadata>
<g transform="translate(0.000000,2200.000000) scale(0.100000,-0.100000)"
fill="#000000" stroke="none">
<path d="M2259 20853 c-49 -126 -109 -287 -109 -294 0 -5 8 -9 18 -9 12 0 23
14 33 43 l16 42 73 0 73 0 15 -42 c10 -31 19 -43 33 -43 10 0 19 4 19 9 0 4
-26 77 -58 162 -49 128 -63 155 -80 157 -16 3 -25 -4 -33 -25z"/>
<path d="M2900 20808 l0 -71 -21 19 c-13 11 -35 19 -59 19 -72 0 -126 -81
-101 -148 28 -72 111 -97 164 -50 16 15 17 14 17 -5 0 -15 6 -22 20 -22 19 0
20 7 20 165 0 158 -1 165 -20 165 -18 0 -20 -7 -20 -72z m-22 -88 c29 -27 29
-83 2 -110 -12 -12 -33 -20 -55 -20 -46 0 -75 29 -75 75 0 43 32 75 75 75 18
0 41 -9 53 -20z"/>
<path d="M3672 20811 l3 -68 -37 19 c-47 25 -85 18 -124 -23 -64 -67 -16 -184
75 -184 25 0 47 8 60 19 21 19 21 19 21 -2 0 -15 6 -22 20 -22 19 0 20 7 20
165 0 161 -1 165 -21 165 -19 0 -20 -5 -17 -69z m-24 -91 c48 -45 14 -130 -50
-130 -67 0 -104 84 -58 130 26 26 80 26 108 0z"/>
<path d="M3982 20870 c-46 -11 -100 -66 -113 -113 -31 -117 73 -224 196 -201
44 8 94 49 79 64 -9 8 -20 6 -45 -9 -91 -56 -199 1 -199 104 0 99 100 156 191
110 16 -9 34 -13 39 -10 45 28 -76 73 -148 55z"/>
<path d="M4632 20811 l3 -68 -37 19 c-47 25 -85 18 -124 -23 -64 -67 -16 -184
75 -184 25 0 47 8 60 19 21 19 21 19 21 -2 0 -15 6 -22 20 -22 19 0 20 7 20
165 0 161 -1 165 -21 165 -19 0 -20 -5 -17 -69z m-24 -91 c48 -45 14 -130 -50
-130 -67 0 -104 84 -58 130 26 26 80 26 108 0z"/>
<path d="M5111 20863 c-43 -22 -58 -61 -39 -100 9 -20 31 -35 74 -53 79 -33
84 -37 84 -65 0 -57 -80 -76 -127 -29 -32 32 -63 26 -41 -9 34 -51 115 -68
169 -34 29 18 43 71 27 104 -14 29 -32 41 -110 73 -39 16 -48 24 -48 44 0 42
65 62 106 31 10 -8 25 -15 32 -15 20 0 14 29 -11 45 -38 25 -79 27 -116 8z"/>
<path d="M6210 20715 c0 -158 1 -165 20 -165 18 0 20 7 20 78 0 87 14 112 61
112 41 0 49 -18 49 -107 0 -76 2 -83 20 -83 18 0 20 7 20 74 0 94 -13 131 -52
147 -27 11 -36 10 -67 -7 l-36 -20 3 68 c3 63 2 68 -17 68 -20 0 -21 -4 -21
-165z"/>
<path d="M1500 20860 c20 -8 17 -9 -17 -5 -27 3 -43 1 -43 -5 0 -6 -4 -9 -9
-6 -5 3 -15 -2 -22 -11 -12 -14 -12 -16 0 -8 10 5 12 4 7 -3 -4 -7 -13 -12
-19 -12 -18 0 -39 -37 -26 -45 5 -4 16 -1 24 5 11 9 15 9 15 1 0 -6 -7 -14
-15 -17 -11 -4 -13 -13 -9 -28 6 -18 5 -19 -9 -8 -9 8 -13 20 -10 28 3 8 1 14
-5 14 -23 0 -24 -92 -1 -115 7 -7 8 -3 4 10 -5 16 -5 17 3 5 8 -10 8 -18 0
-27 -7 -9 -7 -13 1 -13 6 0 11 -6 11 -14 0 -8 5 -18 12 -22 8 -5 9 -2 4 12
-12 30 -12 39 0 37 6 -1 9 19 6 56 -4 53 -2 59 27 88 35 35 38 43 17 43 -8 0
-18 4 -21 10 -3 6 1 7 9 4 9 -3 16 -1 16 5 0 16 52 3 69 -18 12 -14 12 -14 7
4 -5 16 -1 20 19 21 14 1 22 -2 19 -7 -3 -5 1 -9 9 -9 8 0 18 -7 21 -16 6 -15
4 -15 -20 1 -14 9 -29 14 -32 10 -4 -4 2 -11 12 -17 10 -6 27 -19 37 -29 11
-11 19 -16 19 -13 0 4 6 1 14 -5 8 -7 12 -22 9 -34 -2 -13 2 -8 11 11 8 18 13
39 10 47 -10 26 -90 73 -135 79 -35 4 -39 3 -19 -4z"/>
<path d="M13478 20830 c-52 -28 -81 -73 -86 -134 -5 -66 15 -115 64 -152 32
-25 46 -29 103 -29 53 0 72 5 99 23 72 52 92 151 46 230 -44 75 -146 104 -226
62z m159 -31 c61 -38 80 -114 46 -186 -44 -93 -189 -99 -243 -10 -40 65 -15
167 48 202 40 21 109 19 149 -6z"/>
<path d="M12813 20828 c-47 -12 -73 -51 -73 -107 0 -39 5 -52 28 -73 66 -63
157 -38 181 49 23 83 -51 154 -136 131z m96 -52 c6 -7 14 -27 17 -44 5 -26 1
-36 -24 -62 -34 -33 -66 -38 -100 -14 -76 53 -18 172 69 142 15 -5 33 -15 38
-22z"/>
<path d="M9530 20770 c0 -38 -1 -39 -25 -28 -19 9 -29 8 -50 -6 -21 -14 -25
-24 -25 -66 0 -42 4 -52 25 -66 21 -14 31 -15 50 -6 15 7 25 8 25 2 0 -6 5
-10 10 -10 6 0 10 43 10 110 0 67 -4 110 -10 110 -5 0 -10 -18 -10 -40z"/>
<path d="M2480 20665 c0 -108 1 -115 20 -115 18 0 20 7 20 78 0 87 14 112 61
112 41 0 49 -18 49 -107 0 -76 2 -83 20 -83 18 0 20 7 20 74 0 89 -13 130 -47
145 -27 13 -93 -1 -93 -20 0 -5 -4 -9 -10 -9 -5 0 -10 9 -10 20 0 11 -7 20
-15 20 -12 0 -15 -19 -15 -115z"/>
<path d="M3194 20765 c-66 -34 -79 -125 -25 -179 26 -26 39 -31 77 -30 37 1
51 7 77 33 27 26 32 38 31 77 -1 36 -7 51 -30 74 -36 36 -88 46 -130 25z m104
-45 c50 -47 14 -130 -55 -130 -44 0 -73 30 -73 75 0 68 78 101 128 55z"/>
<path d="M4265 20773 c-32 -8 -73 -53 -79 -87 -21 -109 109 -176 187 -97 27
26 32 38 31 77 -1 36 -7 52 -30 75 -29 29 -72 42 -109 32z m83 -53 c29 -27 29
-83 2 -110 -12 -12 -33 -20 -55 -20 -22 0 -43 8 -55 20 -12 12 -20 33 -20 55
0 68 78 101 128 55z"/>
<path d="M4790 20773 c-62 -20 -96 -71 -86 -127 14 -73 107 -115 175 -79 19
10 36 23 38 29 6 18 -31 23 -52 8 -27 -20 -89 -18 -108 4 -33 36 -22 42 78 42
55 0 95 4 95 10 0 5 -7 28 -16 50 -21 51 -76 79 -124 63z"/>
<path d="M5378 20764 c-73 -31 -88 -127 -27 -178 42 -36 89 -42 136 -20 20 11
38 24 40 30 6 18 -31 23 -52 8 -27 -20 -89 -18 -108 4 -33 36 -22 42 78 42 55
0 95 4 95 10 0 5 -7 28 -17 51 -11 30 -25 45 -49 55 -41 17 -49 17 -96 -2z"/>
<path d="M5613 20765 c-49 -21 -41 -35 15 -28 54 6 92 -8 92 -34 0 -12 -7 -14
-31 -9 -49 9 -104 -9 -118 -41 -34 -74 66 -132 132 -75 15 14 17 13 17 -6 0
-15 6 -22 20 -22 18 0 20 7 20 64 0 35 -3 78 -6 95 -11 55 -82 83 -141 56z"/>
<path d="M6030 20769 c-57 -24 -85 -70 -74 -125 14 -73 93 -111 162 -77 39 19
56 53 27 53 -9 0 -23 -7 -31 -15 -9 -8 -31 -15 -50 -15 -45 0 -74 29 -74 75 0
46 29 75 74 75 19 0 41 -7 50 -15 18 -19 46 -20 46 -1 0 34 -86 63 -130 45z"/>
<path d="M8805 20738 c-29 -16 -35 -28 -35 -70 0 -28 6 -42 26 -57 33 -26 45
-26 78 0 35 28 36 80 1 114 -27 28 -40 30 -70 13z"/>
<path d="M9295 20738 c-29 -16 -35 -28 -35 -70 0 -28 6 -42 26 -57 33 -26 45
-26 78 0 35 28 36 80 1 114 -27 28 -40 30 -70 13z"/>
<path d="M9844 20725 c-34 -34 -30 -90 7 -118 70 -52 138 55 74 118 -31 32
-50 31 -81 0z"/>
<path d="M7640 19967 c0 -32 -2 -33 -30 -29 -42 6 -60 -13 -60 -63 0 -52 21
-74 73 -72 l37 1 0 98 c0 59 -4 98 -10 98 -5 0 -10 -15 -10 -33z"/>
<path d="M8460 19967 c0 -32 -2 -33 -32 -29 -39 6 -58 -17 -58 -69 0 -45 20
-63 71 -64 l39 -1 0 98 c0 59 -4 98 -10 98 -5 0 -10 -15 -10 -33z"/>
<path d="M10910 19967 c0 -32 -2 -33 -30 -29 -42 6 -60 -13 -60 -63 0 -52 21
-74 73 -72 l37 1 0 98 c0 59 -4 98 -10 98 -5 0 -10 -15 -10 -33z"/>
<path d="M11380 19967 c0 -32 -2 -33 -30 -29 -42 6 -60 -13 -60 -63 0 -53 22
-75 73 -72 l37 2 0 98 c0 58 -4 97 -10 97 -5 0 -10 -15 -10 -33z"/>
<path d="M11650 19967 c0 -32 -2 -33 -30 -29 -42 6 -60 -13 -60 -63 0 -53 22
-75 73 -72 l37 2 0 98 c0 58 -4 97 -10 97 -5 0 -10 -15 -10 -33z"/>
<path d="M8822 19928 c-6 -6 -12 -31 -12 -55 0 -34 5 -46 25 -59 14 -9 32 -13
45 -9 16 5 20 2 20 -14 0 -25 -43 -39 -65 -21 -10 8 -15 9 -15 2 0 -23 39 -34
68 -20 26 13 27 17 30 98 l3 85 -43 3 c-25 1 -49 -3 -56 -10z"/>
<path d="M12002 19928 c-7 -7 -12 -31 -12 -53 0 -52 26 -81 65 -71 20 5 25 3
25 -14 0 -24 -43 -38 -65 -20 -12 10 -15 10 -15 -3 0 -21 50 -29 78 -11 20 13
22 22 22 98 l0 83 -43 1 c-24 1 -48 -3 -55 -10z"/>
<path d="M5238 19853 c-6 -13 -2 -98 5 -110 4 -6 26 -10 50 -8 34 2 43 7 45
24 4 25 32 28 33 4 1 -28 7 -127 8 -135 1 -5 15 -8 31 -8 24 0 30 -4 30 -21 0
-18 5 -20 52 -17 l52 3 0 55 -1 55 -52 3 c-45 3 -51 1 -51 -16 0 -26 -27 -36
-34 -14 -3 9 -4 35 -1 57 2 22 4 43 4 48 2 16 31 5 31 -12 0 -15 9 -20 46 -23
52 -4 53 -2 57 67 l2 50 -52 3 c-51 3 -53 2 -53 -22 0 -24 -3 -26 -50 -26 -47
0 -50 2 -50 25 0 23 -3 25 -49 25 -28 0 -51 -3 -53 -7z"/>
<path d="M14540 19780 c0 -27 -3 -30 -24 -24 -52 13 -83 -18 -77 -76 4 -35 27
-50 78 -48 l43 2 0 88 c0 52 -4 88 -10 88 -5 0 -10 -14 -10 -30z"/>
<path d="M15260 19780 c0 -28 -2 -29 -30 -23 -41 8 -70 -19 -70 -63 0 -46 22
-64 76 -62 l44 1 0 89 c0 52 -4 88 -10 88 -5 0 -10 -13 -10 -30z"/>
<path d="M1320 19670 c0 -82 3 -100 15 -100 11 0 14 9 11 33 l-5 33 47 0 c41
-1 48 2 60 27 25 51 -5 107 -57 107 -15 0 -32 -5 -39 -12 -9 -9 -12 -9 -12 0
0 7 -4 12 -10 12 -6 0 -10 -40 -10 -100z"/>
<path d="M1900 19750 c-24 -24 -26 -67 -4 -98 20 -29 76 -30 104 -2 43 43 11
120 -50 120 -17 0 -39 -9 -50 -20z"/>
<path d="M2740 19669 c0 -76 3 -100 13 -96 7 2 11 18 10 35 -1 29 1 31 23 26
64 -16 105 28 84 92 -6 18 -18 35 -26 38 -25 10 -59 7 -72 -6 -9 -9 -12 -9
-12 0 0 7 -4 12 -10 12 -6 0 -10 -40 -10 -101z"/>
<path d="M3168 19750 c-10 -40 -2 -174 10 -177 8 -3 12 6 12 29 0 33 1 33 39
30 31 -3 42 0 55 19 22 32 20 75 -4 99 -25 25 -107 25 -112 0z"/>
<path d="M3440 19750 c-42 -42 -14 -120 44 -120 42 0 64 17 72 55 13 66 -69
112 -116 65z"/>
<path d="M7750 19637 c0 -32 -2 -33 -32 -29 -39 6 -58 -17 -58 -68 0 -48 24
-70 73 -67 l37 2 0 98 c0 58 -4 97 -10 97 -5 0 -10 -15 -10 -33z"/>
<path d="M8600 19637 c0 -32 -2 -33 -30 -29 -42 6 -60 -13 -60 -63 0 -53 22
-75 73 -72 l37 2 0 98 c0 58 -4 97 -10 97 -5 0 -10 -15 -10 -33z"/>
<path d="M10430 19641 c-5 -11 -10 -45 -10 -75 0 -69 25 -102 68 -91 15 4 30
12 34 18 15 24 12 135 -4 155 -17 20 -76 15 -88 -7z"/>
<path d="M2453 18925 c-39 -17 -53 -42 -53 -93 0 -33 6 -45 31 -66 19 -17 43
-26 64 -26 21 0 45 9 64 26 25 21 31 33 31 66 0 52 -14 77 -55 94 -41 17 -42
17 -82 -1z m77 -25 c50 -27 49 -100 -1 -125 -38 -20 -76 -10 -95 26 -34 67 31
134 96 99z"/>
<path d="M6712 18929 c-12 -5 -27 -21 -33 -36 -14 -37 -6 -109 16 -133 25 -27
70 -26 89 2 16 22 21 93 10 135 -7 26 -51 43 -82 32z"/>
<path d="M14580 18800 l0 -140 185 0 185 0 0 140 0 140 -185 0 -185 0 0 -140z
m328 53 l3 -53 -105 0 -106 0 0 48 c0 27 3 52 7 56 4 4 50 5 103 4 l95 -3 3
-52z"/>
<path d="M9270 18888 c0 -33 -3 -39 -12 -30 -21 21 -65 14 -87 -14 -24 -30
-26 -55 -10 -87 17 -32 28 -36 86 -35 l53 2 0 103 c0 85 -3 103 -15 103 -11 0
-15 -11 -15 -42z"/>
<path d="M13320 18825 l0 -105 55 0 c81 0 120 46 78 92 -13 14 -14 21 -5 30
19 19 14 56 -10 72 -13 9 -43 16 -70 16 l-48 0 0 -105z"/>
<path d="M6053 18880 c-44 -18 -57 -86 -23 -120 42 -42 107 -16 112 45 2 31
-16 75 -32 75 -4 0 -14 2 -22 4 -7 3 -23 1 -35 -4z"/>
<path d="M6276 18881 c-1 -3 -3 -36 -4 -73 -2 -62 -1 -68 17 -68 17 0 20 8 23
58 3 49 6 57 23 57 17 0 20 -8 23 -57 2 -42 7 -58 17 -58 10 0 15 15 17 51 2
37 8 55 21 63 24 15 37 -7 37 -66 0 -36 4 -48 15 -48 25 0 21 104 -6 131 -13
13 -26 18 -37 13 -19 -8 -28 -8 -95 -1 -26 2 -49 2 -51 -2z"/>
<path d="M12007 18794 c30 -89 48 -94 73 -20 18 54 22 53 39 -11 9 -31 17 -43
30 -43 14 0 23 15 36 62 9 34 19 68 22 75 3 7 -2 13 -10 13 -9 0 -20 -16 -27
-37 -6 -21 -14 -45 -17 -53 -3 -9 -12 5 -23 35 -22 66 -43 70 -60 10 -7 -25
-16 -48 -20 -50 -5 -3 -13 18 -20 45 -9 37 -17 50 -30 50 -17 0 -17 -5 7 -76z"/>
<path d="M13740 18795 c0 -59 3 -75 14 -75 11 0 16 15 18 51 3 55 21 78 52 66
12 -5 16 -20 16 -62 0 -42 3 -55 15 -55 11 0 15 12 15 44 0 60 8 76 36 76 26
0 27 -4 24 -77 -1 -37 1 -43 19 -43 18 0 21 6 21 48 0 63 -18 96 -53 100 -16
2 -34 -2 -42 -8 -9 -7 -15 -8 -20 0 -9 14 -58 13 -73 -2 -9 -9 -12 -9 -12 0 0
7 -7 12 -15 12 -12 0 -15 -15 -15 -75z"/>
<path d="M1235 18463 c-26 -7 -55 -33 -55 -50 0 -10 47 -13 250 -13 266 0 277
2 229 46 -19 17 -40 19 -213 21 -105 1 -200 -1 -211 -4z"/>
<path d="M1330 18065 c0 -78 3 -95 15 -95 11 0 15 11 15 41 0 36 2 40 22 37
14 -2 30 -17 42 -40 11 -21 26 -38 33 -38 10 0 8 10 -7 40 -19 37 -19 42 -5
56 17 18 19 47 5 75 -9 15 -22 19 -65 19 l-55 0 0 -95z"/>
<path d="M1640 18008 c0 -59 4 -98 10 -98 11 0 13 11 12 47 -1 19 3 21 32 16
27 -4 36 -1 50 18 18 27 21 71 6 100 -9 16 -20 19 -60 18 l-50 -2 0 -99z"/>
<path d="M11050 17981 c0 -28 -2 -29 -35 -24 -21 3 -41 1 -50 -7 -20 -17 -20
-94 1 -114 18 -19 55 -21 72 -4 9 9 12 9 12 0 0 -7 5 -12 10 -12 6 0 10 38 10
95 0 57 -4 95 -10 95 -5 0 -10 -13 -10 -29z"/>
<path d="M11700 17981 c0 -28 -2 -29 -35 -24 -47 8 -65 -9 -65 -63 0 -63 33
-89 81 -64 13 7 19 7 19 0 0 -5 5 -10 10 -10 6 0 10 38 10 95 0 57 -4 95 -10
95 -5 0 -10 -13 -10 -29z"/>
<path d="M9347 17972 c-25 -27 -23 -106 3 -132 26 -26 62 -25 86 1 23 25 26
107 5 132 -18 23 -74 22 -94 -1z"/>
<path d="M9506 17974 c-24 -23 -21 -109 4 -134 26 -26 62 -25 86 1 23 25 26
107 5 132 -17 21 -75 22 -95 1z"/>
<path d="M11946 17974 c-16 -16 -19 -34 -16 -89 1 -35 32 -65 65 -65 53 0 85
97 49 148 -18 26 -74 30 -98 6z"/>
<path d="M7082 17957 c-43 -19 -44 -102 -1 -126 39 -22 75 -8 89 34 21 64 -30
118 -88 92z"/>
<path d="M7219 17943 c0 -7 0 -42 0 -78 0 -101 0 -105 11 -105 6 0 10 18 10
40 0 37 1 39 19 28 48 -30 93 35 70 102 -10 29 -14 30 -60 29 -33 -2 -49 -7
-50 -16z"/>
<path d="M7870 17941 c-15 -29 -12 -87 6 -105 18 -19 38 -20 65 -6 16 9 19 7
19 -8 0 -10 -5 -23 -12 -30 -15 -15 -48 -16 -48 -2 0 6 -7 10 -15 10 -21 0
-19 -17 4 -30 62 -33 91 1 91 106 l0 80 -50 2 c-40 2 -51 -2 -60 -17z"/>
<path d="M11296 17944 c-27 -26 -18 -95 15 -113 39 -22 75 -8 89 34 17 52 -3
89 -51 93 -24 2 -42 -3 -53 -14z"/>
<path d="M12098 17881 c-2 -42 -2 -86 0 -98 6 -39 22 -25 22 17 0 37 1 39 19
28 48 -30 93 35 70 102 -10 29 -14 30 -59 29 l-49 -2 -3 -76z"/>
<path d="M12917 17948 c-29 -22 -20 -98 14 -117 39 -22 75 -8 89 34 17 51 -3
89 -50 93 -19 2 -43 -3 -53 -10z"/>
<path d="M14215 17944 c-26 -26 -16 -95 16 -113 41 -23 76 -8 90 39 10 33 9
43 -5 65 -20 30 -75 35 -101 9z"/>
<path d="M8130 17291 c0 -28 -2 -29 -35 -24 -21 3 -41 1 -50 -7 -20 -17 -20
-94 1 -114 18 -19 55 -21 72 -4 9 9 12 9 12 0 0 -7 5 -12 10 -12 6 0 10 38 10
95 0 57 -4 95 -10 95 -5 0 -10 -13 -10 -29z"/>
<path d="M8780 17291 c0 -28 -2 -29 -35 -24 -21 3 -41 1 -50 -7 -20 -17 -20
-94 1 -114 18 -19 55 -21 72 -4 9 9 12 9 12 0 0 -7 5 -12 10 -12 6 0 10 38 10
95 0 57 -4 95 -10 95 -5 0 -10 -13 -10 -29z"/>
<path d="M14216 17284 c-24 -23 -21 -109 4 -134 26 -26 62 -26 85 0 23 25 26
109 6 133 -17 21 -75 22 -95 1z"/>
<path d="M13432 17272 c-29 -5 -44 -34 -40 -80 6 -72 95 -85 118 -17 20 60
-18 107 -78 97z"/>
<path d="M10149 17246 c-1 -45 -1 -132 0 -153 2 -41 21 -24 21 18 0 35 2 40
14 29 45 -37 103 38 74 97 -12 25 -19 28 -61 29 -42 2 -47 -1 -48 -20z"/>
<path d="M2649 17207 c-13 -7 -28 -27 -33 -45 -7 -27 -6 -38 11 -60 41 -55
113 -32 113 37 0 56 -46 90 -91 68z"/>
<path d="M8387 16938 c-47 -16 -52 -101 -6 -127 39 -22 75 -8 89 34 21 63 -23
113 -83 93z"/>
<path d="M7065 16924 c-26 -26 -16 -95 16 -113 41 -23 76 -8 90 39 10 33 9 43
-5 65 -20 30 -75 35 -101 9z"/>
<path d="M12916 16924 c-27 -26 -18 -95 15 -113 39 -22 75 -8 89 34 17 52 -3
89 -51 93 -24 2 -42 -3 -53 -14z"/>
<path d="M13238 16896 c-5 -64 3 -156 13 -156 5 0 9 19 9 41 0 36 2 40 15 29
44 -37 101 39 73 97 -12 24 -19 28 -60 29 l-47 2 -3 -42z"/>
<path d="M3170 16697 c0 -32 -2 -33 -30 -29 -42 6 -60 -12 -60 -64 0 -56 20
-75 72 -72 l40 3 0 75 c0 111 -1 120 -12 120 -5 0 -10 -15 -10 -33z"/>
<path d="M3650 16697 c0 -32 -2 -33 -30 -29 -42 6 -60 -12 -60 -64 0 -56 20
-75 72 -72 l40 3 0 75 c0 111 -1 120 -12 120 -5 0 -10 -15 -10 -33z"/>
<path d="M3363 16669 c-45 -16 -55 -71 -22 -113 39 -50 109 -23 109 43 0 53
-42 87 -87 70z"/>
<path d="M8359 16623 c-2 -72 1 -146 7 -152 3 -3 9 1 13 8 6 9 11 10 15 2 10
-15 51 -14 63 2 20 25 24 81 7 106 -13 18 -24 22 -50 19 -31 -4 -34 -2 -34 24
0 42 -20 34 -21 -9z"/>
<path d="M8233 16608 c-35 -9 -47 -34 -41 -84 7 -64 97 -72 118 -10 21 64 -17
111 -77 94z"/>
<path d="M7066 16594 c-27 -26 -18 -95 15 -113 39 -22 75 -8 89 34 17 52 -3
89 -51 93 -24 2 -42 -3 -53 -14z"/>
<path d="M9825 16594 c-26 -26 -16 -95 16 -113 41 -23 76 -8 90 39 10 33 9 43
-5 65 -20 30 -75 35 -101 9z"/>
<path d="M9988 16546 c-4 -80 1 -136 13 -136 5 0 9 19 9 42 0 33 3 39 12 30
17 -17 53 -15 68 3 17 21 18 89 1 109 -9 11 -27 16 -56 14 l-43 -1 -4 -61z"/>
<path d="M10476 16594 c-12 -11 -16 -29 -14 -57 2 -33 9 -45 30 -56 60 -34
118 30 87 95 -11 23 -22 30 -50 32 -24 2 -42 -3 -53 -14z"/>
<path d="M3190 16155 c0 -32 -1 -34 -24 -25 -40 15 -71 -17 -69 -71 2 -52 21
-69 75 -67 36 1 38 3 39 37 2 42 1 118 0 144 -2 33 -21 17 -21 -18z"/>
<path d="M3551 16122 c-19 -17 -24 -35 -22 -79 2 -33 30 -55 63 -51 21 4 28 1
26 -10 -5 -26 -35 -38 -58 -24 -16 10 -20 10 -20 -2 0 -8 7 -17 16 -20 54 -21
86 12 86 86 -1 104 -2 110 -14 105 -7 -2 -23 0 -35 4 -15 6 -28 3 -42 -9z"/>
<path d="M6046 15935 c-15 -15 -13 -37 6 -61 5 -7 3 -14 -7 -18 -8 -3 -15 -16
-15 -29 0 -32 49 -55 88 -41 32 11 42 52 18 70 -14 10 -15 13 -1 24 18 15 19
42 3 58 -17 17 -74 15 -92 -3z"/>
<path d="M14376 15934 c-21 -20 -21 -102 0 -132 19 -28 65 -29 89 -2 23 25 26
109 6 133 -17 21 -75 22 -95 1z"/>
<path d="M8245 15920 c-11 -4 -25 -5 -32 -3 -14 6 -19 -37 -15 -129 4 -74 22
-95 22 -26 0 33 3 39 12 30 16 -16 53 -15 65 1 44 54 5 148 -52 127z"/>
<path d="M9705 15920 c-11 -4 -26 -5 -32 -3 -10 4 -13 -19 -13 -96 0 -61 4
-101 10 -101 6 0 10 18 10 40 0 37 1 39 19 28 29 -18 67 3 74 41 12 58 -25
107 -68 91z"/>
<path d="M10645 15904 c-26 -26 -16 -95 16 -113 41 -23 76 -8 90 39 10 33 9
43 -5 65 -20 30 -75 35 -101 9z"/>
<path d="M3500 15607 c0 -31 -2 -33 -33 -29 -38 4 -54 -10 -60 -53 -4 -31 7
-64 27 -77 6 -4 27 -7 48 -6 36 1 36 1 40 50 4 68 -2 148 -13 148 -5 0 -9 -15
-9 -33z"/>
<path d="M9260 15271 c0 -28 -2 -29 -35 -24 -47 8 -65 -9 -65 -62 0 -61 52
-99 88 -63 9 9 12 9 12 0 0 -7 5 -12 10 -12 6 0 10 38 10 95 0 57 -4 95 -10
95 -5 0 -10 -13 -10 -29z"/>
<path d="M9500 15205 c0 -57 4 -95 10 -95 6 0 10 5 10 12 0 9 3 9 12 0 16 -16
53 -15 67 2 17 20 18 91 1 111 -9 11 -24 15 -47 13 -30 -4 -33 -2 -33 24 0 15
-4 28 -10 28 -6 0 -10 -38 -10 -95z"/>
<path d="M11119 15283 c-2 -54 2 -167 6 -172 4 -3 10 1 14 8 6 9 11 10 15 2
10 -15 51 -14 63 2 18 22 23 64 12 95 -12 34 -32 43 -66 30 -21 -7 -23 -4 -23
22 0 31 -19 43 -21 13z"/>
<path d="M13810 15269 c0 -26 -3 -30 -17 -24 -25 11 -52 8 -69 -6 -19 -16 -18
-93 2 -113 18 -19 55 -21 72 -4 9 9 12 9 12 0 0 -7 5 -12 10 -12 6 0 10 38 10
95 0 57 -4 95 -10 95 -5 0 -10 -14 -10 -31z"/>
<path d="M6046 15258 c-36 -51 -7 -148 43 -148 45 0 67 42 62 117 -3 52 -76
73 -105 31z"/>
<path d="M8379 15247 c-25 -13 -36 -57 -25 -103 7 -28 45 -40 75 -24 20 10 21
8 21 -30 0 -22 5 -40 10 -40 6 0 10 40 10 101 0 88 -2 100 -16 95 -8 -3 -23
-2 -33 3 -11 6 -26 6 -42 -2z"/>
<path d="M14226 15243 c-24 -13 -27 -19 -24 -61 2 -38 8 -49 29 -61 39 -22 75
-8 89 34 22 68 -33 120 -94 88z"/>
<path d="M10149 15241 c-1 -6 0 -153 1 -178 0 -7 5 -13 10 -13 6 0 10 19 10
42 0 33 3 39 12 30 17 -17 53 -15 68 3 17 21 18 89 1 109 -9 11 -27 16 -57 14
-24 0 -44 -4 -45 -7z"/>
<path d="M10308 15206 c-5 -64 3 -156 13 -156 5 0 9 19 9 41 0 35 2 40 14 29
45 -37 103 38 74 97 -12 24 -19 28 -60 29 l-47 2 -3 -42z"/>
<path d="M12426 15234 c-27 -26 -18 -95 15 -113 39 -22 75 -8 89 34 17 52 -3
89 -51 93 -24 2 -42 -3 -53 -14z"/>
<path d="M4110 15067 c0 -32 -2 -33 -30 -29 -17 2 -36 -1 -44 -7 -31 -26 -23
-115 12 -125 29 -9 82 -4 83 8 1 22 1 92 0 139 -1 53 -21 66 -21 14z"/>
<path d="M6990 14919 c0 -26 -3 -30 -17 -24 -25 11 -52 8 -69 -6 -19 -16 -18
-93 2 -113 18 -19 55 -21 72 -4 9 9 12 9 12 0 0 -7 5 -12 10 -12 6 0 10 38 10
95 0 57 -4 95 -10 95 -5 0 -10 -14 -10 -31z"/>
<path d="M7869 14928 c-2 -52 2 -163 7 -167 3 -3 9 1 13 8 6 9 11 10 15 2 10
-16 51 -13 66 4 17 21 18 89 0 110 -9 11 -24 16 -47 13 -30 -4 -33 -2 -33 24
0 33 -20 38 -21 6z"/>
<path d="M8610 14922 c0 -26 -2 -28 -35 -24 -19 2 -42 -1 -50 -8 -20 -17 -20
-94 1 -114 18 -19 55 -21 72 -4 9 9 12 9 12 0 0 -7 5 -12 10 -12 6 0 10 38 10
95 0 57 -4 95 -10 95 -5 0 -10 -13 -10 -28z"/>
<path d="M9260 14921 c0 -28 -2 -29 -35 -24 -47 8 -65 -9 -65 -62 0 -61 52
-99 88 -63 9 9 12 9 12 0 0 -7 5 -12 10 -12 6 0 10 38 10 95 0 57 -4 95 -10
95 -5 0 -10 -13 -10 -29z"/>
<path d="M12350 14919 c0 -26 -3 -30 -17 -24 -25 11 -52 8 -69 -6 -19 -16 -18
-93 2 -113 18 -19 55 -21 72 -4 9 9 12 9 12 0 0 -7 5 -12 10 -12 6 0 10 38 10
95 0 57 -4 95 -10 95 -5 0 -10 -14 -10 -31z"/>
<path d="M13239 14898 c-1 -73 2 -132 7 -138 3 -2 9 2 13 9 6 9 11 10 15 2 10
-16 51 -13 66 4 7 8 13 34 14 56 1 52 -31 84 -70 69 -22 -9 -24 -7 -24 20 0
53 -20 32 -21 -22z"/>
<path d="M13980 14921 c0 -28 -2 -29 -35 -24 -21 3 -41 1 -50 -7 -20 -17 -20
-94 1 -114 18 -19 55 -21 72 -4 9 9 12 9 12 0 0 -7 5 -12 10 -12 6 0 10 38 10
95 0 57 -4 95 -10 95 -5 0 -10 -13 -10 -29z"/>
<path d="M14216 14887 c-28 -21 -19 -97 15 -116 41 -23 76 -8 90 39 10 33 9
43 -5 65 -19 28 -69 35 -100 12z"/>
<path d="M12282 14587 c-26 -12 -35 -38 -34 -92 4 -106 132 -97 132 10 0 68
-44 106 -98 82z"/>
<path d="M7563 14582 c-20 -13 -32 -59 -26 -97 10 -64 75 -86 112 -39 25 32
28 90 5 122 -15 22 -66 30 -91 14z"/>
<path d="M8510 14505 c0 -69 3 -85 15 -85 11 0 15 11 15 40 0 27 4 40 14 40 7
0 25 -18 40 -40 14 -22 31 -40 36 -40 15 0 12 9 -11 42 l-21 29 21 20 c46 43
20 79 -56 79 l-53 0 0 -85z"/>
<path d="M8680 14505 c0 -69 3 -85 15 -85 11 0 15 11 15 40 0 29 4 40 15 40 8
0 26 -18 40 -40 14 -22 30 -40 35 -40 15 0 12 9 -11 42 l-21 29 21 20 c46 43
20 79 -56 79 l-53 0 0 -85z"/>
<path d="M9994 14569 c-27 -30 -23 -107 6 -131 23 -19 57 -23 76 -10 35 23 45
102 18 140 -20 29 -74 30 -100 1z"/>
<path d="M10140 14505 c0 -69 3 -85 15 -85 11 0 15 11 15 40 0 27 4 40 14 40
7 0 25 -18 40 -40 14 -22 31 -40 36 -40 14 0 13 4 -10 43 l-20 34 20 18 c44
40 18 75 -57 75 l-53 0 0 -85z"/>
<path d="M10653 14582 c-36 -23 -37 -114 -1 -144 21 -19 55 -23 74 -10 35 23
45 102 18 140 -15 22 -66 30 -91 14z"/>
<path d="M10950 14505 l0 -85 40 0 c72 0 112 69 79 133 -17 31 -28 37 -76 37
l-43 0 0 -85z"/>
<path d="M11623 14582 c-39 -25 -34 -127 8 -151 53 -29 99 9 99 82 0 47 -24
77 -63 77 -18 0 -37 -4 -44 -8z"/>
<path d="M13880 14505 l0 -85 40 0 c72 0 112 69 79 133 -17 31 -28 37 -76 37
l-43 0 0 -85z"/>
<path d="M4160 14497 c-14 -7 -28 -26 -34 -45 -18 -65 57 -119 103 -73 31 31
28 84 -5 110 -31 24 -31 25 -64 8z"/>
<path d="M9687 14228 c-47 -16 -52 -101 -6 -127 39 -22 75 -8 89 34 21 63 -23
113 -83 93z"/>
<path d="M10958 14176 c-4 -74 2 -146 13 -146 5 0 9 19 9 42 0 33 3 39 12 30
17 -17 53 -15 68 3 17 21 18 89 1 109 -9 11 -27 16 -56 14 l-43 -1 -4 -51z"/>
<path d="M13896 14214 c-27 -26 -18 -95 15 -113 39 -22 75 -8 89 34 17 52 -3
89 -51 93 -24 2 -42 -3 -53 -14z"/>
<path d="M15348 14151 c-2 -42 -2 -86 0 -98 6 -39 22 -25 22 19 0 33 3 39 12
30 16 -16 53 -15 67 2 17 20 18 91 2 110 -9 11 -28 16 -57 14 l-43 -1 -3 -76z"/>
<path d="M4010 13920 l0 -141 108 3 107 3 2 95 2 95 -42 43 c-40 41 -42 42
-109 42 l-68 0 0 -140z"/>
<path d="M4566 13958 c-47 -66 23 -147 89 -104 31 21 35 84 7 109 -27 25 -78
22 -96 -5z"/>
<path d="M4802 13909 c-2 -63 -1 -69 18 -69 18 0 20 6 20 54 0 35 5 56 13 59
27 9 37 -6 37 -59 0 -41 4 -54 15 -54 11 0 15 12 15 49 0 49 18 79 40 66 5 -3
10 -31 10 -61 0 -47 2 -54 20 -54 17 0 20 7 20 51 0 83 -5 87 -113 87 l-93 0
-2 -69z"/>
<path d="M9260 13921 c0 -28 -2 -29 -35 -24 -21 3 -41 1 -50 -7 -20 -17 -20
-94 1 -114 18 -19 55 -21 72 -4 9 9 12 9 12 0 0 -7 5 -12 10 -12 6 0 10 38 10
95 0 57 -4 95 -10 95 -5 0 -10 -13 -10 -29z"/>
<path d="M8227 13898 c-47 -16 -52 -101 -6 -127 39 -22 75 -8 89 34 21 63 -23
113 -83 93z"/>
<path d="M4010 13425 l0 -135 105 0 105 0 0 98 0 98 -38 37 c-36 35 -41 37
-105 37 l-67 0 0 -135z"/>
<path d="M4590 13477 c-14 -7 -28 -26 -34 -45 -7 -27 -6 -38 11 -60 41 -55
113 -32 113 36 0 43 -7 55 -37 71 -26 13 -23 13 -53 -2z"/>
<path d="M4010 12925 l0 -135 105 0 105 0 0 98 0 98 -38 37 c-36 35 -41 37
-105 37 l-67 0 0 -135z"/>
<path d="M8780 12905 c0 -38 -2 -40 -31 -24 -16 8 -26 7 -45 -6 -19 -12 -24
-24 -24 -60 0 -26 6 -50 16 -59 18 -19 55 -21 72 -4 9 9 12 9 12 0 0 -7 5 -12
10 -12 6 0 10 40 10 100 0 60 -4 100 -10 100 -5 0 -10 -16 -10 -35z"/>
<path d="M9430 12905 c0 -33 -1 -34 -26 -24 -44 16 -74 -11 -74 -66 0 -57 18
-75 75 -73 l45 2 0 98 c0 59 -4 98 -10 98 -5 0 -10 -16 -10 -35z"/>
<path d="M9750 12905 c0 -33 -1 -34 -26 -24 -44 16 -74 -11 -74 -66 0 -57 18
-75 75 -73 l45 2 0 98 c0 59 -4 98 -10 98 -5 0 -10 -16 -10 -35z"/>
<path d="M10890 12905 c0 -33 -1 -34 -26 -24 -44 16 -74 -11 -74 -66 0 -26 6
-50 16 -59 18 -19 55 -21 72 -4 9 9 12 9 12 0 0 -7 5 -12 10 -12 6 0 10 40 10
100 0 60 -4 100 -10 100 -5 0 -10 -16 -10 -35z"/>
<path d="M11860 12905 c0 -33 -1 -34 -26 -24 -44 16 -74 -11 -74 -66 0 -26 6
-50 16 -59 18 -19 55 -21 72 -4 9 9 12 9 12 0 0 -7 5 -12 10 -12 6 0 10 40 10
100 0 60 -4 100 -10 100 -5 0 -10 -16 -10 -35z"/>
<path d="M7890 12877 c-20 -10 -26 -21 -28 -56 -4 -51 17 -81 58 -81 38 0 60
20 66 62 5 30 2 41 -19 62 -29 29 -41 31 -77 13z"/>
<path d="M9035 12878 c-29 -16 -35 -28 -35 -69 0 -42 24 -69 61 -69 37 0 59
21 65 62 5 30 2 41 -19 62 -29 29 -42 31 -72 14z"/>
<path d="M10162 12875 c-17 -13 -22 -26 -22 -60 0 -26 6 -50 16 -59 18 -19 55
-21 72 -4 18 18 16 -13 -2 -37 -13 -17 -17 -18 -40 -6 -31 17 -49 5 -22 -15
27 -19 60 -18 79 4 13 14 17 38 17 100 0 44 -4 84 -10 87 -5 3 -10 1 -10 -5 0
-7 -7 -9 -15 -6 -8 3 -21 8 -28 11 -6 3 -22 -2 -35 -10z"/>
<path d="M11630 12877 c-20 -10 -26 -21 -28 -56 -4 -51 17 -81 58 -81 38 0 60
20 66 62 5 30 2 41 -19 62 -29 29 -41 31 -77 13z"/>
<path d="M12440 12877 c-20 -10 -26 -21 -28 -56 -4 -51 17 -81 58 -81 38 0 60
20 66 62 5 30 2 41 -19 62 -29 29 -41 31 -77 13z"/>
<path d="M6410 12778 c0 -59 4 -98 10 -98 6 0 10 19 10 42 0 33 3 39 12 30 17
-17 53 -15 68 3 17 21 18 89 1 109 -9 11 -27 16 -57 14 l-44 -1 0 -99z"/>
<path d="M6054 12562 c-19 -13 -23 -40 -9 -58 11 -15 10 -20 -3 -30 -10 -7
-13 -19 -8 -37 13 -52 116 -45 116 8 0 13 -7 28 -16 33 -14 8 -14 10 0 21 19
16 21 42 4 59 -13 13 -67 16 -84 4z"/>
<path d="M4010 12425 l0 -135 105 0 105 0 0 98 0 98 -38 37 c-36 35 -41 37
-105 37 l-67 0 0 -135z"/>
<path d="M4589 12477 c-13 -7 -28 -27 -33 -45 -18 -65 57 -119 103 -73 21 21
28 74 13 98 -14 22 -57 32 -83 20z"/>
<path d="M8610 12216 c0 -33 -2 -35 -23 -27 -16 6 -32 5 -48 -3 -19 -9 -25
-21 -27 -58 -2 -32 2 -50 13 -62 19 -19 56 -21 73 -4 9 9 12 9 12 0 0 -7 5
-12 10 -12 6 0 10 38 10 94 0 53 -4 98 -10 101 -6 4 -10 -8 -10 -29z"/>
<path d="M9268 12244 c-5 -4 -8 -20 -8 -35 0 -27 -2 -28 -26 -18 -44 16 -74
-11 -74 -66 0 -26 6 -50 16 -59 18 -18 60 -21 70 -5 4 8 9 7 15 -2 15 -25 20
-1 17 96 -2 53 -6 93 -10 89z"/>
<path d="M9590 12215 c0 -33 -1 -34 -26 -24 -44 16 -74 -11 -74 -66 0 -26 6
-50 16 -59 18 -19 55 -21 72 -4 9 9 12 9 12 0 0 -7 5 -12 10 -12 6 0 10 40 10
100 0 60 -4 100 -10 100 -5 0 -10 -16 -10 -35z"/>
<path d="M10730 12216 c0 -33 -1 -34 -29 -26 -45 13 -71 -11 -71 -65 0 -26 6
-50 16 -59 18 -19 55 -21 72 -4 9 9 12 9 12 0 0 -7 5 -12 10 -12 6 0 10 38 10
94 0 53 -4 98 -10 101 -6 4 -10 -8 -10 -29z"/>
<path d="M11700 12215 c0 -33 -1 -34 -26 -24 -44 16 -74 -11 -74 -66 0 -26 6
-50 16 -59 18 -19 55 -21 72 -4 9 9 12 9 12 0 0 -7 5 -12 10 -12 6 0 10 40 10
100 0 60 -4 100 -10 100 -5 0 -10 -16 -10 -35z"/>
<path d="M12095 12222 c-3 -3 -5 -43 -5 -89 l0 -83 40 0 c30 0 47 7 65 25 46
45 24 142 -32 146 -10 1 -28 3 -40 4 -12 1 -25 0 -28 -3z"/>
<path d="M7728 12184 c-24 -12 -28 -21 -28 -58 0 -49 22 -76 61 -76 37 0 59
21 65 62 5 30 2 41 -19 62 -30 30 -41 31 -79 10z"/>
<path d="M8870 12187 c-20 -10 -26 -21 -28 -56 -4 -51 17 -81 58 -81 38 0 60
20 66 60 10 60 -44 103 -96 77z"/>
<path d="M10001 12184 c-26 -19 -30 -94 -5 -118 18 -19 55 -21 72 -4 16 16 17
-5 2 -33 -11 -20 -50 -27 -50 -9 0 6 -7 10 -15 10 -21 0 -19 -17 4 -30 29 -15
56 -12 74 8 13 14 17 39 17 105 0 48 -4 87 -9 87 -5 0 -11 -5 -13 -11 -2 -7
-12 -7 -29 0 -20 7 -32 6 -48 -5z"/>
<path d="M11470 12187 c-20 -10 -26 -21 -28 -56 -4 -51 17 -81 58 -81 38 0 60
20 66 60 10 60 -44 103 -96 77z"/>
<path d="M6740 12089 c0 -59 4 -99 10 -99 6 0 10 18 10 40 0 37 1 39 19 28 48
-30 97 41 68 101 -10 22 -19 26 -60 27 l-47 2 0 -99z"/>
<path d="M6906 12175 c-25 -25 -21 -90 6 -109 63 -44 130 20 96 91 -10 22 -21
29 -49 31 -24 2 -42 -3 -53 -13z"/>
<path d="M4010 11925 l0 -135 105 0 105 0 0 98 0 98 -38 37 c-36 35 -41 37
-105 37 l-67 0 0 -135z"/>
<path d="M8610 11885 c0 -33 -1 -34 -26 -24 -44 16 -74 -11 -74 -66 0 -26 6
-50 16 -59 18 -19 55 -21 72 -4 9 9 12 9 12 0 0 -7 5 -12 10 -12 6 0 10 40 10
100 0 60 -4 100 -10 100 -5 0 -10 -16 -10 -35z"/>
<path d="M9260 11885 c0 -33 -1 -34 -26 -24 -44 16 -74 -11 -74 -66 0 -26 6
-50 16 -59 18 -19 55 -21 72 -4 9 9 12 9 12 0 0 -7 5 -12 10 -12 6 0 10 40 10
100 0 60 -4 100 -10 100 -5 0 -10 -16 -10 -35z"/>
<path d="M9590 11885 c0 -33 -1 -34 -26 -24 -44 16 -74 -11 -74 -66 0 -26 6
-50 16 -59 18 -19 55 -21 72 -4 9 9 12 9 12 0 0 -7 5 -12 10 -12 6 0 10 40 10
100 0 60 -4 100 -10 100 -5 0 -10 -16 -10 -35z"/>
<path d="M10730 11885 c0 -33 -1 -34 -26 -24 -44 16 -74 -11 -74 -66 0 -26 6
-50 16 -59 18 -19 55 -21 72 -4 9 9 12 9 12 0 0 -7 5 -12 10 -12 6 0 10 40 10
100 0 60 -4 100 -10 100 -5 0 -10 -16 -10 -35z"/>
<path d="M11700 11885 c0 -33 -1 -34 -26 -24 -44 16 -74 -11 -74 -66 0 -26 6
-50 16 -59 18 -19 55 -21 72 -4 9 9 12 9 12 0 0 -7 5 -12 10 -12 6 0 10 40 10
100 0 60 -4 100 -10 100 -5 0 -10 -16 -10 -35z"/>
<path d="M6046 11868 c-23 -33 -21 -103 4 -128 44 -44 101 -10 102 61 1 64
-15 89 -57 89 -24 0 -39 -7 -49 -22z"/>
<path d="M7728 11854 c-24 -12 -28 -21 -28 -58 0 -49 22 -76 61 -76 37 0 59
21 65 62 5 30 2 41 -19 62 -30 30 -41 31 -79 10z"/>
<path d="M8870 11857 c-20 -10 -26 -21 -28 -56 -4 -51 17 -81 58 -81 38 0 60
20 66 62 5 30 2 41 -19 62 -29 29 -41 31 -77 13z"/>
<path d="M10002 11855 c-17 -13 -22 -26 -22 -60 0 -26 6 -50 16 -59 18 -19 55
-21 72 -4 16 16 17 -5 2 -33 -11 -20 -50 -27 -50 -9 0 6 -7 10 -15 10 -21 0
-19 -17 4 -30 29 -15 56 -12 74 8 13 14 17 39 17 105 0 51 -4 87 -10 87 -5 0
-10 -5 -10 -11 0 -6 -7 -8 -15 -5 -8 3 -21 8 -28 11 -6 3 -22 -2 -35 -10z"/>
<path d="M11469 11856 c-19 -9 -25 -21 -27 -55 -4 -51 17 -81 58 -81 38 0 60
20 66 60 10 61 -43 103 -97 76z"/>
<path d="M12928 11854 c-24 -12 -28 -21 -28 -58 0 -49 22 -76 61 -76 37 0 59
21 65 62 5 30 2 41 -19 62 -30 30 -41 31 -79 10z"/>
<path d="M6738 11781 c-2 -42 -2 -86 0 -98 6 -39 22 -25 22 18 0 35 2 40 14
29 45 -37 103 38 74 97 -12 24 -19 28 -60 29 l-47 2 -3 -77z"/>
<path d="M6905 11844 c-26 -26 -16 -95 16 -113 41 -23 76 -8 90 39 10 33 9 43
-5 65 -20 30 -75 35 -101 9z"/>
<path d="M8610 11545 c0 -33 -1 -34 -26 -24 -44 16 -74 -11 -74 -66 0 -26 6
-50 16 -59 18 -19 55 -21 72 -4 9 9 12 9 12 0 0 -7 5 -12 10 -12 6 0 10 40 10
100 0 60 -4 100 -10 100 -5 0 -10 -16 -10 -35z"/>
<path d="M9260 11545 c0 -38 -2 -40 -31 -24 -16 8 -26 7 -45 -6 -19 -12 -24
-24 -24 -60 0 -26 6 -50 16 -59 18 -19 55 -21 72 -4 9 9 12 9 12 0 0 -7 5 -12
10 -12 6 0 10 40 10 100 0 60 -4 100 -10 100 -5 0 -10 -16 -10 -35z"/>
<path d="M9590 11545 c0 -33 -1 -34 -26 -24 -44 16 -74 -11 -74 -66 0 -57 18
-75 75 -73 l45 2 0 98 c0 59 -4 98 -10 98 -5 0 -10 -16 -10 -35z"/>
<path d="M10730 11545 c0 -33 -1 -34 -26 -24 -44 16 -74 -11 -74 -66 0 -26 6
-50 16 -59 18 -19 55 -21 72 -4 9 9 12 9 12 0 0 -7 5 -12 10 -12 6 0 10 40 10
100 0 60 -4 100 -10 100 -5 0 -10 -16 -10 -35z"/>
<path d="M11700 11545 c0 -33 -1 -34 -26 -24 -44 16 -74 -11 -74 -66 0 -26 6
-50 16 -59 18 -19 55 -21 72 -4 9 9 12 9 12 0 0 -7 5 -12 10 -12 6 0 10 40 10
100 0 60 -4 100 -10 100 -5 0 -10 -16 -10 -35z"/>
<path d="M4010 11425 l0 -135 105 0 105 0 0 98 0 98 -38 37 c-36 35 -41 37
-105 37 l-67 0 0 -135z"/>
<path d="M7730 11517 c-20 -10 -26 -21 -28 -56 -4 -51 17 -81 58 -81 38 0 60
20 66 62 5 30 2 41 -19 62 -29 29 -41 31 -77 13z"/>
<path d="M8875 11518 c-29 -16 -35 -28 -35 -69 0 -42 24 -69 61 -69 37 0 59
21 65 62 5 30 2 41 -19 62 -29 29 -42 31 -72 14z"/>
<path d="M10002 11515 c-17 -13 -22 -26 -22 -60 0 -26 6 -50 16 -59 18 -19 55
-21 72 -4 18 18 16 -13 -2 -37 -13 -17 -17 -18 -40 -6 -31 17 -49 5 -22 -15
27 -19 60 -18 79 4 13 14 17 38 17 100 0 44 -4 84 -10 87 -5 3 -10 1 -10 -5 0
-7 -7 -9 -15 -6 -8 3 -21 8 -28 11 -6 3 -22 -2 -35 -10z"/>
<path d="M11470 11517 c-20 -10 -26 -21 -28 -56 -4 -51 17 -81 58 -81 38 0 60
20 66 62 5 30 2 41 -19 62 -29 29 -41 31 -77 13z"/>
<path d="M12602 11515 c-17 -13 -22 -26 -22 -60 0 -26 6 -50 16 -59 18 -19 55
-21 72 -4 16 16 17 -5 2 -33 -11 -20 -50 -27 -50 -9 0 6 -7 10 -15 10 -21 0
-19 -17 4 -30 29 -15 56 -12 74 8 13 14 17 39 17 105 0 51 -4 87 -10 87 -5 0
-10 -5 -10 -11 0 -6 -7 -8 -15 -5 -8 3 -21 8 -28 11 -6 3 -22 -2 -35 -10z"/>
<path d="M6740 11418 c0 -59 4 -98 10 -98 6 0 10 19 10 42 0 33 3 39 12 30 16
-16 53 -15 67 2 17 20 18 91 2 110 -9 11 -28 16 -57 14 l-44 -1 0 -99z"/>
<path d="M6906 11504 c-27 -26 -18 -95 15 -113 39 -22 75 -8 89 34 17 52 -3
89 -51 93 -24 2 -42 -3 -53 -14z"/>
<path d="M4590 11477 c-14 -7 -28 -26 -34 -45 -7 -27 -6 -38 11 -60 41 -55
113 -32 113 36 0 43 -7 55 -37 71 -26 13 -23 13 -53 -2z"/>
<path d="M8610 11215 c0 -33 -1 -34 -26 -24 -44 16 -74 -11 -74 -66 0 -26 6
-50 16 -59 18 -19 55 -21 72 -4 9 9 12 9 12 0 0 -7 5 -12 10 -12 6 0 10 40 10
100 0 60 -4 100 -10 100 -5 0 -10 -16 -10 -35z"/>
<path d="M9260 11215 c0 -33 -1 -34 -26 -24 -44 16 -74 -11 -74 -66 0 -26 6
-50 16 -59 18 -19 55 -21 72 -4 9 9 12 9 12 0 0 -7 5 -12 10 -12 6 0 10 40 10
100 0 60 -4 100 -10 100 -5 0 -10 -16 -10 -35z"/>
<path d="M9590 11215 c0 -33 -1 -34 -26 -24 -44 16 -74 -11 -74 -66 0 -26 6
-50 16 -59 18 -19 55 -21 72 -4 9 9 12 9 12 0 0 -7 5 -12 10 -12 6 0 10 40 10
100 0 60 -4 100 -10 100 -5 0 -10 -16 -10 -35z"/>
<path d="M12840 11215 c0 -38 -2 -40 -31 -24 -16 8 -26 7 -45 -6 -19 -12 -24
-24 -24 -60 0 -26 6 -50 16 -59 18 -19 55 -21 72 -4 9 9 12 9 12 0 0 -7 5 -12
10 -12 6 0 10 40 10 100 0 60 -4 100 -10 100 -5 0 -10 -16 -10 -35z"/>
<path d="M12933 11217 c-27 -12 -41 -44 -38 -90 6 -107 135 -102 135 6 0 70
-44 108 -97 84z"/>
<path d="M7730 11187 c-20 -10 -26 -21 -28 -56 -4 -51 17 -81 58 -81 38 0 60
20 66 62 5 30 2 41 -19 62 -29 29 -41 31 -77 13z"/>
<path d="M8870 11187 c-20 -10 -26 -21 -28 -56 -4 -51 17 -81 58 -81 38 0 60
20 66 62 5 30 2 41 -19 62 -29 29 -41 31 -77 13z"/>
<path d="M10002 11185 c-17 -13 -22 -26 -22 -60 0 -26 6 -50 16 -59 18 -19 55
-21 72 -4 16 16 17 -5 2 -33 -11 -20 -50 -27 -50 -9 0 6 -7 10 -15 10 -21 0
-19 -17 4 -30 29 -15 56 -12 74 8 13 14 17 39 17 105 0 51 -4 87 -10 87 -5 0
-10 -5 -10 -11 0 -6 -7 -8 -15 -5 -8 3 -21 8 -28 11 -6 3 -22 -2 -35 -10z"/>
<path d="M11965 11188 c-29 -16 -35 -28 -35 -69 0 -42 24 -69 61 -69 37 0 59
21 65 62 5 30 2 41 -19 62 -29 29 -42 31 -72 14z"/>
<path d="M13396 11179 c-10 -47 -2 -182 12 -186 8 -3 12 7 12 30 0 33 1 34 37
33 32 -1 39 3 51 27 20 41 8 95 -24 107 -16 7 -32 7 -43 0 -12 -6 -22 -5 -29
2 -8 8 -12 4 -16 -13z"/>
<path d="M6738 11126 c-4 -80 1 -136 13 -136 5 0 9 19 9 42 0 33 3 39 12 30
17 -17 53 -15 68 3 17 21 18 89 1 109 -9 11 -27 16 -56 14 l-43 -1 -4 -61z"/>
<path d="M6906 11174 c-27 -26 -18 -95 15 -113 39 -22 75 -8 89 34 17 52 -3
89 -51 93 -24 2 -42 -3 -53 -14z"/>
<path d="M4010 10925 l0 -135 105 0 105 0 0 98 0 98 -38 37 c-36 35 -41 37
-105 37 l-67 0 0 -135z"/>
<path d="M4010 10425 l0 -135 105 0 105 0 0 98 0 98 -38 37 c-36 35 -41 37
-105 37 l-67 0 0 -135z"/>
<path d="M4589 10477 c-13 -7 -28 -27 -33 -45 -18 -65 57 -119 103 -73 21 21
28 74 13 98 -14 22 -57 32 -83 20z"/>
<path d="M10178 10214 c-32 -17 -51 -62 -50 -120 2 -82 50 -122 109 -90 l28
15 -45 -5 c-36 -5 -49 -2 -60 11 -19 23 -19 114 -1 149 17 30 55 44 76 26 23
-19 7 -40 -25 -34 -33 7 -50 -16 -50 -68 0 -49 14 -66 40 -50 12 7 20 8 20 2
0 -19 30 -10 46 15 12 18 15 39 11 71 -8 71 -49 104 -99 78z"/>
<path d="M10730 10191 c0 -28 -2 -29 -35 -24 -21 3 -41 1 -50 -7 -20 -17 -20
-94 1 -114 18 -19 55 -21 72 -4 9 9 12 9 12 0 0 -7 5 -12 10 -12 6 0 10 38 10
95 0 57 -4 95 -10 95 -5 0 -10 -13 -10 -29z"/>
<path d="M11296 10184 c-24 -23 -21 -109 4 -134 26 -26 62 -26 85 0 23 25 26
109 6 133 -17 21 -75 22 -95 1z"/>
<path d="M8387 10168 c-47 -16 -52 -101 -6 -127 39 -22 75 -8 89 34 21 63 -23
113 -83 93z"/>
<path d="M9037 10168 c-47 -16 -52 -101 -6 -127 41 -23 76 -8 90 39 20 65 -21
108 -84 88z"/>
<path d="M10502 10172 c-29 -5 -44 -34 -40 -80 6 -74 102 -85 120 -14 16 59
-22 104 -80 94z"/>
<path d="M14866 10154 c-27 -26 -18 -95 15 -113 39 -22 75 -8 89 34 17 52 -3
89 -51 93 -24 2 -42 -3 -53 -14z"/>
<path d="M4010 9925 l0 -135 105 0 105 0 0 98 0 98 -38 37 c-36 35 -41 37
-105 37 l-67 0 0 -135z"/>
<path d="M7640 9851 c0 -28 -2 -29 -35 -24 -21 3 -41 1 -50 -7 -20 -17 -20
-94 1 -114 18 -19 55 -21 72 -4 9 9 12 9 12 0 0 -7 5 -12 10 -12 6 0 10 38 10
95 0 57 -4 95 -10 95 -5 0 -10 -13 -10 -29z"/>
<path d="M7066 9814 c-27 -26 -18 -95 15 -113 39 -22 75 -8 89 34 17 52 -3 89
-51 93 -24 2 -42 -3 -53 -14z"/>
<path d="M4010 9425 l0 -135 105 0 105 0 0 98 0 98 -38 37 c-36 35 -41 37
-105 37 l-67 0 0 -135z"/>
<path d="M4590 9477 c-14 -7 -28 -26 -34 -45 -7 -27 -6 -38 11 -60 41 -55 113
-32 113 36 0 43 -7 55 -37 71 -26 13 -23 13 -53 -2z"/>
<path d="M6740 9105 c0 -57 4 -95 10 -95 6 0 10 5 10 12 0 9 3 9 12 0 16 -16
53 -15 67 2 17 20 18 91 1 111 -9 11 -24 15 -47 13 -30 -4 -33 -2 -33 24 0 15
-4 28 -10 28 -6 0 -10 -38 -10 -95z"/>
<path d="M11700 9171 c0 -28 -2 -29 -35 -24 -21 3 -41 1 -50 -7 -20 -17 -20
-94 1 -114 18 -19 55 -21 72 -4 9 9 12 9 12 0 0 -7 5 -12 10 -12 6 0 10 38 10
95 0 57 -4 95 -10 95 -5 0 -10 -13 -10 -29z"/>
<path d="M6054 9172 c-19 -13 -23 -40 -9 -58 11 -15 10 -20 -3 -30 -10 -7 -13
-19 -8 -37 13 -52 116 -45 116 8 0 13 -7 28 -16 33 -14 8 -14 10 0 21 19 16
21 42 4 59 -13 13 -67 16 -84 4z"/>
<path d="M10316 9158 c-9 -12 -16 -37 -16 -55 0 -74 45 -111 95 -79 22 14 25
24 25 71 0 62 -16 85 -60 85 -18 0 -34 -8 -44 -22z"/>
<path d="M6410 9049 c0 -59 4 -99 10 -99 6 0 10 19 10 41 0 36 2 40 15 29 44
-37 101 39 73 97 -12 24 -19 28 -61 29 l-47 2 0 -99z"/>
<path d="M4010 8925 l0 -135 105 0 105 0 0 98 0 98 -38 37 c-36 35 -41 37
-105 37 l-67 0 0 -135z"/>
<path d="M7888 8850 c-22 -13 -41 -75 -40 -124 3 -75 53 -113 109 -82 l28 15
-47 -6 c-44 -5 -47 -4 -62 25 -46 88 25 216 86 155 20 -20 27 -80 13 -122 -8
-27 -28 -16 -22 13 20 84 20 81 -17 83 -41 3 -56 -16 -56 -69 0 -49 14 -66 40
-50 12 7 20 8 20 2 0 -19 30 -10 46 15 21 32 14 107 -11 135 -19 21 -59 26
-87 10z"/>
<path d="M8450 8829 c0 -26 -3 -30 -17 -24 -25 11 -52 8 -69 -6 -19 -16 -18
-93 2 -113 18 -19 55 -21 72 -4 9 9 12 9 12 0 0 -7 5 -12 10 -12 6 0 10 38 10
95 0 57 -4 95 -10 95 -5 0 -10 -14 -10 -31z"/>
<path d="M8227 8808 c-47 -16 -52 -101 -6 -127 39 -22 75 -8 89 34 21 63 -23
113 -83 93z"/>
<path d="M9037 8808 c-47 -16 -52 -101 -6 -127 39 -22 75 -8 89 34 21 63 -23
113 -83 93z"/>
<path d="M13267 8808 c-47 -16 -52 -101 -6 -127 39 -22 75 -8 89 34 21 63 -23
113 -83 93z"/>
<path d="M11122 8798 c-18 -18 -15 -94 4 -112 18 -19 38 -20 65 -6 17 10 19 7
19 -30 0 -22 5 -40 10 -40 6 0 10 39 10 98 l0 98 -48 2 c-27 1 -53 -3 -60 -10z"/>
<path d="M4010 8425 l0 -135 105 0 105 0 0 98 0 98 -38 37 c-36 35 -41 37
-105 37 l-67 0 0 -135z"/>
<path d="M7390 8435 c0 -57 4 -95 10 -95 6 0 10 5 10 12 0 9 3 9 12 0 17 -17
53 -15 68 3 17 21 18 89 0 110 -9 11 -24 16 -47 13 -30 -4 -33 -2 -33 24 0 15
-4 28 -10 28 -6 0 -10 -38 -10 -95z"/>
<path d="M12772 8507 c-41 -19 -50 -108 -14 -149 15 -18 58 -24 78 -10 34 22
45 102 19 139 -17 24 -53 33 -83 20z"/>
<path d="M6046 8488 c-23 -33 -21 -103 4 -128 25 -25 51 -25 78 -2 20 16 27
48 24 99 -4 52 -77 73 -106 31z"/>
<path d="M15186 8488 c-20 -28 -20 -97 -1 -122 19 -25 73 -26 91 -1 19 26 18
110 -2 129 -23 24 -70 20 -88 -6z"/>
<path d="M4589 8477 c-13 -7 -28 -27 -33 -45 -18 -65 57 -119 103 -73 21 21
28 74 13 98 -14 22 -57 32 -83 20z"/>
<path d="M7060 8378 c0 -59 4 -98 10 -98 6 0 10 19 10 42 0 33 3 39 12 30 16
-16 53 -15 67 2 17 20 18 91 2 110 -9 11 -28 16 -57 14 l-44 -1 0 -99z"/>
<path d="M4010 7925 l0 -135 105 0 105 0 0 98 0 98 -38 37 c-36 35 -41 37
-105 37 l-67 0 0 -135z"/>
<path d="M4010 7425 l0 -135 105 0 105 0 0 98 0 98 -38 37 c-36 35 -41 37
-105 37 l-67 0 0 -135z"/>
<path d="M14700 7415 c0 -57 4 -95 10 -95 6 0 10 5 10 12 0 9 3 9 12 0 17 -17
53 -15 68 3 17 21 18 89 0 110 -9 11 -24 16 -47 13 -30 -4 -33 -2 -33 24 0 15
-4 28 -10 28 -6 0 -10 -38 -10 -95z"/>
<path d="M4590 7477 c-14 -7 -28 -26 -34 -45 -7 -27 -6 -38 11 -60 41 -55 113
-32 113 36 0 43 -7 55 -37 71 -26 13 -23 13 -53 -2z"/>
<path d="M14415 7460 c-11 -4 -26 -5 -32 -3 -10 4 -13 -19 -13 -96 0 -61 4
-101 10 -101 6 0 10 19 10 42 0 33 3 39 12 30 16 -16 53 -15 65 1 44 54 5 148
-52 127z"/>
<path d="M7715 7444 c-26 -26 -16 -95 16 -113 41 -23 76 -8 90 39 10 33 9 43
-5 65 -20 30 -75 35 -101 9z"/>
<path d="M13897 7448 c-29 -22 -20 -98 14 -117 39 -22 75 -8 89 34 17 51 -3
89 -50 93 -19 2 -43 -3 -53 -10z"/>
<path d="M10662 7173 c-23 -9 -42 -62 -42 -118 0 -46 4 -60 25 -80 27 -28 49
-31 85 -10 24 14 23 15 -17 9 -50 -8 -69 4 -78 47 -15 68 21 149 65 149 40 0
65 -78 45 -139 -8 -27 -28 -16 -22 13 18 75 19 88 8 81 -7 -4 -18 -2 -26 5
-22 18 -55 -22 -55 -67 0 -53 13 -72 40 -55 12 7 20 8 20 2 0 -19 30 -10 46
15 21 32 14 107 -11 135 -17 19 -54 25 -83 13z"/>
<path d="M12442 7157 c-47 -21 -48 -130 -1 -156 53 -29 99 9 99 82 0 61 -47
96 -98 74z"/>
<path d="M4010 6925 l0 -135 105 0 105 0 0 98 0 98 -38 37 c-36 35 -41 37
-105 37 l-67 0 0 -135z"/>
<path d="M4010 6425 l0 -135 105 0 105 0 0 98 0 98 -38 37 c-36 35 -41 37
-105 37 l-67 0 0 -135z"/>
<path d="M4589 6477 c-13 -7 -28 -27 -33 -45 -18 -65 57 -119 103 -73 21 21
28 74 13 98 -14 22 -57 32 -83 20z"/>
<path d="M9194 6467 c-29 -16 -34 -28 -34 -79 0 -111 113 -121 126 -11 3 21
-1 49 -8 62 -15 29 -57 43 -84 28z"/>
<path d="M8550 6442 c-44 -14 -56 -99 -18 -126 47 -33 95 -13 104 44 9 55 -37
98 -86 82z"/>
<path d="M7058 6361 c-2 -42 -2 -86 0 -98 6 -39 22 -25 22 17 0 37 1 39 19 28
48 -30 97 41 68 101 -10 22 -19 26 -59 27 l-47 2 -3 -77z"/>
<path d="M13069 6143 c-3 -71 0 -165 5 -171 4 -3 11 0 15 7 6 9 11 10 15 2 10
-16 51 -13 66 4 17 21 18 89 0 110 -9 11 -24 16 -47 13 -30 -4 -33 -2 -33 24
0 30 -19 40 -21 11z"/>
<path d="M11142 6107 c-43 -19 -44 -102 -1 -126 39 -22 75 -8 89 34 21 64 -30
118 -88 92z"/>
<path d="M9168 6071 c-5 -60 3 -161 13 -161 5 0 9 19 9 42 0 33 3 39 12 30 16
-16 53 -15 65 1 20 24 24 79 8 104 -13 19 -23 23 -60 21 -43 -1 -44 -2 -47
-37z"/>
<path d="M4010 5925 l0 -135 105 0 105 0 0 98 0 98 -38 37 c-36 35 -41 37
-105 37 l-67 0 0 -135z"/>
<path d="M6046 5784 c-20 -19 -20 -24 -1 -51 13 -19 13 -22 0 -27 -8 -3 -15
-16 -15 -29 0 -32 49 -55 88 -41 32 11 42 52 18 70 -14 10 -15 13 -1 24 18 15
19 42 3 58 -17 17 -74 15 -92 -4z"/>
<path d="M4010 5425 l0 -135 105 0 105 0 0 98 0 98 -38 37 c-36 35 -41 37
-105 37 l-67 0 0 -135z"/>
<path d="M4590 5477 c-14 -7 -28 -26 -34 -45 -7 -27 -6 -38 11 -60 41 -55 113
-32 113 36 0 43 -7 55 -37 71 -26 13 -23 13 -53 -2z"/>
<path d="M7892 5123 c-23 -9 -42 -62 -42 -118 0 -46 4 -60 25 -80 27 -28 49
-31 85 -10 24 14 23 14 -20 9 -55 -7 -70 6 -77 70 -10 87 52 156 99 109 20
-20 27 -80 13 -122 -8 -27 -28 -16 -22 13 20 84 20 81 -17 83 -41 3 -56 -16
-56 -69 0 -49 14 -66 40 -50 12 7 20 8 20 2 0 -19 30 -10 46 15 21 32 14 107
-11 135 -17 19 -54 25 -83 13z"/>
<path d="M9178 5112 c-15 -3 -18 -16 -18 -88 l0 -84 40 0 c73 0 110 64 78 135
-6 14 -23 28 -37 31 -14 3 -30 7 -36 8 -5 1 -18 1 -27 -2z"/>
<path d="M6046 5088 c-23 -33 -21 -103 4 -128 25 -25 51 -25 78 -2 19 16 26
44 23 99 -2 52 -76 73 -105 31z"/>
<path d="M9346 5065 c-25 -25 -21 -90 6 -109 63 -44 130 20 96 91 -10 22 -21
29 -49 31 -24 2 -42 -3 -53 -13z"/>
<path d="M7088 4794 c-73 -38 -67 -201 8 -220 28 -7 74 9 74 26 0 7 -6 8 -19
0 -11 -5 -31 -10 -46 -10 -55 0 -71 125 -22 178 24 26 49 28 67 7 10 -12 9
-16 -3 -21 -9 -3 -21 -3 -26 0 -22 14 -51 -33 -51 -79 0 -48 20 -69 43 -46 8
8 7 11 -5 11 -9 0 -18 10 -20 23 -5 32 11 77 29 77 11 0 14 -11 13 -47 -3 -66
-2 -73 15 -73 27 0 48 47 42 96 -8 71 -49 104 -99 78z"/>
<path d="M7227 4762 c-20 -22 -23 -101 -4 -125 20 -27 60 -31 88 -8 20 16 24
28 24 71 0 40 -5 55 -19 66 -27 19 -70 18 -89 -4z"/>
<path d="M4010 4455 l0 -275 105 0 105 0 0 102 c0 101 0 102 -32 135 l-32 33
32 0 32 0 0 103 0 103 -38 37 c-36 35 -41 37 -105 37 l-67 0 0 -275z"/>
<path d="M7389 4448 c-2 -55 3 -163 7 -168 3 -2 9 2 13 9 6 9 11 10 15 2 10
-16 51 -14 65 3 17 20 18 91 1 111 -9 11 -24 15 -47 13 -30 -4 -33 -2 -33 24
0 33 -20 38 -21 6z"/>
<path d="M11610 4364 l0 -87 40 6 c52 7 68 20 76 63 12 67 -19 104 -88 104
l-28 0 0 -86z"/>
<path d="M10400 4421 c0 -6 -15 -7 -36 -4 -45 7 -64 -13 -64 -68 0 -58 35 -83
81 -58 18 9 20 8 17 -12 -5 -32 -33 -47 -59 -31 -27 17 -40 5 -15 -14 27 -19
60 -18 79 4 13 14 17 38 17 100 0 44 -4 84 -10 87 -5 3 -10 2 -10 -4z"/>
<path d="M7058 4341 c-2 -42 -2 -86 0 -98 6 -39 22 -25 22 19 0 33 3 39 12 30
17 -17 53 -15 68 3 17 21 18 89 1 109 -9 11 -27 16 -57 14 l-43 -1 -3 -76z"/>
<path d="M9016 4398 c-22 -31 -20 -74 4 -98 24 -24 38 -25 62 -3 17 15 18 15
18 -5 0 -11 -3 -27 -6 -36 -7 -18 -49 -22 -59 -6 -3 6 -11 10 -17 10 -7 0 -6
-6 2 -15 18 -22 77 -19 90 4 13 25 13 171 0 171 -5 0 -10 -5 -10 -12 0 -9 -3
-9 -12 0 -19 19 -55 14 -72 -10z"/>
<path d="M10652 4055 c-17 -13 -22 -26 -22 -60 0 -26 6 -50 16 -59 18 -19 55
-21 72 -4 16 16 17 -5 2 -33 -11 -20 -50 -27 -50 -9 0 6 -7 10 -15 10 -21 0
-19 -17 4 -30 29 -15 56 -12 74 8 13 14 17 39 17 105 0 51 -4 87 -10 87 -5 0
-10 -5 -10 -11 0 -6 -7 -8 -15 -5 -8 3 -21 8 -28 11 -6 3 -22 -2 -35 -10z"/>
<path d="M4010 3820 l0 -140 105 0 105 0 1 88 c2 115 3 111 -39 155 -35 36
-39 37 -104 37 l-68 0 0 -140z"/>
<path d="M4590 3877 c-14 -7 -28 -26 -34 -45 -7 -27 -6 -38 11 -60 41 -55 113
-32 113 36 0 43 -7 55 -37 71 -26 13 -23 13 -53 -2z"/>
<path d="M4010 3320 l0 -140 105 0 105 0 0 103 0 103 -38 37 c-36 35 -41 37
-105 37 l-67 0 0 -140z"/>
<path d="M7892 3103 c-23 -9 -42 -62 -42 -118 0 -46 4 -60 25 -80 27 -28 49
-31 85 -10 24 14 23 14 -22 8 -46 -5 -47 -5 -64 30 -31 65 2 167 54 167 43 0
68 -74 47 -139 -8 -27 -28 -16 -22 13 20 86 21 83 -17 84 -41 2 -56 -17 -56
-70 0 -49 14 -66 40 -50 12 7 20 8 20 2 0 -19 30 -10 46 15 21 32 14 107 -11
135 -17 19 -54 25 -83 13z"/>
<path d="M9160 3005 l0 -85 40 0 c72 0 112 69 79 133 -17 31 -28 37 -76 37
l-43 0 0 -85z"/>
<path d="M9345 3044 c-26 -26 -16 -95 16 -113 41 -23 76 -8 90 39 10 33 9 43
-5 65 -20 30 -75 35 -101 9z"/>
<path d="M4010 2820 l0 -140 105 0 105 0 0 103 0 103 -38 37 c-36 35 -41 37
-105 37 l-67 0 0 -140z"/>
<path d="M4589 2877 c-13 -7 -28 -27 -33 -45 -18 -65 57 -119 103 -73 21 21
28 74 13 98 -14 22 -57 32 -83 20z"/>
<path d="M7088 2754 c-32 -17 -51 -63 -50 -120 0 -53 23 -91 58 -100 28 -7 74
9 74 26 0 7 -6 8 -19 0 -11 -5 -31 -10 -46 -10 -35 0 -59 54 -49 115 10 70 62
108 94 70 10 -12 9 -16 -3 -21 -9 -3 -21 -3 -26 0 -22 14 -51 -33 -51 -79 0
-48 20 -69 43 -46 8 8 7 11 -6 11 -13 0 -17 9 -17 34 0 45 9 66 27 66 11 0 14
-11 13 -47 -3 -66 -2 -73 14 -73 44 0 62 107 26 152 -25 32 -50 39 -82 22z"/>
<path d="M8290 2723 c0 -29 -3 -34 -12 -25 -19 19 -66 15 -78 -7 -36 -68 25
-155 74 -105 15 14 16 14 16 0 0 -9 5 -16 10 -16 6 0 10 38 10 95 0 57 -4 95
-10 95 -5 0 -10 -17 -10 -37z"/>
<path d="M7227 2722 c-20 -22 -23 -101 -4 -125 6 -9 24 -19 39 -22 21 -6 33
-1 54 20 23 23 26 32 21 73 -3 28 -12 51 -23 59 -25 19 -68 16 -87 -5z"/>
<path d="M4010 2320 l0 -140 105 0 105 0 0 103 0 103 -38 37 c-36 35 -41 37
-105 37 l-67 0 0 -140z"/>
<path d="M7389 2378 c-1 -73 2 -132 7 -138 3 -2 9 2 13 9 6 9 11 10 15 2 10
-16 51 -14 65 3 17 20 18 91 1 111 -9 11 -24 15 -47 13 -30 -4 -33 -2 -33 24
0 52 -20 29 -21 -24z"/>
<path d="M6054 2402 c-19 -13 -23 -40 -9 -58 11 -15 10 -20 -3 -30 -10 -7 -13
-19 -8 -37 13 -52 116 -45 116 8 0 13 -7 28 -16 33 -14 8 -14 10 0 21 19 16
21 42 4 59 -13 13 -67 16 -84 4z"/>
<path d="M12260 2324 l0 -87 41 6 c56 7 74 28 74 83 0 55 -28 84 -81 84 l-34
0 0 -86z"/>
<path d="M10180 2378 c-32 -12 -40 -25 -40 -69 0 -42 24 -69 63 -69 49 0 79
57 55 106 -16 33 -44 45 -78 32z"/>
<path d="M11970 2382 c-57 -18 -52 -142 6 -142 9 0 24 5 35 10 16 9 19 7 19
-8 0 -10 -5 -23 -12 -30 -15 -15 -48 -16 -48 -2 0 6 -7 10 -15 10 -21 0 -19
-17 4 -30 29 -15 56 -12 74 8 24 27 25 187 1 178 -8 -3 -23 -2 -32 3 -9 4 -24
6 -32 3z"/>
<path d="M7058 2326 c-4 -74 2 -146 13 -146 5 0 9 15 9 34 0 34 1 35 33 29 41
-6 59 13 61 66 1 53 -17 71 -69 69 l-43 -1 -4 -51z"/>
<path d="M9017 2362 c-23 -25 -21 -78 3 -102 25 -25 38 -25 63 -3 18 17 18 16
15 -17 -2 -28 -8 -36 -26 -38 -13 -2 -30 2 -39 10 -14 11 -15 11 -11 -2 7 -23
69 -26 85 -4 16 21 18 174 3 174 -5 0 -10 -5 -10 -12 0 -9 -3 -9 -12 0 -18 18
-53 15 -71 -6z"/>
<path d="M4010 1820 l0 -140 105 0 105 0 1 88 c2 115 3 111 -39 155 -35 36
-39 37 -104 37 l-68 0 0 -140z"/>
<path d="M4590 1877 c-14 -7 -28 -26 -34 -45 -7 -27 -6 -38 11 -60 41 -55 113
-32 113 36 0 43 -7 55 -37 71 -26 13 -23 13 -53 -2z"/>
<path d="M4010 1320 l0 -140 105 0 105 0 0 103 0 103 -38 37 c-36 35 -41 37
-105 37 l-67 0 0 -140z"/>
<path d="M7640 1245 c0 -57 4 -95 10 -95 6 0 10 18 10 40 0 27 4 40 14 40 7 0
25 -18 40 -40 14 -22 33 -40 42 -40 16 0 14 6 -18 52 -18 26 -18 27 2 38 14 8
20 21 20 45 0 41 -20 55 -79 55 l-41 0 0 -95z"/>
<path d="M6552 1274 c-16 -11 -22 -25 -22 -53 0 -46 24 -71 68 -71 33 0 72 38
72 70 0 10 -9 29 -21 44 -24 30 -63 34 -97 10z"/>
</g>
</svg>
