<?xml version="1.0" standalone="no"?>
<!DOCTYPE svg PUBLIC "-//W3C//DTD SVG 20010904//EN"
 "http://www.w3.org/TR/2001/REC-SVG-20010904/DTD/svg10.dtd">
<svg version="1.0" xmlns="http://www.w3.org/2000/svg"
 width="1700.000000pt" height="2200.000000pt" viewBox="0 0 1700.000000 2200.000000"
 preserveAspectRatio="xMidYMid meet">
<metadata>
Created by potrace 1.16, written by Peter Selinger 2001-2019
</metadata>
<g transform="translate(0.000000,2200.000000) scale(0.100000,-0.100000)"
fill="#000000" stroke="none">
<path d="M7550 21465 l0 -75 41 0 c22 0 49 5 60 10 23 13 25 43 4 60 -11 9
-12 16 -3 30 18 29 -6 50 -58 50 l-44 0 0 -75z"/>
<path d="M810 20945 l0 -185 705 0 705 0 0 185 0 185 -705 0 -705 0 0 -185z
m230 120 c30 -16 30 -16 30 -109 0 -76 -3 -95 -16 -100 -33 -13 -55 -5 -90 34
-39 43 -51 48 -68 26 -6 -8 -20 -16 -31 -18 -18 -3 -20 3 -23 56 -4 71 8 89
41 58 29 -27 43 -28 59 -2 7 11 19 20 26 20 7 0 17 11 22 25 11 29 12 30 50
10z"/>
<path d="M13010 20915 l0 -145 1425 0 1425 0 0 145 0 145 -1425 0 -1425 0 0
-145z m2830 -5 l0 -120 -1400 0 -1400 0 0 120 0 120 1400 0 1400 0 0 -120z"/>
<path d="M5070 19466 l0 -54 -29 11 c-56 21 -101 -20 -101 -92 0 -64 69 -103
112 -64 17 15 18 15 18 0 0 -10 8 -17 20 -17 19 0 20 7 20 135 0 128 -1 135
-20 135 -18 0 -20 -7 -20 -54z"/>
<path d="M5710 19385 c0 -128 1 -135 20 -135 11 0 20 4 20 9 0 5 13 4 29 -2
56 -21 101 20 101 92 0 64 -69 103 -112 64 -17 -15 -18 -14 -18 45 0 55 -2 62
-20 62 -19 0 -20 -7 -20 -135z"/>
<path d="M6310 19385 c0 -127 1 -135 19 -135 16 0 20 8 23 43 l3 42 30 -42
c23 -33 37 -43 58 -43 l29 0 -41 46 -41 47 36 43 c35 44 35 44 11 44 -18 0
-34 -12 -56 -42 l-31 -42 0 87 c0 80 -2 87 -20 87 -19 0 -20 -7 -20 -135z"/>
<path d="M8960 19385 c0 -128 1 -135 20 -135 11 0 20 4 20 9 0 5 13 4 29 -2
77 -29 135 77 80 147 -23 29 -54 33 -87 10 l-22 -15 0 60 c0 54 -2 61 -20 61
-19 0 -20 -7 -20 -135z"/>
<path d="M5270 19380 l0 -130 53 0 c64 0 99 17 111 52 11 32 -8 78 -32 78 -12
0 -10 5 6 23 27 29 28 61 2 87 -16 16 -33 20 -80 20 l-60 0 0 -130z"/>
<path d="M7093 19478 c-6 -18 -27 -77 -46 -130 l-36 -98 23 0 c18 0 27 8 35
30 9 28 13 30 60 30 46 0 50 -2 60 -30 7 -23 16 -30 35 -30 l26 0 -36 98 c-20
53 -41 112 -47 130 -8 25 -16 32 -37 32 -21 0 -29 -7 -37 -32z"/>
<path d="M4278 19423 c-10 -2 -18 -13 -18 -23 0 -16 4 -17 35 -8 26 9 38 8 50
-2 24 -20 18 -27 -27 -34 -50 -8 -78 -30 -78 -62 0 -41 67 -59 102 -27 17 15
18 15 18 0 0 -10 8 -17 20 -17 18 0 20 7 20 70 0 57 -4 74 -20 90 -19 19 -60
24 -102 13z"/>
<path d="M4568 19423 c-10 -2 -18 -13 -18 -23 0 -16 4 -17 35 -8 26 9 38 8 50
-2 24 -20 18 -27 -27 -34 -50 -8 -78 -30 -78 -62 0 -41 67 -59 102 -27 17 15
18 15 18 0 0 -10 8 -17 20 -17 18 0 20 7 20 70 0 57 -4 74 -20 90 -19 19 -60
24 -102 13z"/>
<path d="M4740 19340 c0 -83 1 -90 20 -90 18 0 20 7 20 59 0 41 5 65 16 75 38
39 64 10 64 -71 0 -56 2 -63 20 -63 18 0 20 7 20 68 0 79 -17 112 -57 112 -15
0 -35 -7 -45 -17 -17 -15 -18 -15 -18 0 0 10 -8 17 -20 17 -19 0 -20 -7 -20
-90z"/>
<path d="M5920 19362 c0 -79 17 -112 57 -112 15 0 35 7 45 17 17 15 18 15 18
0 0 -10 8 -17 20 -17 19 0 20 7 20 90 0 83 -1 90 -20 90 -18 0 -20 -7 -20 -59
0 -41 -5 -65 -16 -75 -38 -39 -64 -10 -64 71 0 56 -2 63 -20 63 -18 0 -20 -7
-20 -68z"/>
<path d="M6534 19418 c-48 -23 -59 -104 -19 -143 37 -38 125 -33 125 6 0 16
-3 18 -19 9 -28 -14 -57 -12 -75 6 -27 27 -18 34 44 34 58 0 60 1 60 25 0 14
-11 37 -25 50 -25 26 -56 31 -91 13z"/>
<path d="M7528 19423 c-10 -2 -18 -13 -18 -23 0 -16 4 -17 35 -8 26 9 38 8 50
-2 24 -20 18 -27 -27 -34 -50 -8 -78 -30 -78 -62 0 -41 67 -59 102 -27 17 15
18 15 18 0 0 -10 8 -17 20 -17 18 0 20 7 20 70 0 57 -4 74 -20 90 -19 19 -60
24 -102 13z"/>
<path d="M8118 19423 c-10 -2 -18 -13 -18 -23 0 -16 4 -17 35 -8 26 9 38 8 50
-2 24 -20 18 -27 -27 -34 -50 -8 -78 -30 -78 -62 0 -41 67 -59 102 -27 17 15
18 15 18 0 0 -10 8 -17 20 -17 18 0 20 7 20 70 0 57 -4 74 -20 90 -19 19 -60
24 -102 13z"/>
<path d="M8290 19340 c0 -83 1 -90 20 -90 18 0 20 7 20 59 0 41 5 65 16 75 38
39 64 10 64 -71 0 -56 2 -63 20 -63 18 0 20 7 20 68 0 79 -17 112 -57 112 -15
0 -35 -7 -45 -17 -17 -15 -18 -15 -18 0 0 10 -8 17 -20 17 -19 0 -20 -7 -20
-90z"/>
<path d="M8788 19423 c-10 -2 -18 -13 -18 -23 0 -16 4 -17 35 -8 26 9 38 8 50
-2 24 -20 18 -27 -27 -34 -50 -8 -78 -30 -78 -62 0 -41 67 -59 102 -27 17 15
18 15 18 0 0 -10 8 -17 20 -17 18 0 20 7 20 70 0 57 -4 74 -20 90 -19 19 -60
24 -102 13z"/>
<path d="M2457 19402 c-10 -10 -17 -24 -17 -30 0 -7 -3 -12 -7 -12 -16 0 -67
-124 -95 -230 -27 -99 -29 -310 -4 -391 9 -30 21 -70 27 -89 12 -40 27 -78 40
-100 5 -8 14 -26 20 -40 38 -90 203 -407 216 -417 12 -10 79 -13 249 -13 198
0 235 2 248 16 9 8 16 20 16 26 0 13 -625 1265 -641 1284 -16 19 -33 17 -52
-4z"/>
<path d="M7300 18965 c-11 -32 -15 -35 -53 -35 l-42 -1 33 -27 c30 -25 32 -29
22 -61 -5 -19 -8 -36 -6 -39 3 -2 18 6 35 19 l31 23 31 -23 c37 -28 43 -24 28
19 -11 31 -10 34 22 61 l34 28 -42 1 c-38 0 -42 3 -53 35 -6 19 -15 35 -20 35
-5 0 -14 -16 -20 -35z"/>
<path d="M7584 18975 c-7 -30 -31 -45 -71 -45 l-28 -1 33 -27 c30 -25 32 -30
23 -55 -17 -45 -13 -50 24 -27 l35 22 29 -21 c39 -28 41 -27 29 16 -9 34 -8
39 16 58 35 28 33 33 -11 37 -33 3 -39 7 -47 36 -11 38 -23 41 -32 7z"/>
<path d="M7856 18967 c-8 -21 -19 -37 -23 -36 -4 1 -21 1 -38 0 l-30 -2 32
-27 c24 -21 29 -31 23 -47 -5 -11 -9 -28 -9 -39 -1 -17 0 -17 22 -2 38 28 46
29 74 6 31 -25 40 -14 24 30 -9 27 -7 31 20 47 40 24 37 33 -11 33 -32 0 -40
4 -40 18 0 10 -6 27 -14 37 -13 18 -15 17 -30 -18z"/>
<path d="M2155 18807 c-16 -19 -155 -301 -155 -314 0 -6 -4 -13 -8 -15 -5 -1
-48 -83 -96 -181 -116 -236 -131 -218 187 -215 l240 3 19 25 c26 36 47 131 48
220 0 174 -66 350 -177 467 -24 25 -43 29 -58 10z"/>
<path d="M5342 16814 c-47 -32 -20 -124 37 -124 12 0 31 -5 43 -11 24 -13 40
-2 16 12 -15 8 -15 12 -2 38 17 34 6 74 -25 90 -27 15 -43 14 -69 -5z"/>
<path d="M1356 15356 c-34 -33 -34 -79 -1 -111 13 -14 34 -25 45 -25 12 0 32
11 45 25 45 44 24 116 -37 131 -21 4 -33 0 -52 -20z"/>
<path d="M4696 15347 c-34 -34 -35 -85 -3 -114 25 -23 127 -42 109 -20 -7 8
-7 18 -2 27 14 22 12 83 -2 103 -7 9 -27 20 -45 23 -26 5 -37 1 -57 -19z"/>
<path d="M1097 15033 c-4 -3 -7 -9 -7 -12 0 -3 311 -6 690 -6 456 0 689 3 687
10 -4 11 -1359 20 -1370 8z"/>
<path d="M3880 14455 c0 -43 -1 -44 -20 -33 -17 11 -25 10 -47 -2 -77 -43 -37
-168 42 -132 15 7 25 8 25 2 0 -6 7 -10 15 -10 12 0 15 19 15 110 0 91 -3 110
-15 110 -11 0 -15 -12 -15 -45z"/>
<path d="M1329 14463 c-63 -164 -68 -183 -48 -183 12 0 21 9 25 25 5 22 12 25
49 25 37 0 44 -3 49 -25 4 -16 13 -25 26 -25 18 0 17 6 -16 97 -19 53 -37 100
-40 105 -11 17 -35 7 -45 -19z"/>
<path d="M2655 14405 c-47 -46 -19 -125 45 -125 33 0 70 40 70 75 0 33 -37 75
-66 75 -14 0 -36 -11 -49 -25z"/>
<path d="M3625 14405 c-32 -31 -33 -77 -3 -105 29 -27 64 -25 93 5 30 30 32
64 4 99 -26 33 -62 34 -94 1z"/>
<path d="M3080 10741 l0 -40 -35 6 c-44 7 -75 -17 -75 -59 0 -51 57 -86 89
-55 11 10 14 10 18 0 14 -37 23 -2 23 87 0 60 -4 100 -10 100 -5 0 -10 -18
-10 -39z"/>
<path d="M2036 10688 c-22 -31 -20 -64 4 -88 22 -22 50 -26 68 -8 17 17 25 3
12 -22 -10 -18 -19 -21 -51 -18 -44 4 -55 -16 -14 -26 34 -9 74 3 85 24 6 10
10 50 10 87 l0 69 -49 2 c-42 2 -53 -2 -65 -20z"/>
<path d="M11700 5935 l0 -155 155 0 155 0 0 155 0 155 -155 0 -155 0 0 -155z
m252 71 c3 -5 2 -16 -3 -25 -5 -9 -15 -33 -23 -53 -16 -40 -66 -78 -103 -78
-12 0 -34 5 -50 12 -27 11 -27 12 -5 15 26 5 26 3 7 39 -12 24 -22 94 -12 94
1 0 21 -9 42 -20 30 -15 41 -17 44 -8 8 28 25 38 60 36 20 -1 39 -6 43 -12z"/>
<path d="M12137 6084 c-4 -4 -7 -72 -7 -151 l0 -143 55 -1 c30 -1 62 -1 70 -1
8 0 20 0 25 1 6 0 10 26 10 56 0 48 -2 55 -20 55 -15 0 -20 7 -20 25 0 18 5
25 20 25 16 0 20 7 20 30 0 42 33 72 73 68 24 -2 33 -8 35 -25 3 -19 -1 -23
-22 -23 -21 0 -26 -5 -26 -25 0 -18 5 -25 20 -25 15 0 20 -7 20 -25 0 -18 -5
-25 -20 -25 -18 0 -20 -7 -20 -55 0 -30 3 -56 8 -56 11 -2 45 -2 65 -1 16 2
17 14 15 150 l-3 147 -146 3 c-80 1 -148 -1 -152 -4z"/>
<path d="M3728 773 c1359 -2 3585 -2 4945 0 1359 1 247 2 -2473 2 -2720 0
-3832 -1 -2472 -2z"/>
</g>
</svg>
