<?xml version="1.0" standalone="no"?>
<!DOCTYPE svg PUBLIC "-//W3C//DTD SVG 20010904//EN"
 "http://www.w3.org/TR/2001/REC-SVG-20010904/DTD/svg10.dtd">
<svg version="1.0" xmlns="http://www.w3.org/2000/svg"
 width="1700.000000pt" height="2200.000000pt" viewBox="0 0 1700.000000 2200.000000"
 preserveAspectRatio="xMidYMid meet">
<metadata>
Created by potrace 1.16, written by Peter Selinger 2001-2019
</metadata>
<g transform="translate(0.000000,2200.000000) scale(0.100000,-0.100000)"
fill="#000000" stroke="none">
<path d="M3540 19610 c0 -47 4 -80 10 -80 6 0 10 14 10 30 0 23 5 30 19 30 10
0 30 9 43 20 l25 19 17 -42 c21 -54 20 -74 -1 -86 -21 -11 -13 -24 10 -16 8 4
27 34 42 68 39 88 38 87 27 87 -6 0 -18 -21 -28 -46 l-18 -46 -16 43 c-10 24
-22 45 -29 47 -6 2 -11 10 -11 17 0 19 -32 35 -69 35 l-31 0 0 -80z"/>
<path d="M12780 19320 l0 -80 29 0 c45 0 81 35 81 78 0 20 -4 42 -8 48 -11 18
-48 34 -76 34 -26 0 -26 -1 -26 -80z"/>
<path d="M1506 18889 c-54 -43 -24 -139 44 -139 43 0 70 31 70 80 0 72 -59
103 -114 59z"/>
<path d="M1796 18889 c-54 -43 -24 -139 44 -139 43 0 70 31 70 80 0 72 -59
103 -114 59z"/>
<path d="M2366 18889 c-54 -43 -24 -139 44 -139 43 0 70 31 70 80 0 70 -60
102 -114 59z"/>
<path d="M2620 18900 c0 -5 9 -10 20 -10 18 0 20 -7 20 -70 0 -40 4 -70 10
-70 6 0 10 30 10 70 0 56 3 70 15 70 8 0 18 0 23 0 4 0 16 -30 27 -66 11 -37
25 -69 31 -71 6 -2 19 24 29 59 l19 62 19 -62 c17 -59 32 -77 42 -49 22 56 42
148 33 145 -7 -3 -19 -31 -28 -63 -18 -65 -21 -64 -41 13 -7 29 -18 51 -23 49
-6 -2 -18 -27 -26 -55 -9 -28 -18 -53 -21 -56 -3 -4 -13 21 -22 54 l-17 60
-60 0 c-33 0 -60 -4 -60 -10z"/>
<path d="M5556 18889 c-54 -43 -24 -139 44 -139 43 0 70 31 70 80 0 72 -59
103 -114 59z"/>
<path d="M5846 18889 c-54 -43 -24 -139 44 -139 43 0 70 31 70 80 0 72 -59
103 -114 59z"/>
<path d="M7251 18830 l1 -80 57 0 c52 0 58 2 74 30 10 17 21 30 25 30 4 0 16
-13 25 -30 10 -16 22 -30 28 -30 14 0 11 12 -11 40 -25 32 -25 45 0 80 15 21
25 26 45 22 24 -4 25 -7 25 -73 0 -39 4 -69 10 -69 6 0 10 30 10 70 0 54 3 70
14 70 8 0 18 5 21 10 4 6 -18 10 -59 10 -61 0 -66 -2 -83 -30 -9 -16 -20 -30
-24 -30 -4 0 -12 14 -19 30 -7 17 -19 30 -27 30 -12 0 -10 -7 6 -34 26 -42 26
-55 -2 -87 -18 -23 -28 -26 -59 -22 -32 4 -38 9 -38 29 0 19 5 24 25 24 14 0
25 5 25 10 0 6 -11 10 -25 10 -20 0 -25 5 -25 25 0 21 5 25 30 25 17 0 30 5
30 10 0 6 -18 10 -40 10 l-40 0 1 -80z"/>
<path d="M8086 18889 c-54 -43 -24 -139 44 -139 43 0 70 31 70 80 0 72 -59
103 -114 59z"/>
<path d="M8586 18889 c-54 -43 -23 -139 46 -139 41 0 68 32 68 80 0 72 -59
103 -114 59z"/>
<path d="M10091 18830 l2 -80 34 0 c48 0 70 14 82 53 21 64 -13 107 -84 107
l-36 0 2 -80z"/>
<path d="M10326 18889 c-54 -43 -24 -139 44 -139 42 0 70 31 70 78 0 72 -59
104 -114 61z"/>
<path d="M10696 18889 c-53 -42 -24 -139 42 -139 42 0 72 33 72 80 0 72 -59
102 -114 59z"/>
<path d="M10840 18830 l0 -80 36 0 c49 0 70 14 83 53 21 64 -13 107 -83 107
l-36 0 0 -80z"/>
<path d="M12536 17599 c-54 -43 -24 -139 44 -139 43 0 70 31 70 80 0 72 -59
103 -114 59z"/>
<path d="M13056 17599 c-54 -43 -24 -139 44 -139 43 0 70 31 70 80 0 72 -59
103 -114 59z"/>
<path d="M1106 17309 c-54 -43 -23 -139 46 -139 41 0 68 32 68 80 0 72 -59
103 -114 59z"/>
<path d="M3686 17309 c-53 -42 -24 -139 42 -139 42 0 72 33 72 80 0 72 -59
102 -114 59z"/>
<path d="M5756 17309 c-54 -43 -24 -139 44 -139 43 0 70 31 70 80 0 72 -59
103 -114 59z"/>
<path d="M6010 17320 c0 -5 9 -10 20 -10 18 0 20 -7 20 -70 0 -43 4 -70 11
-70 6 0 9 25 8 67 -2 60 0 67 20 74 24 10 22 13 49 -75 9 -33 23 -61 29 -63 7
-3 19 21 29 59 l18 63 18 -63 c18 -59 33 -77 43 -49 22 58 42 148 32 144 -6
-2 -18 -29 -25 -60 -8 -31 -17 -55 -21 -52 -4 2 -14 29 -21 60 -7 30 -18 54
-24 52 -6 -2 -18 -27 -26 -55 -9 -28 -18 -53 -21 -56 -3 -4 -13 21 -22 54
l-17 60 -60 0 c-33 0 -60 -4 -60 -10z"/>
<path d="M6976 17309 c-54 -43 -24 -139 44 -139 43 0 70 31 70 80 0 72 -59
103 -114 59z"/>
<path d="M2666 16819 c-54 -43 -24 -139 44 -139 43 0 70 31 70 80 0 72 -59
103 -114 59z"/>
<path d="M3361 16760 l2 -80 36 0 c43 1 66 17 81 54 22 59 -15 106 -83 106
l-38 0 2 -80z"/>
<path d="M4962 16470 l0 -80 34 0 c49 0 71 14 83 53 21 63 -13 107 -82 107
l-35 0 0 -80z"/>
<path d="M5356 16529 c-54 -43 -24 -139 44 -139 42 0 70 31 70 78 0 72 -59
104 -114 61z"/>
<path d="M1797 15650 c-55 -44 -26 -140 43 -140 42 0 70 31 70 78 -1 46 -18
70 -56 78 -21 4 -37 0 -57 -16z"/>
<path d="M2256 15649 c-54 -43 -24 -139 44 -139 43 0 70 31 70 80 0 72 -59
103 -114 59z"/>
<path d="M1522 12390 l0 -80 34 0 c49 0 71 14 83 53 21 63 -13 107 -82 107
l-35 0 0 -80z"/>
<path d="M2431 12390 l1 -80 35 0 c48 0 70 14 82 53 21 64 -13 107 -83 107
l-36 0 1 -80z"/>
<path d="M8390 10930 l0 -80 36 0 c47 0 70 13 82 49 22 63 -15 111 -85 111
l-33 0 0 -80z"/>
<path d="M11010 10640 l0 -80 36 0 c49 0 70 14 83 53 21 64 -13 107 -83 107
l-36 0 0 -80z"/>
<path d="M15026 10699 c-54 -43 -23 -139 46 -139 41 0 68 32 68 80 0 72 -59
103 -114 59z"/>
<path d="M1906 10109 c-54 -43 -23 -139 46 -139 41 0 68 32 68 80 0 72 -59
103 -114 59z"/>
<path d="M3366 10109 c-53 -42 -24 -139 42 -139 42 0 72 33 72 80 0 72 -59
102 -114 59z"/>
<path d="M2056 9529 c-53 -42 -24 -139 42 -139 42 0 72 33 72 80 0 72 -59 102
-114 59z"/>
<path d="M3591 8301 l-1 -81 40 0 c43 0 79 25 81 58 6 71 -10 92 -74 99 l-45
5 -1 -81z"/>
<path d="M4616 8359 c-54 -43 -24 -139 44 -139 43 0 70 31 70 80 0 72 -59 103
-114 59z"/>
<path d="M5217 8360 c-55 -44 -26 -140 43 -140 42 0 70 31 70 78 0 47 -16 70
-55 78 -22 4 -38 0 -58 -16z"/>
<path d="M5780 8300 l0 -80 29 0 c50 0 78 16 90 53 21 64 -12 107 -83 107
l-36 0 0 -80z"/>
<path d="M1676 6609 c-54 -43 -24 -139 44 -139 43 0 70 31 70 80 0 72 -59 103
-114 59z"/>
<path d="M4086 6609 c-54 -43 -24 -139 44 -139 43 0 70 31 70 80 0 72 -59 103
-114 59z"/>
<path d="M5516 6609 c-54 -43 -24 -139 44 -139 43 0 70 31 70 80 0 72 -59 103
-114 59z"/>
<path d="M1522 2470 l0 -80 34 0 c49 0 71 14 83 53 21 63 -13 107 -82 107
l-35 0 0 -80z"/>
<path d="M2816 2529 c-54 -43 -24 -139 44 -139 43 0 70 31 70 80 0 72 -59 103
-114 59z"/>
<path d="M4997 2530 c-55 -44 -26 -140 43 -140 42 0 70 31 70 78 -1 46 -18 70
-56 78 -21 4 -37 0 -57 -16z"/>
<path d="M5250 2540 c0 -5 9 -10 20 -10 18 0 20 -7 20 -70 0 -40 4 -70 10 -70
6 0 10 30 10 69 0 61 2 69 21 74 22 6 32 -12 51 -95 6 -27 17 -48 24 -48 7 0
21 28 30 62 l18 63 18 -63 c18 -59 33 -77 43 -49 22 56 42 148 33 145 -7 -3
-19 -31 -28 -63 -18 -65 -21 -64 -41 13 -7 29 -18 51 -23 49 -6 -2 -18 -27
-26 -55 -9 -28 -18 -53 -21 -56 -3 -4 -13 21 -22 54 l-17 60 -60 0 c-33 0 -60
-4 -60 -10z"/>
<path d="M7080 2470 l0 -80 29 0 c50 0 78 16 90 53 21 64 -12 107 -83 107
l-36 0 0 -80z"/>
<path d="M8207 2530 c-55 -44 -26 -140 43 -140 42 0 70 31 70 78 0 47 -16 70
-55 78 -22 4 -38 0 -58 -16z"/>
<path d="M8701 2470 l1 -80 54 0 c49 0 55 3 64 25 8 20 16 25 44 25 28 0 35
-4 40 -25 6 -22 27 -37 26 -17 -2 21 -57 146 -67 149 -7 3 -23 -27 -40 -71
-19 -52 -32 -74 -41 -71 -8 3 -25 5 -38 5 -19 0 -24 5 -24 25 0 20 5 25 25 25
14 0 25 5 25 10 0 6 -11 10 -25 10 -20 0 -25 5 -25 25 0 21 5 25 29 25 17 0
33 5 36 10 4 6 -12 10 -39 10 l-46 0 1 -80z"/>
<path d="M10117 2530 c-55 -44 -26 -140 43 -140 42 0 70 31 70 78 -1 46 -18
70 -56 78 -21 4 -37 0 -57 -16z"/>
<path d="M11976 2529 c-54 -43 -24 -139 44 -139 43 0 70 31 70 80 0 72 -59
103 -114 59z"/>
<path d="M12256 2529 c-54 -43 -24 -139 44 -139 43 0 70 31 70 80 0 72 -59
103 -114 59z"/>
<path d="M13516 2529 c-54 -43 -24 -139 44 -139 43 0 70 31 70 80 0 70 -60
102 -114 59z"/>
<path d="M15131 2470 c-1 -51 2 -80 8 -80 6 0 11 16 11 35 0 46 23 46 52 0 27
-41 55 -45 68 -10 7 19 17 25 40 25 23 0 33 -6 42 -25 13 -28 32 -34 24 -7
-20 61 -53 136 -63 139 -6 2 -24 -31 -40 -73 l-29 -77 -22 34 c-18 30 -19 36
-6 50 32 35 9 69 -47 69 l-36 0 -2 -80z"/>
<path d="M1971 2180 c1 -44 6 -80 10 -80 5 0 9 16 9 35 0 46 23 46 52 0 27
-41 55 -45 68 -10 7 19 17 25 40 25 23 0 33 -6 42 -25 13 -28 32 -34 24 -7
-20 61 -53 136 -63 139 -6 2 -24 -31 -40 -73 l-29 -77 -22 34 c-18 30 -19 36
-6 50 32 36 9 69 -48 69 l-39 0 2 -80z"/>
<path d="M2997 2240 c-55 -44 -26 -140 43 -140 42 0 70 31 70 78 0 47 -16 70
-55 78 -22 4 -38 0 -58 -16z"/>
<path d="M3496 2239 c-54 -43 -24 -139 44 -139 43 0 70 31 70 80 0 72 -59 103
-114 59z"/>
<path d="M3810 2180 l0 -80 36 0 c50 0 72 15 83 56 18 65 -15 104 -90 104
l-29 0 0 -80z"/>
<path d="M4216 2239 c-54 -43 -24 -139 44 -139 43 0 70 31 70 80 0 72 -59 103
-114 59z"/>
<path d="M4896 2239 c-54 -43 -24 -139 44 -139 43 0 70 31 70 80 0 72 -59 103
-114 59z"/>
<path d="M7342 2180 l1 -80 34 0 c49 0 71 15 82 56 18 65 -15 104 -89 104
l-29 0 1 -80z"/>
<path d="M7880 2180 l0 -80 36 0 c49 0 70 14 83 53 21 64 -13 107 -83 107
l-36 0 0 -80z"/>
<path d="M10816 2239 c-54 -43 -24 -139 44 -139 43 0 70 31 70 80 0 72 -59
103 -114 59z"/>
<path d="M11096 2239 c-54 -43 -24 -139 44 -139 43 0 70 31 70 80 0 72 -59
103 -114 59z"/>
<path d="M12170 2180 l0 -80 36 0 c49 0 70 14 83 53 21 64 -13 107 -83 107
l-36 0 0 -80z"/>
<path d="M13690 2180 l0 -80 36 0 c49 0 70 14 83 53 21 64 -13 107 -83 107
l-36 0 0 -80z"/>
<path d="M15970 2180 l0 -80 36 0 c50 0 72 15 83 56 18 65 -15 104 -90 104
l-29 0 0 -80z"/>
<path d="M4516 1949 c-54 -43 -24 -139 44 -139 43 0 70 31 70 80 0 72 -59 103
-114 59z"/>
<path d="M6916 1949 c-54 -43 -24 -139 44 -139 43 0 70 31 70 80 0 72 -59 103
-114 59z"/>
<path d="M7720 1890 l0 -80 38 0 c44 1 67 16 82 54 22 59 -15 106 -82 106
l-38 0 0 -80z"/>
<path d="M8116 1949 c-54 -43 -24 -139 44 -139 43 0 70 31 70 80 0 72 -59 103
-114 59z"/>
<path d="M2396 1649 c-54 -43 -24 -139 44 -139 43 0 70 31 70 80 0 72 -59 103
-114 59z"/>
<path d="M2786 1649 c-54 -43 -24 -139 44 -139 43 0 70 31 70 80 0 72 -59 103
-114 59z"/>
<path d="M3481 1590 l1 -80 28 0 c49 0 77 17 89 53 21 64 -12 107 -83 107
l-36 0 1 -80z"/>
<path d="M4527 1650 c-55 -44 -26 -140 43 -140 42 0 70 31 70 78 0 47 -16 70
-55 78 -22 4 -38 0 -58 -16z"/>
<path d="M4917 1650 c-55 -44 -26 -140 43 -140 42 0 70 31 70 78 -1 46 -18 70
-56 78 -21 4 -37 0 -57 -16z"/>
<path d="M5241 1590 l1 -80 28 0 c49 0 77 17 89 53 21 64 -12 107 -83 107
l-36 0 1 -80z"/>
<path d="M6736 1649 c-54 -43 -24 -139 44 -139 43 0 70 31 70 80 0 72 -59 103
-114 59z"/>
<path d="M8966 1649 c-54 -43 -24 -139 44 -139 43 0 70 31 70 80 0 72 -59 103
-114 59z"/>
<path d="M9706 1649 c-54 -43 -24 -139 44 -139 43 0 70 31 70 80 0 70 -60 102
-114 59z"/>
<path d="M10681 1590 l1 -80 28 0 c49 0 77 17 89 53 21 64 -12 107 -83 107
l-36 0 1 -80z"/>
<path d="M11771 1590 l2 -80 34 0 c48 0 70 14 82 53 21 64 -13 107 -84 107
l-36 0 2 -80z"/>
<path d="M13691 1590 l2 -80 34 0 c48 0 70 14 82 53 21 64 -13 107 -84 107
l-36 0 2 -80z"/>
<path d="M14290 1590 l0 -80 36 0 c49 0 70 14 83 53 21 64 -13 107 -83 107
l-36 0 0 -80z"/>
<path d="M15586 1649 c-54 -43 -24 -139 44 -139 43 0 70 31 70 80 0 72 -59
103 -114 59z"/>
<path d="M2936 1359 c-54 -43 -24 -139 44 -139 43 0 70 31 70 80 0 72 -59 103
-114 59z"/>
<path d="M4206 1359 c-54 -43 -24 -139 44 -139 43 0 70 31 70 80 0 72 -59 103
-114 59z"/>
<path d="M5056 1359 c-54 -43 -24 -139 44 -139 43 0 70 31 70 80 0 72 -59 103
-114 59z"/>
<path d="M6016 1359 c-54 -43 -24 -139 44 -139 43 0 70 31 70 80 0 72 -59 103
-114 59z"/>
<path d="M6296 1359 c-54 -43 -24 -139 44 -139 43 0 70 31 70 80 0 72 -59 103
-114 59z"/>
<path d="M7050 1300 l0 -80 36 0 c49 0 70 14 83 53 21 64 -13 107 -83 107
l-36 0 0 -80z"/>
<path d="M8746 1359 c-54 -43 -24 -139 44 -139 42 0 70 31 70 78 0 43 -6 55
-37 71 -31 16 -47 14 -77 -10z"/>
<path d="M9354 1366 c-3 -7 -4 -42 -2 -77 3 -64 3 -64 35 -67 44 -4 69 12 82
51 21 62 -15 107 -85 107 -14 0 -27 -6 -30 -14z"/>
<path d="M10120 1300 l0 -80 36 0 c49 0 70 14 83 53 21 64 -13 107 -83 107
l-36 0 0 -80z"/>
<path d="M11677 1360 c-54 -43 -26 -140 41 -140 42 0 72 33 72 78 0 47 -16 70
-55 78 -22 4 -38 0 -58 -16z"/>
<path d="M13096 1359 c-54 -43 -24 -139 44 -139 43 0 70 31 70 80 0 72 -59
103 -114 59z"/>
<path d="M14086 1359 c-54 -43 -24 -139 44 -139 43 0 70 31 70 80 0 72 -59
103 -114 59z"/>
<path d="M14816 1359 c-54 -43 -24 -139 44 -139 43 0 70 31 70 80 0 72 -59
103 -114 59z"/>
<path d="M15926 1359 c-54 -43 -24 -139 44 -139 43 0 70 31 70 80 0 72 -59
103 -114 59z"/>
<path d="M1520 1010 l0 -80 36 0 c49 0 70 14 83 53 21 64 -13 107 -83 107
l-36 0 0 -80z"/>
<path d="M3277 1083 c-4 -3 -7 -39 -7 -80 l0 -73 36 0 c49 0 70 14 83 53 15
44 0 84 -34 97 -30 11 -69 13 -78 3z"/>
<path d="M4026 1069 c-54 -43 -24 -139 44 -139 43 0 70 31 70 80 0 72 -59 103
-114 59z"/>
<path d="M4586 1069 c-20 -16 -26 -29 -26 -58 0 -51 19 -72 71 -81 24 -4 53
-11 64 -15 19 -7 19 -7 3 10 -14 15 -14 21 -2 50 34 82 -42 147 -110 94z"/>
<path d="M5826 1069 c-54 -43 -23 -139 46 -139 41 0 68 32 68 80 0 72 -59 103
-114 59z"/>
<path d="M6546 1069 c-54 -43 -24 -139 44 -139 43 0 70 31 70 80 0 72 -59 103
-114 59z"/>
<path d="M8340 1010 l0 -80 36 0 c49 0 70 14 83 53 21 64 -13 107 -83 107
l-36 0 0 -80z"/>
<path d="M9176 1069 c-54 -43 -24 -139 44 -139 43 0 70 31 70 80 0 72 -59 103
-114 59z"/>
<path d="M9940 1010 l0 -80 36 0 c49 0 70 14 83 53 21 64 -13 107 -83 107
l-36 0 0 -80z"/>
<path d="M10800 1010 l0 -80 36 0 c49 0 70 14 83 53 21 64 -13 107 -83 107
l-36 0 0 -80z"/>
</g>
</svg>
