<?xml version="1.0" standalone="no"?>
<!DOCTYPE svg PUBLIC "-//W3C//DTD SVG 20010904//EN"
 "http://www.w3.org/TR/2001/REC-SVG-20010904/DTD/svg10.dtd">
<svg version="1.0" xmlns="http://www.w3.org/2000/svg"
 width="1700.000000pt" height="2200.000000pt" viewBox="0 0 1700.000000 2200.000000"
 preserveAspectRatio="xMidYMid meet">
<metadata>
Created by potrace 1.16, written by Peter Selinger 2001-2019
</metadata>
<g transform="translate(0.000000,2200.000000) scale(0.100000,-0.100000)"
fill="#000000" stroke="none">
<path d="M11090 21465 l0 -75 44 0 c36 0 48 5 65 26 24 30 26 52 10 88 -12 26
-35 36 -86 36 l-33 0 0 -75z"/>
<path d="M2770 20811 c-68 -22 -128 -60 -177 -109 -29 -30 -53 -59 -53 -66 0
-6 11 -29 23 -52 43 -80 119 -214 120 -214 1 0 1 20 -1 45 -6 69 6 112 41 152
54 61 78 66 290 64 202 -2 199 -3 154 46 -11 12 -24 20 -30 16 -6 -3 -7 -1 -4
5 10 14 -48 60 -113 91 -43 19 -74 26 -140 28 -47 1 -96 -1 -110 -6z"/>
<path d="M15330 20592 c-49 -48 -59 -96 -34 -149 35 -69 114 -101 179 -71 24
11 30 8 85 -47 57 -56 61 -58 77 -42 16 16 14 20 -40 75 l-58 58 12 46 c11 40
10 49 -9 89 -27 55 -65 79 -127 79 -41 0 -52 -5 -85 -38z m158 -38 c30 -34 29
-83 -3 -118 -53 -57 -155 -20 -155 56 0 88 100 127 158 62z"/>
<path d="M2825 20587 c-55 -22 -72 -36 -90 -73 -22 -47 -16 -120 14 -162 30
-43 107 -68 158 -52 103 33 145 154 82 234 -39 49 -113 73 -164 53z"/>
<path d="M3540 20440 l0 -160 68 0 c122 0 192 58 192 160 0 57 -26 108 -69
137 -28 19 -47 23 -112 23 l-79 0 0 -160z m173 104 c34 -25 47 -55 47 -110 0
-39 -5 -51 -34 -80 -31 -31 -40 -34 -90 -34 l-56 0 0 126 0 126 53 -4 c31 -2
64 -12 80 -24z"/>
<path d="M1370 20550 c0 -19 7 -20 190 -20 183 0 190 1 190 20 0 19 -7 20
-190 20 -183 0 -190 -1 -190 -20z"/>
<path d="M3888 20494 c-75 -40 -78 -159 -6 -205 39 -24 98 -21 129 7 38 34 15
60 -25 29 -28 -21 -72 -19 -96 5 -40 40 -28 50 65 50 l85 0 0 30 c0 41 -25 76
-62 89 -40 14 -57 13 -90 -5z"/>
<path d="M4349 20495 c-28 -15 -59 -70 -59 -104 0 -102 123 -157 190 -86 21
22 21 25 6 31 -10 4 -24 -1 -35 -10 -28 -25 -76 -20 -100 10 -12 15 -21 31
-21 35 0 5 41 9 90 9 100 0 102 2 76 65 -24 57 -92 80 -147 50z"/>
<path d="M4693 20496 c-85 -38 -81 -179 6 -215 87 -37 176 48 150 142 -19 68
-91 102 -156 73z m86 -36 c31 -16 46 -65 31 -100 -33 -81 -140 -57 -140 30 0
63 56 99 109 70z"/>
<path d="M4965 20494 c-19 -10 -31 -11 -33 -5 -2 6 -12 11 -23 11 -18 0 -19
-9 -19 -160 0 -153 1 -160 20 -160 18 0 20 7 20 60 0 33 2 60 3 60 2 0 18 -7
36 -16 41 -21 84 -11 116 28 47 56 32 153 -30 182 -41 20 -52 20 -90 0z m98
-62 c48 -81 -55 -169 -112 -96 -27 34 -27 74 0 108 17 22 28 26 57 24 29 -2
40 -10 55 -36z"/>
<path d="M5214 20501 c-66 -28 -87 -132 -39 -189 31 -37 73 -48 120 -32 41 14
65 47 40 56 -9 4 -24 -1 -34 -10 -34 -31 -102 -11 -114 34 -5 19 -1 20 84 20
l89 0 0 30 c0 63 -86 116 -146 91z"/>
<path d="M5599 20499 c-14 -5 -31 -21 -38 -36 -17 -37 7 -70 64 -84 49 -12 70
-31 61 -54 -8 -22 -65 -19 -91 5 -14 13 -25 16 -35 10 -12 -7 -11 -13 9 -34
67 -72 199 -11 148 68 -11 16 -33 28 -66 36 -52 12 -69 31 -45 50 13 12 43 10
92 -5 38 -12 27 24 -13 41 -39 16 -49 16 -86 3z"/>
<path d="M4079 20453 c66 -166 67 -168 90 -168 19 0 29 15 66 105 23 58 39
107 34 108 -22 9 -37 -11 -63 -82 -16 -42 -31 -76 -36 -76 -4 0 -21 35 -37 78
-23 61 -33 78 -51 80 l-22 3 19 -48z"/>
<path d="M1370 20445 l0 -25 188 2 c179 3 187 4 187 23 0 19 -8 20 -187 23
l-188 2 0 -25z"/>
<path d="M1370 20340 c0 -19 6 -20 191 -20 176 0 190 1 187 18 -3 15 -21 17
-191 20 -182 2 -187 2 -187 -18z"/>
<path d="M5920 19095 c0 -77 4 -125 10 -125 6 0 10 5 10 10 0 7 6 7 19 0 32
-17 58 -12 80 16 30 38 28 98 -4 129 -25 26 -59 33 -70 15 -14 -23 -25 -7 -25
35 0 25 -4 45 -10 45 -6 0 -10 -48 -10 -125z"/>
<path d="M7963 19200 c-47 -19 -67 -107 -39 -174 16 -39 62 -61 108 -52 46 9
58 24 58 72 l0 44 -40 0 c-22 0 -40 -4 -40 -10 0 -5 11 -10 25 -10 21 0 25 -5
25 -30 0 -51 -55 -66 -95 -25 -21 20 -25 34 -25 79 0 47 4 57 26 75 35 27 50
26 78 -4 28 -30 46 -32 39 -5 -6 23 -51 50 -80 49 -10 0 -28 -4 -40 -9z"/>
<path d="M9169 19195 c-49 -27 -65 -124 -29 -182 26 -43 80 -54 118 -26 59 43
64 153 10 198 -33 28 -61 31 -99 10z m92 -31 c8 -10 13 -41 14 -76 0 -51 -3
-63 -24 -79 -27 -22 -57 -18 -83 13 -23 26 -24 105 -2 136 18 27 75 30 95 6z"/>
<path d="M2205 19125 c-36 -35 -35 -105 1 -134 35 -28 69 -26 99 4 52 51 18
155 -50 155 -14 0 -37 -11 -50 -25z"/>
<path d="M2734 19133 c38 -134 49 -164 58 -161 6 2 19 30 28 62 10 32 21 60
23 63 3 3 13 -23 23 -56 16 -57 29 -80 40 -68 3 2 13 34 23 70 11 36 22 74 26
86 4 15 2 21 -8 21 -10 0 -19 -19 -27 -52 -20 -85 -26 -86 -45 -14 -10 36 -24
66 -30 66 -7 0 -21 -30 -31 -66 -19 -71 -24 -69 -45 14 -8 31 -18 52 -27 52
-8 0 -11 -7 -8 -17z"/>
<path d="M3214 19140 c-23 -9 -40 -40 -22 -40 6 0 20 7 30 17 15 13 23 14 43
5 38 -18 31 -39 -15 -45 -23 -3 -47 -11 -55 -17 -21 -18 -18 -54 5 -75 17 -15
26 -17 55 -8 20 6 35 7 35 2 0 -5 6 -9 13 -9 19 0 10 139 -11 163 -16 18 -44
21 -78 7z"/>
<path d="M4114 19133 c38 -134 49 -164 58 -161 6 2 19 30 28 62 10 32 21 60
24 63 2 3 12 -21 22 -53 16 -59 29 -82 39 -72 3 3 14 36 25 74 10 38 22 77 25
87 5 11 2 17 -7 17 -9 0 -19 -20 -27 -52 -21 -85 -27 -86 -46 -14 -10 36 -24
66 -30 66 -7 0 -21 -30 -31 -66 -19 -71 -24 -69 -45 14 -8 31 -18 52 -27 52
-8 0 -11 -7 -8 -17z"/>
<path d="M4605 19125 c-36 -35 -35 -105 1 -134 35 -28 69 -26 99 4 52 51 18
155 -50 155 -14 0 -37 -11 -50 -25z"/>
<path d="M5480 19146 c0 -1 4 -16 9 -32 5 -16 17 -55 26 -86 8 -32 20 -58 24
-58 5 0 19 29 31 65 12 36 23 65 25 65 2 0 12 -27 21 -60 16 -56 29 -78 40
-67 3 2 13 34 23 70 11 36 22 74 26 86 4 15 2 21 -8 21 -10 0 -19 -19 -27 -52
-20 -85 -26 -86 -45 -14 -10 36 -24 66 -30 66 -7 0 -21 -30 -31 -66 -19 -71
-24 -69 -45 14 -7 29 -18 52 -26 52 -7 0 -13 -2 -13 -4z"/>
<path d="M6190 19025 c0 -77 4 -125 10 -125 6 0 10 20 10 45 0 42 2 45 19 35
30 -16 50 -12 76 15 34 33 34 93 1 132 -23 26 -26 27 -58 15 -21 -8 -34 -9
-36 -2 -2 5 -8 10 -13 10 -5 0 -9 -56 -9 -125z"/>
<path d="M6484 19140 c-25 -10 -40 -40 -20 -40 7 0 19 7 26 15 16 19 35 19 54
-1 24 -24 20 -31 -24 -37 -50 -6 -70 -22 -70 -53 0 -35 41 -59 80 -46 18 7 30
7 30 1 0 -5 6 -9 13 -9 9 0 12 18 9 73 -5 95 -33 123 -98 97z"/>
<path d="M6913 19140 c-29 -12 -43 -40 -43 -89 0 -31 6 -44 26 -60 57 -45 124
-7 124 69 0 30 -6 47 -25 65 -25 26 -45 30 -82 15z"/>
<path d="M7160 19060 c0 -73 3 -90 15 -90 12 0 15 14 15 70 0 59 3 71 20 80
14 8 26 8 40 0 17 -9 20 -21 20 -80 0 -56 3 -70 15 -70 12 0 15 14 15 70 0 59
3 71 20 80 14 8 26 8 40 0 17 -9 20 -21 20 -80 0 -56 3 -70 15 -70 12 0 15 13
15 59 0 33 -4 71 -10 85 -12 32 -52 43 -83 23 -20 -13 -25 -13 -46 1 -18 13
-29 13 -52 5 -16 -6 -29 -7 -29 -2 0 5 -7 9 -15 9 -12 0 -15 -17 -15 -90z"/>
<path d="M7563 19138 c-26 -12 -38 -38 -19 -38 7 0 19 7 26 15 16 19 35 19 54
-1 24 -24 20 -31 -24 -37 -23 -3 -47 -11 -55 -17 -44 -36 11 -104 66 -83 16 6
29 7 29 2 0 -5 6 -9 13 -9 19 0 10 139 -11 163 -17 19 -46 21 -79 5z"/>
<path d="M8165 19125 c-36 -35 -35 -105 1 -134 35 -28 69 -26 99 4 52 51 18
155 -50 155 -14 0 -37 -11 -50 -25z"/>
<path d="M8355 19125 c-36 -35 -35 -105 1 -134 35 -28 69 -26 99 4 52 51 18
155 -50 155 -14 0 -37 -11 -50 -25z"/>
<path d="M8535 19125 c-19 -18 -25 -35 -25 -65 0 -30 6 -47 25 -65 26 -27 46
-31 76 -15 24 13 26 -6 3 -38 -18 -26 -46 -29 -68 -7 -10 10 -17 12 -21 4 -22
-34 86 -49 111 -14 17 23 20 225 4 225 -5 0 -10 -5 -10 -10 0 -7 -6 -7 -19 0
-30 16 -50 12 -76 -15z"/>
<path d="M14500 18225 l0 -115 45 0 c98 0 153 52 142 134 -4 29 -15 49 -37 69
-26 23 -39 27 -90 27 l-60 0 0 -115z m105 81 c96 -40 61 -166 -45 -166 l-30 0
0 90 c0 101 4 105 75 76z"/>
<path d="M11696 18259 c-35 -28 -37 -95 -3 -127 32 -30 87 -29 115 1 33 35 30
99 -4 126 -15 12 -39 21 -54 21 -15 0 -39 -9 -54 -21z"/>
<path d="M12572 18257 c-29 -31 -30 -99 -2 -127 27 -27 90 -27 114 -1 22 25 2
40 -23 17 -25 -23 -47 -20 -71 12 l-22 27 66 3 c63 3 66 4 66 27 0 60 -85 88
-128 42z"/>
<path d="M12875 18270 c-3 -6 -17 -7 -31 -4 l-24 6 0 -116 c0 -96 3 -116 15
-116 11 0 15 12 15 45 0 42 2 45 19 35 48 -25 104 -1 114 49 8 37 -9 88 -33
101 -24 13 -67 13 -75 0z"/>
<path d="M13045 18267 c-25 -19 -4 -30 30 -17 33 13 31 13 49 -6 26 -25 19
-34 -28 -34 -26 0 -48 -6 -56 -15 -43 -52 17 -109 81 -75 13 7 19 7 19 0 0 -5
7 -10 15 -10 25 0 21 124 -5 150 -23 23 -77 27 -105 7z"/>
<path d="M15025 18270 c-3 -6 -17 -7 -31 -4 -24 6 -24 6 -24 -75 0 -65 3 -81
15 -81 11 0 15 12 15 44 0 69 14 98 48 94 26 -3 27 -5 30 -70 2 -52 6 -68 17
-68 11 0 15 13 15 53 0 63 16 90 51 85 22 -3 24 -7 27 -70 2 -52 6 -68 17 -68
22 0 21 133 -1 154 -19 20 -54 21 -79 2 -16 -11 -21 -11 -33 0 -16 16 -58 19
-67 4z"/>
<path d="M15367 16902 c-10 -10 -17 -27 -17 -38 0 -13 -23 -32 -72 -61 -57
-33 -76 -39 -95 -32 -50 19 -92 -22 -79 -77 7 -26 42 -40 78 -30 33 8 168 -72
168 -100 0 -28 30 -54 62 -54 52 0 78 69 38 105 -14 13 -28 16 -55 11 -32 -6
-47 -1 -106 34 -47 28 -69 47 -67 58 2 8 35 34 73 57 60 35 74 40 96 31 59
-22 107 56 61 97 -24 22 -65 21 -85 -1z"/>
<path d="M8700 16761 c0 -109 3 -131 15 -131 12 0 15 21 17 109 l3 110 68
-110 c38 -60 75 -109 83 -109 11 0 14 24 14 130 0 108 -3 130 -15 130 -11 0
-15 -20 -17 -100 l-3 -100 -61 97 c-42 68 -67 99 -82 101 -22 3 -22 1 -22
-127z"/>
<path d="M9950 16760 c0 -109 2 -130 15 -130 10 0 15 10 15 28 0 16 9 37 19
46 18 17 20 16 51 -28 17 -25 37 -46 45 -46 21 0 20 4 -21 61 l-37 50 39 40
c58 59 13 52 -48 -8 l-48 -47 0 82 c0 66 -3 82 -15 82 -13 0 -15 -21 -15 -130z"/>
<path d="M1590 16745 l0 -115 45 0 c98 0 153 52 142 134 -4 29 -15 49 -37 69
-26 23 -39 27 -90 27 l-60 0 0 -115z m126 70 c68 -44 27 -155 -58 -155 l-38 0
0 91 0 92 36 -6 c20 -3 47 -13 60 -22z"/>
<path d="M6400 16745 l0 -115 45 0 c98 0 153 52 142 134 -4 29 -15 49 -37 69
-26 23 -39 27 -90 27 l-60 0 0 -115z m138 59 c53 -60 7 -144 -78 -144 l-30 0
0 91 0 92 43 -7 c27 -4 50 -15 65 -32z"/>
<path d="M8993 16805 c-34 -24 -47 -76 -29 -118 8 -20 23 -40 34 -46 43 -23
122 -7 122 24 0 19 -10 18 -34 0 -30 -22 -62 -18 -85 11 -12 15 -21 31 -21 35
0 5 34 9 75 9 74 0 75 0 75 25 0 59 -85 96 -137 60z"/>
<path d="M9290 16813 c0 -4 12 -47 27 -96 34 -110 48 -111 82 -7 l24 75 26
-78 c31 -95 46 -97 76 -7 33 100 37 120 23 120 -7 0 -24 -34 -37 -78 l-24 -77
-24 78 c-15 48 -29 77 -38 77 -8 0 -23 -27 -36 -70 -13 -38 -26 -70 -29 -70
-4 0 -15 30 -26 67 -10 36 -25 68 -31 71 -7 2 -13 0 -13 -5z"/>
<path d="M9623 16802 c-33 -25 -46 -77 -28 -117 16 -39 41 -55 87 -55 45 0 75
23 87 67 12 42 -6 95 -37 112 -31 16 -84 13 -109 -7z m107 -28 c23 -22 18 -83
-9 -105 -31 -26 -57 -24 -86 6 -68 67 26 165 95 99z"/>
<path d="M1836 16779 c-21 -16 -26 -29 -26 -64 0 -35 5 -48 26 -64 58 -45 134
-11 134 60 0 76 -75 114 -134 68z"/>
<path d="M2442 16784 c-12 -8 -22 -10 -22 -5 0 6 -7 11 -15 11 -12 0 -15 -16
-15 -80 0 -64 3 -80 15 -80 11 0 15 13 15 53 0 63 16 90 51 85 22 -3 24 -7 27
-70 2 -52 6 -68 17 -68 11 0 15 13 15 53 0 63 16 90 51 85 22 -3 24 -7 27 -70
2 -52 6 -68 17 -68 24 0 21 132 -3 153 -23 21 -51 22 -79 2 -18 -13 -22 -13
-33 0 -16 19 -40 19 -68 -1z"/>
<path d="M2716 16779 c-21 -16 -26 -29 -26 -63 0 -51 31 -86 76 -86 38 0 80
28 65 43 -7 7 -16 6 -29 -6 -25 -22 -48 -21 -72 3 -33 33 -24 40 45 40 61 0
65 1 65 23 0 33 -35 67 -69 67 -16 0 -40 -9 -55 -21z"/>
<path d="M3211 16786 c-15 -8 -20 -16 -13 -20 7 -4 20 -2 31 4 27 14 37 13 55
-6 26 -25 19 -34 -27 -34 -49 0 -67 -13 -67 -50 0 -46 44 -65 91 -40 13 7 19
7 19 0 0 -5 7 -10 15 -10 25 0 21 124 -5 150 -23 23 -64 25 -99 6z"/>
<path d="M3615 16775 c-18 -17 -25 -35 -25 -63 0 -52 18 -72 68 -79 36 -5 47
-2 67 17 54 51 17 150 -55 150 -19 0 -40 -9 -55 -25z"/>
<path d="M5645 16775 c-36 -35 -35 -96 1 -124 58 -45 134 -11 134 60 0 50 -35
89 -80 89 -19 0 -40 -9 -55 -25z"/>
<path d="M5872 16784 c-12 -8 -22 -10 -22 -5 0 6 -7 11 -15 11 -12 0 -15 -16
-15 -80 0 -64 3 -80 15 -80 11 0 15 13 15 53 0 63 16 90 51 85 22 -3 24 -7 27
-70 2 -52 6 -68 17 -68 11 0 15 13 15 53 0 63 16 90 51 85 22 -3 24 -7 27 -70
2 -52 6 -68 17 -68 22 0 21 133 -1 154 -19 20 -53 20 -81 1 -18 -13 -22 -13
-33 0 -16 19 -40 19 -68 -1z"/>
<path d="M6146 16779 c-35 -28 -37 -95 -3 -127 30 -28 87 -29 111 -3 22 25 2
40 -23 17 -24 -21 -47 -20 -71 4 -33 33 -24 40 45 40 62 0 65 1 65 24 0 29
-42 66 -75 66 -12 0 -34 -9 -49 -21z"/>
<path d="M6645 16775 c-52 -52 -19 -145 51 -145 37 0 80 28 66 42 -7 7 -18 5
-33 -6 -31 -21 -45 -20 -69 4 -33 33 -24 40 45 40 61 0 65 1 65 23 0 31 -40
67 -74 67 -15 0 -37 -10 -51 -25z"/>
<path d="M7186 16779 c-35 -28 -37 -95 -3 -127 54 -51 137 -13 137 62 0 73
-76 111 -134 65z"/>
<path d="M7386 16779 c-21 -16 -26 -29 -26 -62 0 -48 6 -59 37 -76 33 -17 67
-13 97 10 20 16 26 29 26 60 0 76 -75 114 -134 68z"/>
<path d="M4473 15550 c-39 -23 -53 -48 -53 -94 0 -34 -2 -36 -35 -36 -32 0
-35 -2 -35 -30 0 -28 3 -30 35 -30 l35 0 0 -155 0 -155 30 0 30 0 0 155 0 155
45 0 c43 0 45 1 45 30 0 29 -2 30 -45 30 -43 0 -45 1 -45 28 0 46 22 67 69 65
37 -2 41 0 41 21 0 40 -63 49 -117 16z"/>
<path d="M7993 15550 c-39 -23 -53 -48 -53 -94 0 -34 -2 -36 -35 -36 -32 0
-35 -2 -35 -30 0 -28 3 -30 35 -30 l35 0 0 -155 0 -155 30 0 30 0 0 155 0 155
45 0 c43 0 45 1 45 30 0 29 -2 30 -45 30 -43 0 -45 1 -45 28 0 46 22 67 69 65
37 -2 41 0 41 21 0 40 -63 49 -117 16z"/>
<path d="M1430 15305 l0 -255 31 0 30 0 -3 215 c-2 131 1 210 6 205 5 -5 67
-101 136 -212 118 -189 129 -203 158 -206 l32 -3 0 255 0 256 -30 0 -30 0 -2
-199 -3 -199 -125 199 -125 199 -37 0 -38 0 0 -255z"/>
<path d="M3850 15305 l0 -255 30 0 c30 0 30 0 30 58 0 52 3 62 30 87 35 33 30
36 99 -67 48 -73 54 -78 87 -78 l36 0 -76 108 -75 109 70 69 c38 38 69 72 69
76 0 5 -15 8 -32 8 -28 0 -46 -14 -120 -87 l-88 -88 0 158 0 157 -30 0 -30 0
0 -255z"/>
<path d="M2360 15470 l0 -50 -35 0 c-32 0 -35 -2 -35 -30 0 -28 3 -30 35 -30
l35 0 0 -130 c0 -126 1 -132 25 -155 29 -30 109 -36 119 -9 13 35 7 43 -28 37
-54 -9 -66 19 -66 149 l0 108 45 0 c43 0 45 1 45 30 0 29 -2 30 -45 30 l-45 0
0 50 c0 47 -2 50 -25 50 -23 0 -25 -3 -25 -50z"/>
<path d="M5460 15470 l0 -50 -35 0 c-32 0 -35 -2 -35 -30 0 -28 3 -30 35 -30
l35 0 0 -130 c0 -126 1 -132 25 -156 21 -21 33 -25 73 -22 43 3 47 5 50 30 3
26 1 27 -31 21 -55 -9 -67 18 -67 149 l0 108 45 0 c43 0 45 1 45 30 0 29 -2
30 -45 30 l-45 0 0 50 c0 47 -2 50 -25 50 -23 0 -25 -3 -25 -50z"/>
<path d="M2017 15415 c-82 -29 -123 -101 -115 -205 3 -48 10 -67 34 -97 75
-94 206 -98 280 -10 l26 30 -24 13 c-20 11 -26 9 -51 -16 -53 -54 -126 -51
-177 6 -16 19 -30 46 -30 59 l0 25 140 0 c162 0 160 -1 136 84 -18 62 -55 99
-114 116 -47 13 -58 12 -105 -5z m126 -65 c14 -11 30 -33 35 -50 l11 -30 -115
0 c-115 0 -115 0 -109 23 4 12 20 34 36 50 37 34 103 38 142 7z"/>
<path d="M3261 15418 c-79 -22 -131 -95 -131 -181 0 -51 20 -109 48 -140 75
-83 226 -71 288 22 72 110 19 266 -103 300 -44 13 -56 13 -102 -1z m117 -62
c61 -33 82 -137 42 -204 -39 -63 -125 -77 -185 -30 -33 26 -47 61 -46 115 0
51 14 80 49 110 31 26 102 31 140 9z"/>
<path d="M3690 15414 c-19 -8 -43 -25 -52 -37 l-18 -22 0 33 c0 27 -4 32 -25
32 l-25 0 0 -185 0 -185 30 0 30 0 0 120 c0 87 4 129 15 150 17 33 70 54 109
44 24 -6 26 -4 26 25 0 20 -5 31 -14 31 -8 0 -20 2 -28 5 -7 2 -29 -3 -48 -11z"/>
<path d="M4727 15416 c-21 -8 -48 -22 -59 -33 -55 -49 -76 -175 -39 -243 60
-112 211 -135 292 -43 l31 36 -23 13 c-22 11 -27 10 -52 -16 -53 -54 -126 -51
-177 6 -16 19 -30 46 -30 59 l0 25 140 0 c114 0 142 3 146 14 9 24 -24 120
-48 143 -50 45 -121 60 -181 39z m126 -66 c14 -11 30 -33 35 -50 l11 -30 -115
0 c-115 0 -115 0 -109 23 4 12 20 34 36 50 37 34 103 38 142 7z"/>
<path d="M5121 15419 c-71 -21 -97 -53 -67 -79 12 -9 21 -7 44 10 62 46 157
19 175 -49 10 -41 7 -44 -27 -31 -35 13 -117 13 -151 0 -14 -5 -37 -22 -50
-36 -32 -35 -34 -103 -5 -144 41 -57 141 -65 205 -15 l35 26 0 -25 c0 -21 5
-26 25 -26 l25 0 0 139 c0 127 -2 141 -23 172 -12 19 -34 39 -48 46 -37 18
-100 23 -138 12z m135 -199 c20 -8 22 -13 14 -41 -11 -39 -26 -56 -61 -75 -36
-18 -63 -18 -99 1 -25 13 -30 21 -30 54 0 21 6 44 14 50 36 30 101 34 162 11z"/>
<path d="M6210 15414 c-19 -8 -43 -25 -52 -37 l-18 -22 0 33 c0 27 -4 32 -25
32 l-25 0 0 -185 0 -185 30 0 30 0 0 120 c0 65 5 130 11 143 16 36 64 60 105
53 33 -7 34 -6 34 24 0 19 -5 30 -14 30 -8 0 -20 2 -28 5 -7 2 -29 -3 -48 -11z"/>
<path d="M6427 15416 c-82 -30 -123 -102 -115 -206 3 -48 10 -67 34 -97 74
-93 205 -99 278 -13 l28 33 -24 13 c-20 11 -26 9 -51 -16 -53 -54 -126 -51
-177 6 -16 19 -30 46 -30 59 l0 25 140 0 c114 0 142 3 146 14 9 24 -24 120
-48 143 -50 45 -121 60 -181 39z m131 -71 c16 -14 32 -36 34 -50 l5 -25 -114
0 c-114 0 -114 0 -108 23 4 12 20 34 36 50 40 37 104 38 147 2z"/>
<path d="M6811 15420 c-51 -12 -86 -52 -86 -99 0 -63 25 -82 147 -116 36 -10
62 -23 68 -36 43 -79 -114 -110 -165 -33 -13 20 -18 22 -40 12 -23 -10 -23
-12 -9 -39 30 -58 134 -86 207 -55 48 20 69 50 71 97 1 55 -31 82 -130 111
-58 17 -79 27 -87 45 -25 56 85 92 136 45 24 -22 67 -21 67 2 0 22 -47 57 -87
67 -43 10 -46 10 -92 -1z"/>
<path d="M7370 15414 c-19 -8 -43 -25 -52 -37 l-18 -22 0 33 c0 27 -4 32 -25
32 l-25 0 0 -185 0 -185 30 0 30 0 0 120 c0 87 4 129 15 150 17 33 70 54 109
44 24 -6 26 -4 26 25 0 20 -5 31 -14 31 -8 0 -20 2 -28 5 -7 2 -29 -3 -48 -11z"/>
<path d="M7597 15416 c-75 -28 -116 -92 -117 -184 0 -66 21 -113 69 -152 70
-58 171 -53 235 12 l40 40 -24 13 c-23 12 -27 11 -53 -15 -34 -35 -86 -47
-127 -30 -39 16 -80 65 -80 96 l0 24 140 0 c114 0 142 3 146 14 9 24 -24 120
-48 143 -50 45 -121 60 -181 39z m134 -75 c16 -16 29 -39 29 -50 0 -20 -5 -21
-111 -21 -110 0 -110 0 -104 23 4 12 20 34 36 50 42 39 109 39 150 -2z"/>
<path d="M8247 15416 c-21 -8 -48 -22 -59 -33 -55 -49 -76 -175 -39 -243 60
-112 211 -135 292 -43 l31 36 -23 13 c-22 11 -27 10 -52 -16 -53 -54 -126 -51
-177 6 -16 19 -30 46 -30 59 l0 25 140 0 c114 0 142 3 146 14 9 24 -24 120
-48 143 -50 45 -121 60 -181 39z m126 -66 c14 -11 30 -33 35 -50 l11 -30 -115
0 c-115 0 -115 0 -109 23 4 12 20 34 36 50 37 34 103 38 142 7z"/>
<path d="M8680 15414 c-19 -8 -43 -25 -52 -37 l-18 -22 0 33 c0 27 -4 32 -25
32 l-25 0 0 -185 0 -185 30 0 30 0 0 125 c0 98 4 131 16 150 19 29 72 48 108
39 24 -6 26 -4 26 25 0 20 -5 31 -14 31 -8 0 -20 2 -28 5 -7 2 -29 -3 -48 -11z"/>
<path d="M8907 15416 c-82 -30 -123 -102 -115 -206 3 -48 10 -67 34 -97 74
-93 205 -99 278 -13 l28 33 -24 13 c-20 11 -26 9 -51 -16 -53 -54 -126 -51
-177 6 -16 19 -30 46 -30 59 l0 25 140 0 c114 0 142 3 146 14 9 24 -24 120
-48 143 -50 45 -121 60 -181 39z m131 -71 c16 -14 32 -36 34 -50 l5 -25 -114
0 c-114 0 -114 0 -108 23 4 12 20 34 36 50 40 37 104 38 147 2z"/>
<path d="M9355 15420 c-17 -5 -40 -19 -52 -30 -29 -26 -33 -25 -33 5 0 20 -5
25 -25 25 l-25 0 0 -185 0 -185 30 0 30 0 0 131 0 131 29 29 c24 23 38 29 75
29 36 0 48 -5 65 -26 19 -24 21 -40 21 -160 l0 -134 30 0 30 0 0 138 c0 110
-3 144 -18 172 -26 52 -95 79 -157 60z"/>
<path d="M9733 15420 c-51 -12 -99 -55 -118 -104 -25 -66 -17 -153 19 -200 71
-94 207 -102 280 -16 l28 33 -24 13 c-21 11 -26 9 -54 -17 -84 -81 -208 -16
-206 107 1 85 47 134 125 134 42 0 53 -5 78 -31 21 -22 34 -29 49 -24 24 8 25
23 4 53 -30 44 -116 68 -181 52z"/>
<path d="M10107 15416 c-82 -30 -123 -102 -115 -206 3 -48 10 -67 34 -97 74
-93 205 -99 278 -13 l28 33 -24 13 c-20 11 -26 9 -51 -16 -53 -54 -126 -51
-177 6 -16 19 -30 46 -30 59 l0 25 140 0 c114 0 142 3 146 14 9 24 -24 120
-48 143 -50 45 -121 60 -181 39z m131 -71 c16 -14 32 -36 34 -50 l5 -25 -114
0 c-114 0 -114 0 -108 23 4 12 20 34 36 50 40 37 104 38 147 2z"/>
<path d="M2550 15415 c0 -4 26 -88 57 -186 l57 -180 30 3 c30 3 31 6 77 148
54 165 44 168 104 -27 38 -123 38 -123 69 -123 l31 0 54 173 c30 94 57 178 59
185 3 7 -6 12 -22 12 -31 0 -31 0 -84 -170 l-38 -125 -47 148 c-47 145 -48
147 -77 147 -29 0 -30 -2 -76 -147 l-47 -148 -34 110 c-55 179 -55 180 -86
183 -15 2 -27 0 -27 -3z"/>
<path d="M5677 15413 c-12 -11 -6 -246 7 -288 27 -92 144 -114 224 -42 l22 20
0 -26 c0 -23 4 -27 29 -27 l30 0 -2 183 -2 182 -27 3 -28 3 0 -116 c0 -131
-12 -170 -59 -198 -40 -24 -75 -21 -108 7 -28 24 -28 25 -31 165 -3 139 -4
141 -26 141 -13 0 -26 -3 -29 -7z"/>
<path d="M1790 14405 c0 -69 4 -125 9 -125 5 0 11 5 13 11 2 7 12 7 30 -2 23
-10 31 -9 52 4 70 46 24 192 -50 158 -35 -15 -34 -16 -34 34 0 25 -4 45 -10
45 -6 0 -10 -48 -10 -125z"/>
<path d="M2780 14484 c0 -40 -2 -45 -17 -39 -42 17 -53 16 -77 -9 -36 -35 -36
-97 -1 -131 27 -28 37 -30 68 -14 16 9 22 9 25 0 2 -6 8 -11 13 -11 5 0 9 56
9 125 0 77 -4 125 -10 125 -5 0 -10 -21 -10 -46z"/>
<path d="M4170 14485 c0 -44 0 -44 -26 -35 -36 14 -42 13 -69 -15 -35 -34 -35
-96 0 -130 27 -28 33 -29 69 -15 17 6 26 6 26 0 0 -6 5 -10 10 -10 6 0 10 48
10 125 0 77 -4 125 -10 125 -5 0 -10 -20 -10 -45z"/>
<path d="M7530 14485 c0 -44 0 -44 -26 -35 -36 14 -42 13 -69 -15 -19 -18 -25
-35 -25 -65 0 -30 6 -47 25 -65 27 -28 33 -29 69 -15 17 6 26 6 26 0 0 -6 5
-10 10 -10 6 0 10 48 10 125 0 77 -4 125 -10 125 -5 0 -10 -20 -10 -45z"/>
<path d="M8170 14485 c0 -44 0 -44 -26 -35 -36 14 -42 13 -69 -15 -19 -18 -25
-35 -25 -65 0 -30 6 -47 25 -65 27 -28 33 -29 69 -15 17 6 26 6 26 0 0 -6 5
-10 10 -10 6 0 10 48 10 125 0 77 -4 125 -10 125 -5 0 -10 -20 -10 -45z"/>
<path d="M9280 14484 c0 -40 -2 -45 -17 -39 -42 17 -53 16 -77 -9 -36 -35 -36
-97 -1 -131 27 -28 37 -30 68 -14 16 9 22 9 25 0 2 -6 8 -11 13 -11 5 0 9 56
9 125 0 77 -4 125 -10 125 -5 0 -10 -21 -10 -46z"/>
<path d="M1400 14401 c0 -101 2 -121 15 -121 11 0 15 12 15 50 l0 50 48 0 c57
0 82 20 82 67 0 45 -30 66 -100 71 l-60 4 0 -121z"/>
<path d="M3400 14400 c0 -73 4 -120 10 -120 6 0 10 39 10 97 0 55 4 93 9 88 4
-6 24 -49 42 -97 19 -49 38 -86 44 -85 5 2 25 41 43 88 19 46 37 88 41 92 5 5
6 -35 3 -87 -4 -84 -3 -96 12 -96 14 0 16 16 16 120 0 110 -1 120 -19 120 -14
0 -27 -21 -54 -92 -19 -51 -39 -92 -44 -92 -4 1 -24 43 -43 93 -26 67 -39 91
-52 91 -16 0 -18 -12 -18 -120z"/>
<path d="M4793 14503 c-3 -10 -15 -40 -26 -68 -46 -117 -56 -155 -43 -155 6 0
18 16 25 35 12 36 13 36 64 33 48 -3 52 -5 61 -35 5 -18 15 -33 22 -33 8 0 14
1 14 3 0 1 -20 54 -44 117 -44 115 -60 138 -73 103z"/>
<path d="M6209 14501 c-22 -17 -24 -27 -24 -101 0 -75 2 -83 25 -102 25 -20
73 -19 94 2 12 12 20 119 12 163 -10 53 -65 72 -107 38z m75 -23 c21 -30 21
-126 0 -156 -20 -29 -54 -25 -72 8 -19 35 -9 140 14 157 25 19 41 16 58 -9z"/>
<path d="M9899 14493 c-57 -146 -77 -213 -65 -213 7 0 17 15 22 33 9 31 11 32
64 32 53 0 55 -1 64 -32 5 -18 15 -33 22 -33 8 0 14 1 14 3 -1 19 -91 232 -99
235 -6 2 -16 -9 -22 -25z"/>
<path d="M11129 14501 c-22 -17 -24 -27 -24 -101 0 -75 2 -83 25 -102 28 -23
75 -18 96 10 14 17 19 128 8 168 -6 21 -41 44 -68 44 -8 0 -24 -9 -37 -19z
m75 -23 c10 -14 16 -44 16 -78 0 -61 -19 -100 -49 -100 -33 0 -46 29 -46 102
0 57 3 72 19 84 27 20 42 18 60 -8z"/>
<path d="M2973 14450 c-28 -12 -43 -40 -43 -83 0 -50 29 -81 75 -81 48 0 75
31 75 84 0 63 -53 102 -107 80z"/>
<path d="M3723 14450 c-28 -12 -43 -40 -43 -83 0 -50 29 -81 75 -81 48 0 75
31 75 84 0 63 -53 102 -107 80z"/>
<path d="M4269 14441 c-13 -11 -21 -22 -17 -26 4 -4 14 0 23 9 19 19 46 21 63
4 22 -22 12 -35 -30 -41 -67 -9 -91 -62 -43 -93 22 -14 30 -15 53 -5 18 9 28
9 30 2 2 -6 9 -11 15 -11 8 0 11 23 9 75 -3 63 -7 77 -25 90 -29 20 -50 19
-78 -4z"/>
<path d="M4940 14335 c0 -77 4 -125 10 -125 6 0 10 20 10 45 0 50 -1 49 34 34
75 -34 121 111 50 157 -21 14 -29 15 -52 5 -18 -9 -28 -9 -30 -2 -2 6 -8 11
-13 11 -5 0 -9 -56 -9 -125z"/>
<path d="M7230 14335 c0 -77 4 -125 10 -125 6 0 10 21 10 46 0 40 2 45 18 39
41 -17 52 -16 76 9 60 59 9 179 -62 146 -19 -8 -28 -8 -30 -1 -2 6 -8 11 -13
11 -5 0 -9 -56 -9 -125z"/>
<path d="M7629 14441 c-13 -11 -21 -22 -17 -26 4 -4 14 0 23 9 19 19 46 21 63
4 22 -22 12 -35 -30 -41 -67 -9 -91 -62 -43 -93 22 -14 30 -15 53 -5 18 9 28
9 30 2 2 -6 9 -11 15 -11 8 0 11 23 9 75 -3 63 -7 77 -25 90 -29 20 -50 19
-78 -4z"/>
<path d="M8373 14450 c-28 -12 -43 -40 -43 -83 0 -50 29 -81 75 -81 47 0 75
31 75 83 -1 63 -53 103 -107 81z"/>
<path d="M9379 14441 c-13 -11 -21 -23 -17 -27 5 -4 16 0 26 9 22 20 43 22 60
5 22 -22 12 -35 -30 -42 -23 -4 -48 -12 -55 -18 -22 -18 -15 -56 12 -74 22
-14 30 -15 53 -5 18 9 28 9 30 2 2 -6 9 -11 15 -11 8 0 11 23 9 75 -3 63 -7
77 -25 90 -29 20 -50 19 -78 -4z"/>
<path d="M10040 14335 c0 -77 4 -125 10 -125 6 0 10 20 10 44 l0 45 30 -11
c80 -28 128 110 54 158 -21 14 -29 15 -52 5 -18 -9 -28 -9 -30 -2 -2 6 -8 11
-13 11 -5 0 -9 -56 -9 -125z"/>
<path d="M1693 13096 c-92 -30 -184 -107 -236 -197 -38 -68 -50 -128 -45 -232
3 -76 9 -103 32 -150 41 -84 115 -161 193 -199 58 -28 79 -33 164 -36 104 -5
149 1 149 19 0 6 -9 13 -20 16 -11 3 -20 9 -20 14 0 5 -12 9 -26 9 -17 0 -36
10 -50 28 -25 28 -31 52 -14 52 6 0 10 -4 10 -10 0 -5 23 -10 50 -10 28 0 50
5 50 10 0 6 14 10 30 10 17 0 30 5 30 10 0 6 9 10 20 10 16 0 20 -7 20 -30 0
-16 -5 -30 -11 -30 -5 0 -7 -4 -4 -10 3 -5 2 -10 -4 -10 -6 0 -7 -7 -4 -17 5
-12 3 -14 -7 -8 -9 5 -11 4 -6 -3 4 -7 14 -12 22 -12 8 0 12 4 9 10 -3 5 0 7
8 5 15 -6 82 44 120 90 13 17 37 55 53 85 27 52 29 62 29 180 0 121 -1 127
-33 192 -41 83 -107 149 -191 191 -59 29 -75 32 -171 34 -68 2 -120 -2 -147
-11z m217 -76 c0 -5 16 -10 35 -10 36 0 85 -32 85 -57 0 -7 7 -13 15 -13 8 0
15 -9 15 -20 0 -11 -7 -20 -15 -20 -8 0 -15 -4 -15 -10 0 -5 -7 -10 -16 -10
-23 0 -44 -25 -44 -54 0 -22 -5 -26 -32 -27 -18 -1 -37 -1 -41 0 -5 1 -6 -3
-2 -9 3 -5 15 -10 26 -10 20 0 54 -16 76 -37 15 -14 18 -93 3 -93 -5 0 -10
-16 -10 -36 0 -38 -23 -67 -61 -79 -13 -4 -19 -16 -19 -36 0 -16 -4 -29 -10
-29 -5 0 -10 -7 -10 -15 0 -8 -9 -15 -20 -15 -11 0 -20 7 -20 15 0 8 -4 15
-10 15 -5 0 -10 6 -10 14 0 14 -21 26 -47 26 -19 0 -43 24 -43 44 0 9 -4 16
-10 16 -5 0 -10 9 -10 20 0 11 -4 20 -10 20 -5 0 -10 24 -10 53 0 41 -4 56
-20 67 -11 8 -20 22 -20 31 0 10 -6 20 -12 23 -10 5 -10 7 0 12 6 3 12 21 12
41 0 26 8 42 30 63 19 18 30 38 30 55 0 18 6 29 20 32 11 3 20 9 20 14 0 5 20
9 45 9 25 0 45 5 45 10 0 6 14 10 30 10 17 0 30 -4 30 -10z"/>
<path d="M9310 13080 c0 -5 -20 -10 -45 -10 -25 0 -45 -4 -45 -10 0 -5 -7 -10
-15 -10 -20 0 -65 -45 -65 -65 0 -8 -4 -15 -10 -15 -5 0 -10 -16 -10 -35 0
-19 -4 -35 -10 -35 -13 0 -13 -77 0 -82 5 -1 10 -31 11 -66 1 -34 6 -65 11
-68 4 -3 8 -27 8 -55 0 -27 5 -49 10 -49 17 0 11 -25 -10 -40 -11 -8 -20 -22
-20 -32 0 -10 -4 -18 -10 -18 -5 0 -10 -15 -10 -34 0 -19 -6 -36 -12 -39 -10
-3 -9 -8 2 -22 9 -11 10 -16 3 -11 -8 4 -13 2 -13 -6 0 -20 77 -66 138 -84 37
-11 83 -15 150 -12 85 3 105 7 162 35 36 17 81 45 100 62 34 30 34 31 13 37
-13 4 -23 13 -23 20 0 8 -6 14 -12 14 -9 0 -8 4 2 10 13 8 12 10 -3 10 -11 0
-15 4 -11 12 4 7 3 8 -5 4 -6 -4 -14 0 -17 8 -4 10 -18 16 -35 16 -22 0 -29 5
-29 19 0 11 6 22 13 24 10 4 10 6 0 6 -7 1 -13 12 -13 26 0 14 -4 25 -10 25
-5 0 -10 -7 -10 -15 0 -8 -4 -15 -10 -15 -5 0 -10 -5 -10 -10 0 -17 -47 -60
-65 -60 -8 0 -15 -4 -15 -10 0 -5 -9 -10 -20 -10 -11 0 -20 -4 -20 -10 0 -17
-60 -11 -81 9 l-21 19 31 7 c28 6 31 10 31 43 0 27 -3 33 -10 22 -8 -12 -10
-12 -15 2 -4 10 -4 22 0 28 3 5 -1 13 -9 16 -13 5 -16 23 -16 84 0 95 -5 110
-36 110 -25 0 -33 15 -11 23 10 4 10 6 0 6 -9 1 -13 20 -13 61 l0 60 55 0 c30
0 55 5 55 10 0 6 18 10 40 10 22 0 40 -4 40 -10 0 -5 9 -10 20 -10 11 0 20 -6
20 -13 0 -7 9 -19 20 -27 13 -9 20 -26 20 -47 0 -18 5 -33 10 -33 6 0 10 -11
10 -25 0 -14 5 -25 10 -25 6 0 10 -13 10 -30 0 -16 5 -30 10 -30 6 0 10 9 10
20 0 11 7 20 15 20 12 0 15 16 15 80 0 64 -3 80 -15 80 -8 0 -15 9 -15 20 0
24 -62 90 -85 90 -8 0 -15 5 -15 10 0 6 -9 10 -20 10 -11 0 -20 5 -20 10 0 6
-18 10 -40 10 -22 0 -40 -4 -40 -10z"/>
<path d="M2690 12940 c0 -100 3 -120 15 -120 11 0 15 12 15 44 0 25 6 48 14
55 12 10 22 2 56 -43 24 -31 49 -56 57 -56 17 0 14 6 -40 77 -21 29 -37 57
-35 62 1 5 22 30 46 55 32 35 39 46 25 46 -10 0 -41 -26 -70 -57 l-52 -58 -1
58 c0 44 -3 57 -15 57 -12 0 -15 -20 -15 -120z"/>
<path d="M3670 12941 l0 -121 53 0 c71 0 97 19 97 70 0 26 -6 42 -17 48 -16 9
-16 11 0 27 21 20 22 45 3 70 -10 13 -30 20 -75 23 l-61 4 0 -121z"/>
<path d="M2924 12990 c-23 -9 -40 -40 -22 -40 6 0 20 7 30 17 15 13 23 14 43
5 38 -18 31 -39 -15 -45 -23 -3 -47 -11 -55 -17 -21 -18 -18 -54 5 -75 17 -15
26 -17 55 -8 20 6 35 7 35 2 0 -5 6 -9 13 -9 9 0 12 18 9 73 -5 95 -33 123
-98 97z"/>
<path d="M3904 12990 c-25 -10 -40 -40 -20 -40 7 0 19 7 26 15 16 19 35 19 54
-1 24 -24 20 -31 -24 -37 -23 -3 -47 -11 -55 -17 -21 -18 -18 -54 5 -75 17
-15 26 -17 55 -8 20 6 35 7 35 2 0 -5 6 -9 13 -9 9 0 12 18 9 73 -5 95 -33
123 -98 97z"/>
<path d="M4246 12979 c-24 -19 -27 -27 -24 -72 2 -41 8 -54 31 -71 23 -17 32
-19 57 -9 l30 11 0 -44 c0 -24 5 -44 10 -44 6 0 10 48 10 125 0 77 -4 125 -10
125 -5 0 -10 -5 -10 -10 0 -7 -6 -7 -19 0 -29 15 -45 12 -75 -11z"/>
<path d="M10453 12990 c-29 -12 -43 -40 -43 -89 0 -31 6 -44 26 -60 57 -45
124 -7 124 69 0 30 -6 47 -25 65 -25 26 -45 30 -82 15z"/>
<path d="M10834 12990 c-23 -9 -40 -40 -22 -40 6 0 20 7 30 17 15 13 23 14 43
5 38 -18 31 -39 -15 -45 -49 -6 -70 -22 -70 -52 0 -43 49 -67 91 -45 13 7 19
7 19 0 0 -5 6 -10 13 -10 19 0 10 139 -11 163 -16 18 -44 21 -78 7z"/>
<path d="M11260 12910 c0 -73 3 -90 15 -90 12 0 15 14 15 70 0 65 2 71 25 82
41 18 55 -3 55 -83 0 -55 3 -69 15 -69 12 0 15 14 15 70 0 59 3 71 20 80 14 8
26 8 40 0 17 -9 20 -21 20 -80 0 -56 3 -70 15 -70 12 0 15 13 15 59 0 33 -4
71 -10 85 -12 33 -52 43 -84 22 -21 -13 -26 -13 -36 -1 -15 17 -43 19 -71 5
-13 -7 -19 -7 -19 0 0 5 -7 10 -15 10 -12 0 -15 -17 -15 -90z"/>
<path d="M11923 12988 c-23 -11 -39 -38 -22 -38 5 0 20 7 34 16 18 12 28 13
44 4 34 -18 25 -37 -19 -43 -50 -6 -70 -22 -70 -53 0 -35 41 -59 80 -46 18 7
30 7 30 1 0 -5 6 -9 13 -9 9 0 12 18 9 73 -5 96 -36 126 -99 95z"/>
<path d="M12303 12990 c-49 -20 -60 -104 -18 -145 51 -52 125 -13 125 65 0 30
-6 47 -25 65 -25 26 -45 30 -82 15z"/>
<path d="M12654 12990 c-23 -9 -40 -40 -22 -40 6 0 20 7 30 17 15 13 23 14 43
5 38 -18 31 -39 -15 -45 -49 -6 -70 -22 -70 -52 0 -43 49 -67 91 -45 13 7 19
7 19 0 0 -5 6 -10 13 -10 19 0 10 139 -11 163 -16 18 -44 21 -78 7z"/>
<path d="M11712 12518 c33 -141 39 -159 50 -156 7 3 24 47 39 99 15 52 30 87
33 79 6 -18 46 -167 46 -175 0 -3 6 -5 13 -5 14 0 73 228 62 238 -12 12 -23
-17 -40 -101 -10 -48 -21 -84 -25 -80 -4 4 -17 46 -29 93 -12 46 -24 86 -27
89 -10 10 -23 -18 -45 -103 -26 -100 -28 -99 -55 27 -10 46 -21 77 -29 77 -9
0 -8 -20 7 -82z"/>
<path d="M3859 12521 c-13 -11 -21 -23 -17 -27 5 -4 16 0 26 9 22 20 43 22 60
5 22 -22 12 -35 -30 -42 -23 -4 -48 -12 -55 -18 -22 -18 -15 -56 12 -74 22
-14 30 -15 53 -5 18 9 28 9 30 2 2 -6 9 -11 15 -11 8 0 11 23 9 75 -3 63 -7
77 -25 90 -29 20 -50 19 -78 -4z"/>
<path d="M5019 12521 c-13 -11 -21 -22 -17 -26 4 -4 14 0 23 9 19 19 46 21 63
4 22 -22 12 -35 -30 -42 -23 -4 -48 -12 -55 -18 -22 -18 -15 -56 12 -74 22
-14 30 -15 53 -5 18 9 28 9 30 2 2 -6 9 -11 15 -11 8 0 11 23 9 75 -3 63 -7
77 -25 90 -29 20 -50 19 -78 -4z"/>
<path d="M11379 12521 c-13 -11 -21 -23 -17 -27 5 -4 16 0 26 9 22 20 43 22
60 5 22 -22 12 -35 -30 -42 -23 -4 -48 -12 -55 -18 -22 -18 -15 -56 12 -74 22
-14 30 -15 53 -5 18 9 28 9 30 2 2 -6 9 -11 15 -11 8 0 11 23 9 75 -3 63 -7
77 -25 90 -29 20 -50 19 -78 -4z"/>
<path d="M12953 12530 c-28 -12 -43 -40 -43 -83 0 -50 29 -81 75 -81 48 0 75
31 75 84 0 63 -53 102 -107 80z"/>
<path d="M13143 12530 c-28 -12 -43 -40 -43 -83 0 -50 29 -81 75 -81 48 0 75
31 75 84 0 63 -53 102 -107 80z"/>
<path d="M13305 12515 c-35 -34 -35 -96 1 -131 24 -25 35 -26 77 -9 24 10 23
-27 -3 -50 -18 -17 -30 -17 -75 0 -18 7 -18 6 -5 -8 26 -28 63 -30 93 -7 26
21 27 24 27 126 0 63 -4 104 -10 104 -5 0 -10 -4 -10 -10 0 -6 -9 -6 -26 0
-36 14 -42 13 -69 -15z"/>
<path d="M14343 12530 c-28 -12 -43 -40 -43 -83 0 -50 29 -81 75 -81 48 0 75
31 75 84 0 63 -53 102 -107 80z"/>
<path d="M1730 10935 c0 -93 3 -115 14 -115 8 0 16 6 19 13 4 10 7 10 18 0 18
-18 60 -16 86 2 44 31 35 131 -12 149 -25 9 -63 7 -70 -4 -13 -22 -25 -8 -25
30 0 29 -4 40 -15 40 -12 0 -15 -19 -15 -115z"/>
<path d="M1571 10976 c-15 -8 -20 -16 -13 -20 7 -4 20 -2 31 4 27 14 37 13 55
-6 26 -25 19 -33 -30 -36 -58 -4 -80 -29 -61 -68 14 -28 54 -38 87 -20 13 7
20 7 20 0 0 -5 7 -10 15 -10 25 0 21 124 -5 150 -23 23 -64 25 -99 6z"/>
<path d="M2036 10969 c-21 -16 -26 -29 -26 -63 0 -54 28 -86 73 -86 39 0 84
27 69 42 -7 7 -18 5 -33 -6 -13 -9 -29 -16 -36 -16 -16 0 -54 41 -47 52 3 4
32 8 65 8 56 0 59 1 59 25 0 31 -36 65 -71 65 -14 0 -38 -9 -53 -21z"/>
<path d="M2306 10969 c-35 -28 -37 -95 -3 -127 54 -51 137 -13 137 62 0 73
-76 111 -134 65z"/>
<path d="M2896 10969 c-35 -28 -37 -95 -3 -127 32 -30 87 -29 115 1 33 35 30
99 -4 126 -15 12 -39 21 -54 21 -15 0 -39 -9 -54 -21z"/>
<path d="M3406 10969 c-35 -28 -37 -95 -3 -127 30 -28 87 -29 111 -3 23 25 4
37 -26 17 -12 -9 -28 -16 -35 -16 -13 0 -53 39 -53 52 0 4 29 8 65 8 61 0 65
1 65 23 0 30 -39 67 -72 67 -14 0 -37 -9 -52 -21z"/>
<path d="M6450 9540 c0 -133 1 -140 20 -140 18 0 20 7 20 80 0 77 1 80 25 86
48 12 55 1 55 -86 0 -73 2 -80 20 -80 18 0 20 7 20 64 0 112 -33 156 -96 127
-24 -10 -24 -10 -24 39 0 43 -3 50 -20 50 -19 0 -20 -7 -20 -140z"/>
<path d="M9600 9630 c0 -49 0 -49 -24 -39 -57 26 -106 -20 -106 -101 0 -68 57
-109 111 -80 13 7 19 7 19 0 0 -5 7 -10 15 -10 13 0 15 22 15 140 0 118 -2
140 -15 140 -11 0 -15 -12 -15 -50z"/>
<path d="M10450 9540 c0 -133 1 -140 20 -140 18 0 20 7 20 80 0 77 1 80 25 86
48 12 55 1 55 -86 0 -73 2 -80 20 -80 18 0 20 7 20 64 0 112 -33 156 -96 127
-24 -10 -24 -10 -24 39 0 43 -3 50 -20 50 -19 0 -20 -7 -20 -140z"/>
<path d="M12280 9540 c0 -133 1 -140 20 -140 18 0 20 7 20 80 0 77 1 80 25 86
48 12 55 1 55 -86 0 -73 2 -80 20 -80 18 0 20 7 20 64 0 112 -33 156 -96 127
-24 -10 -24 -10 -24 39 0 43 -3 50 -20 50 -19 0 -20 -7 -20 -140z"/>
<path d="M1400 9535 l0 -135 45 0 c95 0 145 46 145 135 0 89 -50 135 -145 135
l-45 0 0 -135z m129 86 c27 -27 36 -84 22 -132 -13 -44 -35 -59 -85 -59 l-36
0 0 105 0 105 40 0 c26 0 47 -7 59 -19z"/>
<path d="M2144 9588 c-28 -13 -44 -49 -44 -98 0 -30 6 -43 31 -64 17 -14 39
-26 49 -26 84 0 122 109 61 171 -30 30 -60 35 -97 17z"/>
<path d="M2525 9577 c-20 -16 -28 -35 -32 -69 -5 -42 -3 -50 25 -78 20 -19 41
-30 59 -30 33 0 76 27 67 42 -4 6 -10 6 -17 -1 -20 -20 -75 -13 -91 11 -9 12
-16 26 -16 30 0 5 29 8 65 8 l65 0 0 30 c0 38 -39 80 -74 80 -14 0 -37 -10
-51 -23z"/>
<path d="M2910 9500 c0 -93 1 -100 20 -100 18 0 20 7 20 80 0 77 1 80 25 86
48 12 55 1 55 -86 0 -73 2 -80 20 -80 18 0 20 7 20 64 0 114 -33 156 -98 126
-18 -8 -28 -8 -30 -1 -2 6 -10 11 -18 11 -11 0 -14 -20 -14 -100z"/>
<path d="M3170 9587 c-56 -28 -67 -111 -21 -158 33 -33 74 -38 109 -13 27 18
20 39 -8 24 -31 -17 -68 -12 -84 12 -9 12 -16 26 -16 30 0 5 29 8 65 8 l65 0
0 30 c0 35 -38 80 -67 80 -10 0 -29 -6 -43 -13z"/>
<path d="M3320 9598 c0 -2 13 -46 28 -98 17 -59 33 -95 41 -95 8 0 22 28 34
68 11 37 23 67 26 67 3 0 15 -30 26 -68 13 -41 26 -67 34 -67 9 0 24 34 41 95
15 52 26 97 24 99 -2 2 -10 1 -17 -2 -8 -3 -20 -33 -27 -71 -7 -36 -16 -66
-20 -66 -4 0 -16 30 -27 68 -12 40 -26 67 -34 67 -8 0 -22 -28 -35 -70 -21
-68 -22 -69 -33 -42 -6 16 -11 31 -11 35 0 28 -24 82 -35 82 -8 0 -15 -1 -15
-2z"/>
<path d="M3690 9598 c0 -2 13 -46 28 -98 17 -59 33 -95 41 -95 8 0 22 28 34
68 11 37 23 67 26 67 3 0 15 -30 26 -68 13 -41 26 -67 34 -67 9 0 24 34 41 95
15 52 26 97 24 99 -2 2 -10 1 -17 -2 -8 -3 -20 -33 -27 -71 -7 -36 -16 -66
-20 -66 -4 0 -16 30 -27 68 -12 39 -26 67 -33 67 -8 0 -23 -30 -35 -70 -22
-69 -22 -69 -34 -42 -6 16 -11 31 -11 35 0 28 -24 82 -35 82 -8 0 -15 -1 -15
-2z"/>
<path d="M4032 9590 c-23 -10 -39 -36 -28 -47 3 -3 15 2 25 11 27 24 75 18 79
-10 3 -18 -3 -22 -38 -27 -23 -3 -50 -13 -61 -23 -47 -43 8 -111 71 -87 17 6
32 7 36 2 3 -5 11 -9 17 -9 9 0 11 23 7 86 -4 70 -9 88 -24 100 -22 16 -50 17
-84 4z"/>
<path d="M4824 9588 c-27 -13 -44 -49 -44 -94 0 -41 45 -94 79 -94 85 0 124
109 62 171 -30 30 -60 35 -97 17z"/>
<path d="M5122 9590 c-23 -10 -39 -36 -28 -47 3 -3 15 2 25 11 27 25 75 18 79
-11 3 -20 -1 -23 -31 -23 -77 0 -115 -76 -55 -110 22 -12 33 -12 58 -3 16 6
30 7 30 2 0 -5 8 -9 18 -9 15 0 16 9 12 86 -4 70 -9 88 -24 100 -22 16 -50 17
-84 4z"/>
<path d="M5280 9500 c0 -93 1 -100 20 -100 18 0 20 7 20 80 0 77 1 80 25 86
48 12 55 1 55 -86 0 -73 2 -80 20 -80 18 0 20 7 20 64 0 117 -36 161 -102 123
-24 -14 -28 -14 -28 -2 0 8 -7 15 -15 15 -12 0 -15 -18 -15 -100z"/>
<path d="M5532 9590 c-23 -10 -39 -36 -28 -47 3 -3 15 2 25 11 27 25 75 18 79
-11 3 -20 -1 -23 -31 -23 -77 0 -115 -76 -55 -110 22 -12 33 -12 58 -3 17 6
32 7 36 2 3 -5 11 -9 17 -9 9 0 11 23 7 86 -4 70 -9 88 -24 100 -22 16 -50 17
-84 4z"/>
<path d="M6210 9587 c-56 -28 -67 -111 -21 -158 33 -33 74 -38 109 -13 27 18
20 39 -8 24 -31 -17 -68 -12 -84 12 -9 12 -16 26 -16 30 0 5 29 8 65 8 l65 0
0 30 c0 35 -38 80 -67 80 -10 0 -29 -6 -43 -13z"/>
<path d="M6704 9588 c-28 -13 -44 -49 -44 -98 0 -30 6 -43 31 -64 17 -14 39
-26 49 -26 84 0 122 109 61 171 -30 30 -60 35 -97 17z"/>
<path d="M6886 9513 c13 -49 26 -94 29 -101 11 -28 29 -3 51 69 12 40 23 72
24 69 14 -61 49 -145 60 -145 16 0 72 188 57 194 -14 5 -26 -18 -38 -81 -6
-32 -15 -58 -19 -58 -4 0 -16 30 -27 68 -12 40 -26 67 -34 67 -8 0 -22 -28
-35 -70 -21 -68 -22 -69 -33 -42 -6 16 -11 31 -11 35 0 27 -23 82 -35 82 -10
0 -8 -19 11 -87z"/>
<path d="M7474 9588 c-27 -13 -44 -49 -44 -94 0 -41 45 -94 79 -94 85 0 124
109 62 171 -30 30 -60 35 -97 17z"/>
<path d="M7640 9541 c0 -86 9 -117 37 -132 19 -10 31 -11 56 -1 21 8 33 9 35
2 2 -5 10 -10 18 -10 11 0 14 20 14 100 0 93 -1 100 -20 100 -17 0 -19 -8 -22
-82 l-3 -83 -29 -3 c-43 -5 -51 10 -47 93 2 70 1 75 -18 75 -19 0 -21 -6 -21
-59z"/>
<path d="M8060 9460 c0 -118 2 -140 15 -140 11 0 15 12 15 49 l0 49 29 -11
c57 -21 101 20 101 94 0 70 -52 115 -106 90 -15 -6 -24 -7 -24 -1 0 6 -7 10
-15 10 -13 0 -15 -22 -15 -140z"/>
<path d="M8302 9590 c-23 -10 -39 -36 -28 -47 3 -3 15 2 25 11 27 25 75 18 79
-11 3 -20 -1 -23 -31 -23 -77 0 -115 -76 -55 -110 22 -12 33 -12 58 -3 16 6
30 7 30 2 0 -5 8 -9 18 -9 15 0 16 9 12 86 -4 70 -9 88 -24 100 -22 16 -50 17
-84 4z"/>
<path d="M8512 9593 c-19 -7 -42 -58 -42 -93 0 -71 52 -116 106 -91 22 9 24 8
24 -12 0 -43 -45 -61 -90 -37 -23 12 -35 -3 -16 -19 8 -7 30 -15 49 -18 29 -4
40 -1 61 20 25 25 26 31 26 142 0 96 -3 115 -15 115 -8 0 -15 -5 -15 -10 0 -7
-6 -7 -19 0 -21 11 -47 12 -69 3z"/>
<path d="M8734 9590 c-33 -13 -54 -50 -54 -93 0 -74 80 -122 138 -81 27 18 20
39 -8 24 -31 -17 -68 -12 -84 12 -9 12 -16 26 -16 30 0 5 29 8 65 8 l65 0 0
30 c0 19 -9 40 -25 55 -25 26 -45 30 -81 15z"/>
<path d="M9094 9588 c-27 -13 -44 -49 -44 -94 0 -41 45 -94 79 -94 85 0 124
109 62 171 -30 30 -60 35 -97 17z"/>
<path d="M9302 9590 c-23 -10 -39 -36 -28 -47 3 -3 15 2 25 11 27 25 75 18 79
-11 3 -20 -1 -23 -31 -23 -77 0 -115 -76 -55 -110 22 -12 33 -12 58 -3 17 6
32 7 36 2 3 -5 11 -9 17 -9 9 0 11 23 7 86 -4 70 -9 88 -24 100 -22 16 -50 17
-84 4z"/>
<path d="M10030 9500 c0 -93 1 -100 20 -100 18 0 20 7 20 80 0 77 1 80 25 86
48 12 55 1 55 -86 0 -73 2 -80 20 -80 18 0 20 7 20 64 0 114 -33 156 -98 126
-18 -8 -28 -8 -30 -1 -2 6 -10 11 -18 11 -11 0 -14 -20 -14 -100z"/>
<path d="M11244 9588 c-28 -13 -44 -49 -44 -98 0 -30 6 -43 31 -64 17 -14 39
-26 49 -26 84 0 122 109 61 171 -30 30 -60 35 -97 17z"/>
<path d="M11410 9500 c0 -93 1 -100 20 -100 17 0 19 8 22 83 l3 82 35 0 35 0
3 -82 c3 -75 5 -83 22 -83 18 0 20 7 20 79 0 83 5 91 51 91 26 0 39 -37 39
-111 0 -46 3 -59 15 -59 12 0 15 14 15 64 0 117 -36 161 -103 123 -26 -16 -30
-16 -54 0 -21 14 -30 15 -56 5 -21 -8 -33 -9 -35 -2 -2 5 -10 10 -18 10 -11 0
-14 -20 -14 -100z"/>
<path d="M11750 9460 c0 -118 2 -140 15 -140 11 0 15 12 15 49 l0 49 29 -11
c57 -21 101 20 101 94 0 70 -52 115 -106 90 -15 -6 -24 -7 -24 -1 0 6 -7 10
-15 10 -13 0 -15 -22 -15 -140z"/>
<path d="M12130 9587 c-56 -28 -67 -111 -21 -158 33 -33 74 -38 109 -13 27 18
20 39 -8 24 -31 -17 -68 -12 -84 12 -9 12 -16 26 -16 30 0 5 29 8 65 8 l65 0
0 30 c0 35 -38 80 -67 80 -10 0 -29 -6 -43 -13z"/>
<path d="M12525 9577 c-20 -16 -28 -35 -32 -69 -5 -42 -3 -50 25 -78 20 -19
41 -30 59 -30 33 0 76 27 67 42 -4 6 -10 6 -17 -1 -20 -20 -75 -13 -91 11 -9
12 -16 26 -16 30 0 5 29 8 65 8 l65 0 0 30 c0 38 -39 80 -74 80 -14 0 -37 -10
-51 -23z"/>
<path d="M12700 9500 c0 -93 1 -100 20 -100 18 0 20 7 20 80 0 77 1 80 25 86
48 12 55 1 55 -86 0 -73 2 -80 20 -80 18 0 20 7 20 64 0 117 -36 161 -102 123
-24 -14 -28 -14 -28 -2 0 8 -7 15 -15 15 -12 0 -15 -18 -15 -100z"/>
<path d="M13405 9577 c-20 -16 -28 -35 -32 -69 -5 -42 -3 -50 25 -78 20 -19
41 -30 59 -30 33 0 76 27 67 42 -4 6 -10 6 -17 -1 -20 -20 -75 -13 -91 11 -9
12 -16 26 -16 30 0 5 29 8 65 8 l65 0 0 30 c0 38 -39 80 -74 80 -14 0 -37 -10
-51 -23z"/>
<path d="M13830 9587 c-31 -15 -50 -52 -50 -95 0 -43 46 -92 87 -92 33 0 76
27 67 42 -4 6 -10 6 -17 -1 -20 -20 -75 -13 -91 11 -9 12 -16 26 -16 30 0 5
29 8 65 8 l65 0 0 30 c0 35 -38 80 -67 80 -10 0 -29 -6 -43 -13z"/>
<path d="M14174 9590 c-33 -13 -54 -50 -54 -93 0 -74 80 -122 138 -81 27 18
20 39 -8 24 -31 -17 -68 -12 -84 12 -9 12 -16 26 -16 30 0 5 29 8 65 8 l65 0
0 30 c0 19 -9 40 -25 55 -25 26 -45 30 -81 15z"/>
<path d="M14504 9590 c-33 -13 -54 -50 -54 -93 0 -74 80 -122 138 -81 27 18
20 39 -8 24 -31 -17 -68 -12 -84 12 -9 12 -16 26 -16 30 0 5 29 8 65 8 l65 0
0 30 c0 19 -9 40 -25 55 -25 26 -45 30 -81 15z"/>
<path d="M14660 9500 c0 -93 1 -100 20 -100 18 0 20 7 20 80 0 77 1 80 25 86
48 12 55 1 55 -86 0 -73 2 -80 20 -80 18 0 20 7 20 64 0 116 -32 156 -100 123
-25 -13 -30 -13 -30 -1 0 8 -7 14 -15 14 -12 0 -15 -18 -15 -100z"/>
<path d="M15085 9577 c-20 -16 -28 -35 -32 -69 -5 -42 -3 -50 25 -78 20 -19
41 -30 59 -30 33 0 76 27 67 42 -4 6 -10 6 -17 -1 -20 -20 -75 -13 -91 11 -9
12 -16 26 -16 30 0 5 29 8 65 8 l65 0 0 30 c0 38 -39 80 -74 80 -14 0 -37 -10
-51 -23z"/>
<path d="M15394 9588 c-27 -13 -44 -49 -44 -94 0 -41 45 -94 79 -94 85 0 124
109 62 171 -30 30 -60 35 -97 17z"/>
<path d="M1640 8900 c0 -133 1 -140 20 -140 18 0 20 7 20 80 0 77 1 80 25 86
48 12 55 1 55 -86 0 -73 2 -80 20 -80 18 0 20 7 20 64 0 112 -33 156 -96 127
-24 -10 -24 -10 -24 39 0 43 -3 50 -20 50 -19 0 -20 -7 -20 -140z"/>
<path d="M5590 8900 c0 -118 2 -140 15 -140 11 0 15 11 15 39 0 48 16 61 37
32 32 -47 60 -74 71 -70 8 3 -3 25 -27 59 l-39 54 35 43 c46 56 22 56 -34 1
l-43 -42 0 82 c0 66 -3 82 -15 82 -13 0 -15 -22 -15 -140z"/>
<path d="M1444 9011 c-53 -32 -70 -123 -36 -191 21 -43 62 -64 107 -56 34 7
75 46 75 72 0 24 -24 15 -42 -16 -14 -24 -24 -30 -52 -30 -50 0 -71 34 -68
109 3 73 22 101 68 101 28 0 38 -6 52 -30 9 -16 23 -30 30 -30 21 0 13 31 -17
61 -35 34 -72 37 -117 10z"/>
<path d="M2810 8895 l0 -135 45 0 c95 0 145 46 145 135 0 89 -50 135 -145 135
l-45 0 0 -135z m129 86 c27 -27 36 -84 22 -132 -13 -44 -35 -59 -85 -59 l-36
0 0 105 0 105 40 0 c26 0 47 -7 59 -19z"/>
<path d="M3440 9015 c0 -11 11 -15 40 -15 l40 0 0 -120 c0 -113 1 -120 20
-120 19 0 20 7 20 120 l0 120 40 0 c29 0 40 4 40 15 0 12 -18 15 -100 15 -82
0 -100 -3 -100 -15z"/>
<path d="M2014 8948 c-27 -13 -44 -49 -44 -94 0 -41 45 -94 79 -94 85 0 124
109 62 171 -30 30 -60 35 -97 17z"/>
<path d="M2180 8860 c0 -93 1 -100 20 -100 17 0 19 8 22 83 l3 82 35 0 35 0 3
-82 c3 -75 5 -83 22 -83 18 0 20 7 20 79 0 83 5 91 51 91 26 0 39 -37 39 -111
0 -46 3 -59 15 -59 12 0 15 14 15 64 0 117 -36 161 -103 123 -26 -16 -30 -16
-54 0 -21 14 -30 15 -56 5 -21 -8 -33 -9 -35 -2 -2 5 -10 10 -18 10 -11 0 -14
-20 -14 -100z"/>
<path d="M2545 8937 c-20 -16 -28 -35 -32 -69 -5 -42 -3 -50 25 -78 34 -34 74
-39 110 -14 27 18 20 39 -8 24 -31 -17 -68 -12 -84 12 -9 12 -16 26 -16 30 0
5 29 8 65 8 l65 0 0 30 c0 38 -39 80 -74 80 -14 0 -37 -10 -51 -23z"/>
<path d="M3085 8937 c-20 -16 -28 -35 -32 -69 -5 -42 -3 -50 25 -78 20 -19 41
-30 59 -30 33 0 76 27 67 42 -4 6 -10 6 -17 -1 -20 -20 -75 -13 -91 11 -9 12
-16 26 -16 30 0 5 29 8 65 8 l65 0 0 30 c0 38 -39 80 -74 80 -14 0 -37 -10
-51 -23z"/>
<path d="M3684 8948 c-27 -13 -44 -49 -44 -94 0 -41 45 -94 79 -94 85 0 124
109 62 171 -30 30 -60 35 -97 17z"/>
<path d="M3894 8948 c-27 -13 -44 -49 -44 -94 0 -41 45 -94 79 -94 85 0 124
109 62 171 -30 30 -60 35 -97 17z"/>
<path d="M4410 8860 c0 -93 1 -100 20 -100 18 0 20 7 20 80 0 77 1 80 25 86
48 12 55 1 55 -86 0 -73 2 -80 20 -80 18 0 20 7 20 64 0 117 -36 161 -102 123
-24 -14 -28 -14 -28 -2 0 8 -7 15 -15 15 -12 0 -15 -18 -15 -100z"/>
<path d="M4649 8931 c-41 -42 -41 -101 1 -143 26 -26 36 -30 66 -25 20 3 42
11 50 18 19 16 7 31 -16 19 -31 -17 -68 -12 -84 12 -9 12 -16 26 -16 30 0 5
29 8 65 8 l65 0 0 30 c0 39 -39 80 -75 80 -16 0 -38 -12 -56 -29z"/>
<path d="M4940 8958 c1 -2 13 -46 29 -98 17 -59 32 -95 41 -95 7 0 22 31 36
75 12 41 23 73 24 70 14 -61 49 -145 60 -145 16 0 72 188 57 194 -14 5 -26
-18 -38 -81 -6 -32 -15 -58 -19 -58 -4 0 -16 30 -27 68 -12 40 -26 67 -34 67
-8 0 -22 -28 -35 -70 -21 -68 -22 -69 -33 -42 -6 16 -11 31 -11 35 0 28 -24
82 -35 82 -8 0 -15 -1 -15 -2z"/>
<path d="M5284 8948 c-27 -13 -44 -49 -44 -94 0 -41 45 -94 79 -94 85 0 124
109 62 171 -30 30 -60 35 -97 17z"/>
<path d="M5892 8950 c-23 -10 -39 -36 -28 -47 3 -3 15 2 25 11 27 25 75 18 79
-11 3 -20 -1 -23 -31 -23 -77 0 -115 -76 -55 -110 22 -12 33 -12 58 -3 17 6
32 7 36 2 3 -5 11 -9 17 -9 9 0 11 23 7 86 -4 70 -9 88 -24 100 -22 16 -50 17
-84 4z"/>
<path d="M6050 8860 c0 -93 1 -100 20 -100 18 0 20 7 20 80 0 77 1 80 25 86
48 12 55 1 55 -86 0 -73 2 -80 20 -80 18 0 20 7 20 64 0 117 -36 161 -102 123
-24 -14 -28 -14 -28 -2 0 8 -7 15 -15 15 -12 0 -15 -18 -15 -100z"/>
<path d="M6302 8950 c-23 -10 -39 -36 -28 -47 3 -3 15 2 25 11 27 25 75 18 79
-11 3 -20 -1 -23 -31 -23 -77 0 -115 -76 -55 -110 22 -12 33 -12 58 -3 16 6
30 7 30 2 0 -5 8 -9 18 -9 15 0 16 9 12 86 -4 70 -9 88 -24 100 -22 16 -50 17
-84 4z"/>
<path d="M7464 8950 c-33 -13 -54 -50 -54 -93 0 -74 80 -122 138 -81 27 18 20
39 -8 24 -31 -17 -68 -12 -84 12 -9 12 -16 26 -16 30 0 5 29 8 65 8 l65 0 0
30 c0 19 -9 40 -25 55 -25 26 -45 30 -81 15z"/>
<path d="M7662 8950 c-23 -10 -39 -36 -28 -47 3 -3 15 2 25 11 27 25 75 18 79
-11 3 -20 -1 -23 -31 -23 -77 0 -115 -76 -55 -110 22 -12 33 -12 58 -3 16 6
30 7 30 2 0 -5 8 -9 18 -9 15 0 16 9 12 86 -4 70 -9 88 -24 100 -22 16 -50 17
-84 4z"/>
<path d="M7950 8901 c0 -86 9 -117 37 -132 19 -10 31 -11 56 -1 21 8 33 9 35
2 2 -5 10 -10 18 -10 11 0 14 20 14 100 0 93 -1 100 -20 100 -17 0 -19 -8 -22
-82 l-3 -83 -29 -3 c-43 -5 -51 10 -47 93 2 70 1 75 -18 75 -19 0 -21 -6 -21
-59z"/>
<path d="M8330 8947 c-56 -28 -67 -111 -21 -158 33 -33 74 -38 109 -13 27 18
20 39 -8 24 -31 -17 -68 -12 -84 12 -9 12 -16 26 -16 30 0 5 29 8 65 8 l65 0
0 30 c0 35 -38 80 -67 80 -10 0 -29 -6 -43 -13z"/>
<path d="M3180 6920 c0 -132 1 -140 20 -140 17 0 19 8 22 83 l3 82 35 0 35 0
3 -82 c3 -75 5 -83 22 -83 18 0 20 7 20 58 0 117 -28 157 -93 133 l-27 -11 0
50 c0 43 -3 50 -20 50 -19 0 -20 -7 -20 -140z"/>
<path d="M5790 6920 c0 -118 2 -140 15 -140 8 0 15 4 15 10 0 6 9 5 24 -1 54
-25 106 20 106 90 0 74 -42 113 -99 93 l-31 -11 0 50 c0 37 -4 49 -15 49 -13
0 -15 -22 -15 -140z"/>
<path d="M6730 7010 c0 -49 0 -49 -24 -39 -35 16 -73 3 -91 -31 -46 -89 19
-191 96 -150 13 7 19 7 19 0 0 -5 7 -10 15 -10 13 0 15 22 15 140 0 118 -2
140 -15 140 -11 0 -15 -12 -15 -50z"/>
<path d="M7640 6920 c0 -133 1 -140 20 -140 18 0 20 7 20 80 0 77 1 80 25 86
48 12 55 1 55 -86 0 -73 2 -80 20 -80 18 0 20 7 20 68 0 103 -32 147 -90 125
l-30 -11 0 49 c0 42 -3 49 -20 49 -19 0 -20 -7 -20 -140z"/>
<path d="M11851 6920 c0 -132 1 -140 19 -140 17 0 19 9 22 83 l3 82 35 0 35 0
5 -80 c4 -62 8 -80 20 -80 12 0 16 15 18 65 4 99 -29 145 -88 123 l-30 -11 0
49 c0 42 -3 49 -20 49 -18 0 -19 -8 -19 -140z"/>
<path d="M1950 6914 l0 -135 28 3 c27 3 27 4 28 81 1 43 3 80 5 82 2 2 26 -35
54 -81 43 -74 53 -84 75 -82 l25 3 3 133 3 132 -31 0 -31 0 3 -85 c2 -47 1
-85 -2 -85 -3 0 -27 39 -55 85 -43 74 -53 85 -77 85 l-28 0 0 -136z"/>
<path d="M2940 7035 c0 -11 11 -15 40 -15 46 0 42 13 40 -147 -1 -88 0 -93 19
-93 20 0 21 6 21 120 l0 120 40 0 c29 0 40 4 40 15 0 12 -18 15 -100 15 -82 0
-100 -3 -100 -15z"/>
<path d="M7448 7035 c-34 -19 -44 -37 -53 -97 -13 -87 22 -145 94 -155 35 -5
44 -2 71 25 32 33 39 62 15 62 -8 0 -15 -6 -15 -13 0 -23 -35 -47 -68 -47 -45
0 -68 38 -65 109 4 72 23 101 69 101 28 0 38 -6 52 -30 18 -31 42 -40 42 -16
0 8 -10 27 -22 41 -28 32 -83 41 -120 20z"/>
<path d="M8830 7031 c0 -10 -3 -39 -6 -65 l-7 -48 45 7 c35 5 48 3 61 -10 19
-19 22 -57 7 -86 -14 -26 -66 -26 -82 1 -13 21 -38 27 -38 10 0 -23 50 -60 80
-60 74 0 109 102 54 156 -21 22 -31 25 -60 20 -29 -6 -34 -4 -34 13 0 42 10
51 61 51 37 0 49 4 49 15 0 12 -14 15 -65 15 -57 0 -65 -2 -65 -19z"/>
<path d="M9046 7029 c-29 -23 -35 -63 -12 -94 12 -17 12 -22 -5 -44 -23 -29
-24 -49 -4 -78 33 -47 125 -37 143 15 11 31 1 66 -23 79 -14 8 -14 11 5 28 27
24 25 61 -5 90 -30 30 -64 32 -99 4z"/>
<path d="M2447 7023 c-4 -3 -7 -15 -7 -25 0 -10 -4 -18 -10 -18 -5 0 -10 -9
-10 -20 0 -11 4 -20 9 -20 4 0 11 -30 14 -67 7 -73 21 -93 64 -93 29 0 32 35
3 43 -17 4 -20 14 -20 60 0 46 3 55 20 60 11 3 20 12 20 21 0 9 -8 16 -20 16
-15 0 -20 7 -20 25 0 18 -5 25 -18 25 -10 0 -22 -3 -25 -7z"/>
<path d="M2259 6965 c-26 -14 -47 -54 -44 -85 1 -8 3 -25 3 -38 3 -32 58 -64
100 -58 44 7 60 21 72 66 13 49 -3 96 -41 115 -35 18 -56 18 -90 0z"/>
<path d="M2589 6965 c-59 -32 -58 -140 1 -170 39 -20 73 -19 101 4 19 16 22
22 12 32 -10 10 -16 10 -25 1 -18 -18 -53 -15 -71 6 -24 26 -13 32 55 32 63 0
66 4 48 57 -17 49 -71 65 -121 38z"/>
<path d="M3920 6967 c-87 -44 -47 -199 48 -184 39 7 65 25 56 39 -4 6 -10 6
-17 -1 -17 -17 -72 -13 -90 7 -31 34 -21 42 48 42 l65 0 0 30 c0 35 -38 80
-67 80 -10 0 -29 -6 -43 -13z"/>
<path d="M4250 6967 c-57 -29 -67 -111 -20 -159 26 -26 36 -30 66 -25 40 7 67
25 58 39 -4 6 -10 6 -17 -1 -6 -6 -26 -11 -44 -11 -24 0 -37 7 -49 25 -9 14
-15 28 -12 30 2 2 32 5 66 6 61 2 62 2 62 31 0 33 -39 78 -67 78 -10 0 -29 -6
-43 -13z"/>
<path d="M4565 6957 c-20 -16 -28 -35 -32 -69 -5 -43 -3 -50 26 -79 27 -27 37
-31 67 -26 40 7 67 25 58 39 -4 6 -10 6 -17 -1 -28 -28 -107 0 -107 37 0 12
11 14 88 14 40 0 42 1 42 29 0 37 -40 79 -74 79 -14 0 -37 -10 -51 -23z"/>
<path d="M4747 6973 c-4 -3 -7 -48 -7 -100 0 -86 1 -93 20 -93 18 0 20 7 20
79 0 82 5 91 50 91 28 0 33 -15 31 -96 -1 -68 0 -74 19 -74 18 0 20 6 20 64 0
117 -36 161 -102 123 -24 -14 -28 -14 -28 -2 0 16 -12 20 -23 8z"/>
<path d="M5190 6967 c-57 -29 -67 -111 -20 -159 26 -26 36 -30 66 -25 40 7 67
25 58 39 -4 6 -10 6 -17 -1 -17 -17 -72 -13 -90 7 -28 31 -20 42 31 43 75 2
77 3 80 31 2 19 -5 36 -22 53 -28 28 -49 31 -86 12z"/>
<path d="M6032 6970 c-23 -10 -39 -36 -28 -47 3 -3 15 2 25 11 27 24 75 18 79
-10 3 -18 -3 -22 -38 -27 -23 -3 -50 -13 -61 -23 -47 -43 8 -111 71 -87 17 6
32 7 36 2 3 -5 11 -9 17 -9 9 0 11 23 7 86 -4 70 -9 88 -24 100 -22 16 -50 17
-84 4z"/>
<path d="M6440 6967 c-57 -29 -67 -111 -20 -159 26 -26 36 -30 66 -25 40 7 67
25 58 39 -4 6 -10 6 -17 -1 -17 -17 -72 -13 -90 7 -31 34 -21 42 48 42 l65 0
0 30 c0 35 -38 80 -67 80 -10 0 -29 -6 -43 -13z"/>
<path d="M6934 6968 c-27 -13 -44 -49 -44 -94 0 -41 45 -94 79 -94 85 0 124
109 62 171 -30 30 -60 35 -97 17z"/>
<path d="M7101 6880 c-2 -94 -1 -100 18 -100 18 0 20 8 23 83 l3 82 35 0 35 0
3 -82 c3 -75 5 -83 22 -83 18 0 20 7 20 58 0 121 -36 167 -102 129 -24 -14
-28 -14 -28 -2 0 8 -6 15 -14 15 -11 0 -14 -22 -15 -100z"/>
<path d="M8014 6968 c-27 -13 -44 -49 -44 -94 0 -41 45 -94 79 -94 85 0 124
109 62 171 -30 30 -60 35 -97 17z"/>
<path d="M8181 6880 c-1 -93 0 -100 19 -100 17 0 19 8 22 83 l3 82 35 0 35 0
3 -82 c3 -76 5 -83 23 -83 18 0 20 6 18 74 -1 40 1 78 5 85 4 6 21 11 37 11
37 0 49 -27 49 -111 0 -46 3 -59 15 -59 12 0 15 14 15 64 0 87 -14 123 -51
131 -20 5 -38 1 -54 -9 -23 -15 -27 -15 -51 1 -22 14 -31 15 -57 5 -21 -8 -33
-9 -35 -2 -2 5 -10 10 -17 10 -10 0 -13 -24 -14 -100z"/>
<path d="M8560 6967 c-87 -44 -47 -199 48 -184 39 7 65 25 56 39 -4 6 -10 6
-17 -1 -17 -17 -72 -13 -90 7 -31 34 -21 42 48 42 l65 0 0 30 c0 35 -38 80
-67 80 -10 0 -29 -6 -43 -13z"/>
<path d="M9939 6951 c-23 -23 -29 -38 -29 -71 0 -33 6 -48 29 -71 62 -61 141
-18 141 77 0 44 -45 94 -85 94 -16 0 -38 -12 -56 -29z"/>
<path d="M10123 6894 c4 -68 8 -88 23 -99 23 -18 48 -19 77 -4 16 9 22 9 25 0
2 -6 10 -11 18 -11 11 0 14 20 14 100 0 93 -1 100 -20 100 -17 0 -19 -8 -22
-82 l-3 -83 -29 -3 c-43 -5 -51 10 -47 93 2 71 1 75 -20 75 -21 0 -21 -3 -16
-86z"/>
<path d="M10410 6921 c0 -86 9 -117 37 -132 19 -10 31 -10 56 -1 24 9 33 9 39
-1 18 -29 29 12 26 99 -2 71 -6 89 -18 89 -12 0 -16 -18 -20 -80 -5 -80 -5
-80 -35 -83 -43 -5 -53 16 -47 98 4 66 3 70 -17 70 -19 0 -21 -6 -21 -59z"/>
<path d="M10850 6967 c-57 -29 -67 -111 -20 -159 26 -26 36 -30 66 -25 39 7
67 24 59 37 -3 5 -17 3 -31 -5 -28 -14 -49 -11 -76 13 -34 29 -22 42 40 43 31
1 60 1 65 0 18 -3 5 62 -18 84 -27 28 -48 31 -85 12z"/>
<path d="M11142 6970 c-23 -10 -39 -36 -28 -47 3 -3 15 2 25 11 27 25 75 18
79 -11 3 -20 -1 -23 -31 -23 -77 0 -115 -76 -55 -110 22 -12 33 -12 58 -3 17
6 32 7 36 2 3 -5 11 -9 17 -9 9 0 11 23 7 86 -4 70 -9 88 -24 100 -22 16 -50
17 -84 4z"/>
<path d="M11307 6973 c-4 -3 -7 -48 -7 -100 0 -86 1 -93 20 -93 18 0 20 7 20
79 0 82 5 91 50 91 28 0 33 -15 31 -96 -1 -68 0 -74 19 -74 18 0 20 6 20 64 0
117 -36 161 -102 123 -24 -14 -28 -14 -28 -2 0 16 -12 20 -23 8z"/>
<path d="M11539 6951 c-23 -23 -29 -38 -29 -71 0 -33 6 -48 29 -71 62 -61 141
-18 141 77 0 44 -45 94 -85 94 -16 0 -38 -12 -56 -29z"/>
<path d="M12079 6951 c-41 -42 -41 -101 1 -143 26 -26 36 -30 66 -25 40 7 67
25 58 39 -4 6 -10 6 -17 -1 -28 -28 -107 0 -107 37 0 12 11 14 88 14 40 0 42
1 42 29 0 38 -40 79 -75 79 -16 0 -38 -12 -56 -29z"/>
<path d="M12710 6967 c-57 -29 -67 -111 -20 -159 26 -26 36 -30 66 -25 40 7
67 25 58 39 -4 6 -10 6 -17 -1 -17 -17 -72 -13 -90 7 -28 31 -20 42 31 43 75
2 77 3 80 31 2 19 -5 36 -22 53 -28 28 -49 31 -86 12z"/>
<path d="M13304 6968 c-28 -13 -44 -49 -44 -98 0 -30 6 -43 31 -64 17 -14 39
-26 49 -26 84 0 122 109 61 171 -30 30 -60 35 -97 17z"/>
<path d="M13477 6973 c-4 -3 -7 -48 -7 -100 0 -87 1 -93 20 -93 19 0 21 5 18
76 -2 82 6 96 52 92 24 -3 25 -7 30 -83 4 -62 8 -80 20 -80 19 0 26 87 10 144
-13 49 -48 64 -92 38 -24 -14 -28 -14 -28 -2 0 16 -12 20 -23 8z"/>
<path d="M13804 6968 c-28 -13 -44 -49 -44 -98 0 -30 6 -43 31 -64 17 -14 39
-26 49 -26 84 0 122 109 61 171 -30 30 -60 35 -97 17z"/>
<path d="M2200 6270 c0 -133 1 -140 20 -140 18 0 20 7 20 80 0 77 1 80 25 86
48 12 55 1 55 -86 0 -74 2 -80 21 -80 18 0 20 5 18 68 -1 37 -6 79 -12 95 -11
32 -47 45 -83 28 -24 -10 -24 -10 -24 39 0 43 -3 50 -20 50 -19 0 -20 -7 -20
-140z"/>
<path d="M3582 6273 c3 -115 6 -138 18 -138 12 0 16 18 20 79 4 67 8 80 25 86
43 16 55 -4 55 -90 0 -73 2 -80 20 -80 18 0 20 7 20 64 0 112 -33 156 -96 127
-14 -6 -26 -11 -27 -11 -1 0 0 22 1 50 4 45 2 50 -17 50 -21 0 -22 -3 -19
-137z"/>
<path d="M5060 6360 c0 -49 0 -49 -24 -39 -57 26 -106 -20 -106 -101 0 -68 57
-109 111 -80 13 7 19 7 19 0 0 -5 7 -10 15 -10 13 0 15 22 15 140 0 118 -2
140 -15 140 -11 0 -15 -12 -15 -50z"/>
<path d="M9540 6270 c0 -118 2 -140 15 -140 8 0 15 4 15 9 0 5 15 5 34 -1 67
-21 108 38 92 127 -10 49 -45 72 -92 57 l-34 -10 0 49 c0 37 -4 49 -15 49 -13
0 -15 -22 -15 -140z"/>
<path d="M10160 6360 c0 -49 0 -49 -24 -39 -54 25 -106 -20 -106 -90 0 -74 44
-115 101 -94 16 6 29 7 29 2 0 -5 7 -9 15 -9 13 0 15 22 15 140 0 118 -2 140
-15 140 -11 0 -15 -12 -15 -50z"/>
<path d="M11897 6403 c-4 -3 -7 -66 -7 -140 0 -126 1 -133 20 -133 18 0 20 7
20 80 0 77 1 80 25 86 47 12 54 1 57 -83 2 -61 6 -78 18 -78 19 0 26 94 10
147 -12 43 -45 58 -86 39 -24 -10 -24 -10 -24 39 0 35 -4 50 -13 50 -8 0 -17
-3 -20 -7z"/>
<path d="M12500 6270 c0 -118 2 -140 15 -140 11 0 15 11 15 39 0 48 16 61 37
32 32 -47 60 -74 71 -70 8 3 -3 25 -27 59 l-39 55 34 42 c45 55 23 56 -33 1
l-43 -42 0 82 c0 66 -3 82 -15 82 -13 0 -15 -22 -15 -140z"/>
<path d="M2003 6381 c-51 -32 -69 -125 -35 -191 32 -65 104 -79 153 -31 31 32
38 61 14 61 -8 0 -15 -6 -15 -13 0 -23 -35 -47 -68 -47 -45 0 -68 38 -65 109
4 72 23 101 69 101 28 0 38 -6 52 -30 18 -31 42 -40 42 -16 0 8 -10 27 -22 41
-31 35 -83 42 -125 16z"/>
<path d="M4090 6294 c0 -58 4 -113 10 -123 24 -46 125 -51 155 -8 22 31 22
237 0 237 -12 0 -15 -18 -15 -103 0 -119 -9 -141 -59 -139 -56 1 -61 13 -61
133 0 90 -3 109 -15 109 -12 0 -15 -18 -15 -106z"/>
<path d="M7130 6265 l0 -135 45 0 c69 0 113 22 131 67 18 42 14 117 -8 152
-18 30 -69 51 -122 51 l-46 0 0 -135z m137 84 c19 -16 27 -93 13 -133 -14 -42
-35 -56 -84 -56 l-36 0 0 104 c0 101 1 105 23 108 24 4 64 -7 84 -23z"/>
<path d="M7750 6385 c0 -11 11 -15 43 -15 l42 0 -3 -120 c-3 -115 -2 -120 17
-120 20 0 21 6 21 120 l0 120 40 0 c29 0 40 4 40 15 0 12 -18 15 -100 15 -82
0 -100 -3 -100 -15z"/>
<path d="M11700 6383 c-24 -12 -39 -29 -47 -53 -38 -111 21 -213 112 -196 50
10 103 86 60 86 -8 0 -15 -6 -15 -13 0 -23 -35 -47 -68 -47 -45 0 -68 38 -65
109 4 72 23 101 68 101 26 0 38 -7 55 -30 23 -32 40 -39 40 -16 0 25 -43 66
-75 71 -19 4 -43 -1 -65 -12z"/>
<path d="M2574 6318 c-27 -13 -44 -49 -44 -94 0 -41 45 -94 79 -94 85 0 124
109 62 171 -30 30 -60 35 -97 17z"/>
<path d="M2747 6323 c-4 -3 -7 -48 -7 -100 0 -86 2 -93 20 -93 17 0 19 8 22
83 l3 82 33 3 c39 4 44 -5 46 -96 1 -52 4 -67 16 -67 12 0 15 15 16 70 0 84 6
95 45 95 37 0 49 -27 49 -111 0 -79 24 -77 28 2 7 113 -34 164 -101 126 -26
-16 -30 -16 -54 0 -21 14 -30 15 -56 5 -21 -8 -33 -9 -35 -2 -4 11 -16 13 -25
3z"/>
<path d="M3115 6307 c-20 -16 -28 -35 -32 -69 -5 -43 -3 -50 26 -79 27 -27 37
-31 67 -26 40 7 67 25 58 39 -4 6 -10 6 -17 -1 -20 -20 -75 -13 -91 11 -9 12
-16 26 -16 30 0 5 29 8 65 8 l65 0 0 30 c0 38 -39 80 -74 80 -14 0 -37 -10
-51 -23z"/>
<path d="M3809 6301 c-41 -42 -41 -101 1 -143 26 -26 36 -30 66 -25 40 7 67
25 58 39 -4 6 -10 6 -17 -1 -18 -18 -72 -13 -91 8 -30 33 -16 45 52 42 l62 -2
0 31 c0 39 -39 80 -75 80 -16 0 -38 -12 -56 -29z"/>
<path d="M4554 6320 c-26 -10 -37 -26 -29 -40 4 -6 16 -3 31 9 30 24 67 15 72
-16 3 -17 -4 -21 -38 -26 -76 -10 -107 -69 -54 -103 20 -14 32 -15 60 -6 20 6
36 6 40 1 3 -5 11 -9 17 -9 9 0 11 23 7 86 -4 70 -9 88 -24 100 -22 16 -50 17
-82 4z"/>
<path d="M4721 6230 c-1 -94 1 -100 20 -100 18 0 20 6 18 76 -2 81 5 94 48 94
31 0 36 -13 34 -96 -2 -68 0 -74 19 -74 18 0 20 6 20 64 0 117 -36 161 -102
123 -24 -14 -28 -14 -28 -2 0 8 -6 15 -14 15 -12 0 -15 -20 -15 -100z"/>
<path d="M5400 6317 c-57 -29 -67 -111 -20 -159 26 -26 36 -30 66 -25 40 7 67
25 58 39 -4 6 -10 6 -17 -1 -6 -6 -26 -11 -44 -11 -24 0 -37 7 -49 25 -9 14
-15 28 -12 30 2 2 32 6 66 7 61 3 62 3 62 31 0 32 -39 77 -67 77 -10 0 -29 -6
-43 -13z"/>
<path d="M5594 6320 c-26 -10 -37 -26 -29 -40 4 -6 16 -3 31 9 30 24 67 15 72
-16 3 -17 -4 -21 -38 -26 -76 -10 -107 -69 -54 -103 20 -14 32 -15 60 -6 20 6
36 6 40 1 3 -5 11 -9 17 -9 9 0 11 23 7 86 -4 70 -9 88 -24 100 -22 16 -50 17
-82 4z"/>
<path d="M5897 6323 c-9 -8 -9 -100 -1 -141 8 -41 45 -60 87 -44 23 9 33 9 38
1 18 -30 28 7 26 94 -2 78 -5 92 -19 95 -15 3 -18 -8 -20 -80 l-3 -83 -29 -3
c-43 -5 -51 10 -47 93 2 59 -1 75 -12 75 -7 0 -17 -3 -20 -7z"/>
<path d="M6270 6317 c-53 -27 -66 -107 -26 -154 19 -21 33 -28 64 -28 41 0 76
20 66 37 -4 6 -10 6 -17 -1 -6 -6 -26 -11 -44 -11 -24 0 -37 7 -49 25 -9 14
-14 28 -11 32 4 3 33 5 67 4 l60 -1 0 30 c0 35 -38 80 -67 80 -10 0 -29 -6
-43 -13z"/>
<path d="M6729 6301 c-36 -36 -40 -95 -9 -134 27 -33 52 -41 94 -27 38 12 56
44 56 96 0 44 -45 94 -85 94 -16 0 -38 -12 -56 -29z"/>
<path d="M7420 6317 c-57 -29 -67 -111 -20 -159 26 -26 36 -30 66 -25 39 7 67
24 59 37 -3 5 -17 3 -31 -5 -30 -15 -56 -10 -79 15 -29 32 -14 44 53 41 l62
-2 0 31 c0 35 -38 80 -67 80 -10 0 -29 -6 -43 -13z"/>
<path d="M7994 6318 c-27 -13 -44 -49 -44 -94 0 -41 45 -94 79 -94 85 0 124
109 62 171 -30 30 -60 35 -97 17z"/>
<path d="M8204 6318 c-45 -22 -59 -107 -24 -151 27 -33 52 -41 94 -27 62 20
77 110 27 161 -30 30 -60 35 -97 17z"/>
<path d="M8720 6230 c0 -93 1 -100 20 -100 17 0 19 8 22 83 l3 82 35 0 35 0 3
-82 c3 -76 5 -83 23 -83 18 0 20 6 18 74 -1 40 1 78 5 85 4 6 21 11 37 11 37
0 49 -27 49 -111 0 -46 3 -59 15 -59 12 0 15 14 15 64 0 87 -14 123 -51 131
-20 5 -38 1 -54 -9 -23 -15 -27 -15 -51 1 -22 14 -31 15 -57 5 -21 -8 -33 -9
-35 -2 -2 5 -10 10 -18 10 -11 0 -14 -20 -14 -100z"/>
<path d="M9092 6320 c-23 -10 -39 -36 -28 -47 3 -3 15 2 25 11 27 24 75 18 79
-10 3 -18 -3 -22 -38 -27 -76 -10 -107 -69 -54 -103 20 -14 32 -15 60 -6 20 6
36 6 40 1 3 -5 11 -9 17 -9 9 0 11 23 7 86 -4 70 -9 88 -24 100 -22 16 -50 17
-84 4z"/>
<path d="M9790 6317 c-53 -27 -66 -107 -26 -154 19 -21 33 -28 64 -28 41 0 76
20 66 37 -4 6 -10 6 -17 -1 -6 -6 -26 -11 -44 -11 -24 0 -37 7 -49 25 -9 14
-14 28 -11 32 4 3 33 5 67 4 l60 -1 0 30 c0 35 -38 80 -67 80 -10 0 -29 -6
-43 -13z"/>
<path d="M10609 6301 c-41 -42 -41 -101 1 -143 26 -26 36 -30 66 -25 40 7 67
25 58 39 -4 6 -10 6 -17 -1 -6 -6 -26 -11 -44 -11 -24 0 -37 7 -49 25 -9 14
-14 29 -10 32 3 4 33 5 66 4 l60 -2 0 31 c0 39 -39 80 -75 80 -16 0 -38 -12
-56 -29z"/>
<path d="M10960 6317 c-53 -27 -66 -107 -26 -154 19 -21 33 -28 64 -28 41 0
76 20 66 37 -4 6 -10 6 -17 -1 -17 -17 -72 -13 -90 7 -31 34 -21 42 48 42 l65
0 0 30 c0 35 -38 80 -67 80 -10 0 -29 -6 -43 -13z"/>
<path d="M11121 6230 c-1 -94 1 -100 20 -100 18 0 20 6 18 76 -2 81 5 94 48
94 31 0 36 -13 34 -96 -2 -68 0 -74 19 -74 18 0 20 6 20 64 0 117 -36 161
-102 123 -24 -14 -28 -14 -28 -2 0 8 -6 15 -14 15 -12 0 -15 -20 -15 -100z"/>
<path d="M12129 6301 c-41 -42 -41 -101 1 -143 26 -26 36 -30 66 -25 40 7 67
25 58 39 -4 6 -10 6 -17 -1 -18 -18 -72 -13 -91 8 -30 33 -16 45 52 42 l62 -2
0 31 c0 39 -39 80 -75 80 -16 0 -38 -12 -56 -29z"/>
<path d="M6353 5613 c2 -122 4 -138 20 -141 15 -3 17 6 17 77 0 78 1 81 25 87
48 12 55 1 55 -86 0 -75 1 -80 21 -80 20 0 21 4 17 80 -3 66 -7 83 -25 102
-20 19 -26 20 -57 11 l-35 -11 -3 47 c-2 34 -7 47 -20 49 -15 3 -17 -10 -15
-135z"/>
<path d="M8934 5737 c-2 -7 -3 -69 -2 -137 3 -108 5 -125 20 -128 15 -3 18 8
20 80 l3 83 35 0 35 0 3 -83 c2 -72 5 -83 20 -80 13 2 18 16 20 58 7 109 -26
156 -91 131 -25 -10 -27 -9 -28 17 -1 15 0 37 1 50 2 24 -27 32 -36 9z"/>
<path d="M8733 5721 c-37 -23 -58 -83 -50 -144 10 -74 59 -115 124 -102 48 9
100 85 58 85 -8 0 -15 -6 -15 -13 0 -23 -35 -47 -68 -47 -45 0 -68 38 -65 109
4 72 23 101 69 101 28 0 38 -6 52 -30 18 -31 42 -40 42 -16 0 8 -10 27 -22 41
-31 35 -83 42 -125 16z"/>
<path d="M5109 5641 c-23 -24 -29 -38 -29 -74 0 -38 5 -49 31 -71 34 -29 43
-31 86 -16 35 13 53 46 53 96 0 44 -45 94 -85 94 -16 0 -38 -12 -56 -29z"/>
<path d="M5600 5657 c-57 -29 -67 -111 -20 -159 26 -26 36 -30 66 -25 40 7 67
25 58 39 -4 6 -10 6 -17 -1 -17 -17 -72 -13 -90 7 -31 34 -21 42 48 42 l65 0
0 30 c0 35 -38 80 -67 80 -10 0 -29 -6 -43 -13z"/>
<path d="M5810 5657 c-57 -29 -67 -111 -20 -159 26 -26 36 -30 66 -25 40 7 67
25 58 39 -4 6 -10 6 -17 -1 -17 -17 -72 -13 -90 7 -31 34 -21 42 48 42 l65 0
0 30 c0 35 -38 80 -67 80 -10 0 -29 -6 -43 -13z"/>
<path d="M6062 5598 c11 -40 23 -84 27 -97 13 -47 30 -33 55 46 26 84 26 84
55 -14 10 -34 23 -58 31 -58 16 0 72 188 58 194 -14 5 -18 -3 -34 -66 -8 -32
-17 -65 -20 -73 -3 -8 -17 20 -30 63 -15 47 -30 77 -37 74 -6 -2 -20 -34 -31
-70 -10 -37 -22 -67 -26 -67 -4 0 -10 14 -14 32 -15 74 -28 108 -41 108 -11 0
-10 -14 7 -72z"/>
<path d="M6592 5660 c-23 -10 -39 -36 -28 -47 3 -3 15 2 25 11 27 24 75 18 79
-10 3 -18 -3 -22 -38 -27 -23 -3 -50 -13 -61 -23 -47 -43 8 -111 71 -87 17 6
32 7 36 2 3 -5 11 -9 17 -9 9 0 11 23 7 86 -4 70 -9 88 -24 100 -22 16 -50 17
-84 4z"/>
<path d="M7195 5647 c-20 -16 -28 -35 -32 -69 -5 -43 -3 -50 26 -79 27 -27 37
-31 67 -26 39 7 67 24 59 37 -3 5 -17 3 -31 -5 -28 -14 -49 -11 -76 13 -33 28
-22 42 35 43 28 1 58 1 65 0 22 -3 14 58 -13 84 -30 31 -66 32 -100 2z"/>
<path d="M7804 5658 c-27 -13 -44 -49 -44 -94 0 -41 45 -94 79 -94 85 0 124
109 62 171 -30 30 -60 35 -97 17z"/>
<path d="M7972 5573 c3 -83 6 -98 20 -101 15 -3 18 8 20 80 l3 83 35 0 35 0 3
-83 c2 -72 5 -83 20 -80 13 2 18 16 20 58 7 114 -34 165 -100 127 -24 -14 -28
-14 -28 -2 0 8 -7 15 -15 15 -14 0 -15 -15 -13 -97z"/>
<path d="M8309 5659 c-32 -12 -49 -47 -49 -99 0 -30 6 -43 31 -64 40 -34 74
-33 110 3 73 73 2 195 -92 160z"/>
<path d="M9304 5658 c-27 -13 -44 -49 -44 -94 0 -41 45 -94 79 -94 85 0 124
109 62 171 -30 30 -60 35 -97 17z"/>
<path d="M9473 5573 c2 -85 4 -98 20 -101 16 -3 18 4 16 73 -1 42 3 81 8 86 6
6 23 9 39 7 l29 -3 3 -83 c2 -72 5 -83 20 -80 14 3 18 18 22 83 5 80 5 80 35
83 42 5 55 -19 55 -100 0 -54 3 -68 15 -68 12 0 15 14 15 64 0 87 -14 123 -51
131 -20 5 -38 1 -54 -9 -23 -15 -27 -15 -51 1 -22 14 -31 15 -57 5 -21 -8 -33
-9 -35 -2 -2 5 -10 10 -17 10 -11 0 -14 -21 -12 -97z"/>
<path d="M9835 5647 c-20 -16 -28 -35 -32 -69 -5 -43 -3 -50 26 -79 27 -27 37
-31 67 -26 39 7 67 24 59 37 -3 5 -17 3 -31 -5 -28 -14 -49 -11 -76 13 -35 30
-22 42 47 42 l65 0 0 30 c0 38 -39 80 -74 80 -14 0 -37 -10 -51 -23z"/>
<path d="M10324 5658 c-28 -13 -44 -49 -44 -98 0 -30 6 -43 31 -64 34 -29 43
-31 86 -16 59 21 73 112 24 161 -30 30 -60 35 -97 17z"/>
<path d="M10497 5663 c-9 -8 -9 -101 -1 -143 9 -42 43 -59 87 -42 21 8 33 9
35 2 2 -5 10 -10 18 -10 12 0 14 18 12 98 -2 78 -6 97 -18 97 -12 0 -16 -18
-20 -80 -5 -79 -5 -80 -33 -83 -47 -6 -55 9 -49 93 4 61 2 75 -10 75 -8 0 -18
-3 -21 -7z"/>
<path d="M10940 5657 c-57 -29 -67 -111 -20 -159 26 -26 36 -30 66 -25 40 7
67 25 58 39 -4 6 -10 6 -17 -1 -28 -28 -107 0 -107 37 0 11 44 17 108 14 32
-1 31 50 -3 83 -27 28 -48 31 -85 12z"/>
<path d="M11303 5584 c4 -68 8 -88 23 -99 23 -18 48 -19 77 -4 16 9 22 9 25 0
2 -6 10 -11 18 -11 12 0 14 19 13 101 -1 87 -3 100 -18 97 -13 -3 -17 -19 -21
-82 -4 -69 -8 -80 -27 -87 -13 -5 -28 -3 -39 6 -15 11 -18 25 -15 89 2 72 1
76 -19 76 -20 0 -21 -4 -17 -86z"/>
<path d="M11513 5573 c2 -80 5 -98 17 -98 12 0 16 16 18 75 3 77 10 90 50 90
29 0 34 -15 36 -98 1 -55 4 -67 19 -70 15 -3 17 5 17 61 0 118 -36 162 -102
124 -24 -14 -28 -14 -28 -2 0 8 -6 15 -14 15 -12 0 -14 -19 -13 -97z"/>
<path d="M11721 5570 c-1 -94 0 -100 19 -100 18 0 20 6 20 80 0 77 1 80 25 86
48 12 55 1 55 -86 0 -75 1 -80 21 -80 20 0 21 4 17 80 -3 66 -7 83 -25 102
-20 19 -26 20 -60 10 -24 -7 -39 -8 -41 -2 -2 6 -10 10 -17 10 -10 0 -13 -25
-14 -100z"/>
<path d="M12011 5569 c-2 -91 0 -100 16 -97 15 3 18 16 21 81 3 72 4 77 27 83
47 12 54 1 57 -83 3 -67 6 -78 22 -81 17 -4 18 2 15 76 -3 61 -9 85 -23 101
-23 25 -53 27 -84 5 -20 -14 -22 -14 -22 0 0 9 -6 16 -14 16 -11 0 -14 -22
-15 -101z"/>
<path d="M12267 5663 c-22 -6 -47 -54 -47 -92 0 -74 44 -115 101 -94 27 10 29
10 29 -12 0 -39 -44 -61 -84 -40 -14 8 -28 10 -31 5 -8 -13 20 -30 58 -37 29
-4 40 -1 61 20 25 25 26 31 26 142 0 104 -7 134 -25 105 -4 -6 -15 -6 -31 0
-26 10 -28 11 -57 3z"/>
<path d="M2723 5638 c-32 -15 -48 -69 -33 -112 24 -73 129 -73 149 1 24 87
-40 148 -116 111z"/>
<path d="M3143 5638 c-26 -12 -43 -63 -36 -102 8 -40 51 -69 91 -62 42 6 68
26 51 37 -7 4 -19 1 -26 -7 -21 -21 -60 -17 -77 8 -29 41 -21 48 49 48 62 0
65 1 65 24 0 29 -43 66 -74 65 -11 0 -31 -5 -43 -11z"/>
<path d="M4183 5638 c-26 -12 -43 -63 -36 -102 8 -40 51 -69 91 -62 42 6 68
26 51 37 -7 4 -19 1 -26 -7 -21 -21 -60 -17 -77 8 -29 41 -21 48 49 48 62 0
65 1 65 24 0 29 -43 66 -74 65 -11 0 -31 -5 -43 -11z"/>
<path d="M1420 3620 c0 -193 1 -200 20 -200 18 0 20 7 20 80 l0 80 35 0 c33 0
38 -5 87 -80 45 -67 57 -80 81 -80 l27 0 -57 82 c-43 61 -53 83 -43 86 8 3 30
20 48 38 37 37 43 84 16 135 -21 41 -68 59 -159 59 l-75 0 0 -200z m181 131
c34 -35 36 -59 8 -95 -18 -23 -27 -26 -85 -26 l-64 0 0 75 0 75 56 0 c48 0 59
-4 85 -29z"/>
<path d="M3100 3745 c0 -41 -3 -75 -6 -75 -3 0 -17 9 -31 20 -60 47 -159 13
-189 -65 -54 -142 83 -270 198 -185 l28 21 0 -21 c0 -13 7 -20 20 -20 19 0 20
7 20 200 0 193 -1 200 -20 200 -18 0 -20 -7 -20 -75z m-35 -101 c35 -37 41
-85 19 -131 -22 -43 -64 -68 -101 -58 -75 18 -101 129 -44 186 39 39 92 40
126 3z"/>
<path d="M5160 3620 c0 -193 1 -200 20 -200 17 0 20 7 20 43 0 33 6 49 24 66
14 13 29 20 34 17 5 -3 27 -33 48 -66 33 -50 44 -60 67 -60 l29 0 -56 80 c-31
44 -56 83 -56 87 0 4 23 31 52 60 l52 53 -29 0 c-23 0 -44 -15 -97 -67 l-68
-67 0 127 c0 120 -1 127 -20 127 -19 0 -20 -7 -20 -200z"/>
<path d="M3998 3748 c-2 -36 -7 -44 -25 -46 -33 -5 -31 -42 2 -42 l25 0 0
-104 c0 -97 2 -106 22 -120 12 -9 37 -16 55 -16 26 0 33 4 33 20 0 14 -7 20
-23 20 -39 0 -47 18 -47 112 l0 88 35 0 c28 0 35 4 35 20 0 16 -7 20 -35 20
-35 0 -35 0 -35 45 0 38 -3 45 -19 45 -16 0 -20 -8 -23 -42z"/>
<path d="M7348 3748 c-2 -36 -7 -44 -25 -46 -33 -5 -31 -42 2 -42 l25 0 0
-104 c0 -97 2 -106 22 -120 12 -9 37 -16 55 -16 26 0 33 4 33 20 0 14 -7 20
-23 20 -39 0 -47 18 -47 112 l0 88 35 0 c28 0 35 4 35 20 0 16 -7 20 -35 20
-35 0 -35 0 -35 45 0 38 -3 45 -19 45 -16 0 -20 -8 -23 -42z"/>
<path d="M1765 3679 c-118 -104 -22 -304 125 -260 41 12 86 54 75 70 -8 14
-35 14 -35 1 0 -18 -66 -43 -95 -36 -37 9 -75 50 -75 81 l0 25 111 0 112 0 -6
42 c-9 64 -60 108 -127 108 -41 0 -55 -5 -85 -31z"/>
<path d="M2114 3701 c-55 -24 -93 -107 -80 -172 21 -104 159 -153 230 -82 14
14 26 30 26 35 0 19 -29 19 -49 -1 -28 -28 -65 -36 -101 -21 -40 17 -60 51
-60 105 0 38 5 52 29 76 38 38 91 40 127 4 24 -24 54 -25 54 -1 0 7 -11 23
-25 36 -27 26 -112 37 -151 21z"/>
<path d="M2410 3688 c-99 -66 -89 -213 17 -260 127 -56 241 61 189 195 -21 54
-57 80 -120 85 -41 3 -58 -1 -86 -20z m123 -29 c52 -24 69 -115 31 -165 -38
-52 -103 -56 -150 -9 -19 19 -24 34 -24 75 0 44 5 56 29 81 32 31 71 38 114
18z"/>
<path d="M2755 3685 c-23 -22 -25 -23 -25 -5 0 13 -7 20 -20 20 -19 0 -20 -7
-20 -140 0 -133 1 -140 20 -140 19 0 20 7 20 96 0 93 1 96 30 126 25 25 36 29
60 24 27 -5 30 -3 30 19 0 22 -4 25 -35 25 -25 0 -44 -8 -60 -25z"/>
<path d="M3423 3690 c-27 -16 -33 -17 -33 -5 0 8 -9 15 -20 15 -19 0 -20 -7
-20 -140 0 -133 1 -140 20 -140 19 0 20 7 20 93 0 71 4 98 17 117 23 34 33 40
70 40 55 0 63 -18 63 -141 l0 -109 25 0 25 0 0 105 c0 112 -12 155 -49 175
-31 16 -83 12 -118 -10z"/>
<path d="M3690 3672 c-65 -64 -66 -155 -5 -217 40 -39 88 -52 138 -36 39 13
82 55 72 70 -8 14 -35 14 -35 1 0 -18 -66 -43 -95 -36 -37 9 -75 50 -75 81 l0
25 111 0 112 0 -6 42 c-4 32 -15 51 -41 75 -31 28 -43 33 -87 33 -46 0 -55 -4
-89 -38z"/>
<path d="M4670 3688 c-99 -66 -89 -213 16 -260 78 -34 160 -5 190 68 43 102
-15 203 -118 212 -44 3 -59 0 -88 -20z m123 -29 c52 -24 69 -115 31 -165 -38
-52 -103 -56 -150 -9 -19 19 -24 34 -24 75 0 44 5 56 29 81 32 31 71 38 114
18z"/>
<path d="M5015 3685 c-23 -22 -25 -23 -25 -5 0 13 -7 20 -20 20 -19 0 -20 -7
-20 -140 0 -133 1 -140 20 -140 19 0 20 7 20 96 0 93 1 96 30 126 25 25 36 29
60 24 27 -5 30 -3 30 19 0 22 -4 25 -35 25 -25 0 -44 -8 -60 -25z"/>
<path d="M5645 3685 c-23 -22 -25 -23 -25 -5 0 13 -7 20 -20 20 -19 0 -20 -7
-20 -140 0 -133 1 -140 20 -140 19 0 20 7 20 96 0 93 1 96 30 126 25 25 36 29
60 24 27 -5 30 -3 30 19 0 22 -4 25 -35 25 -25 0 -44 -8 -60 -25z"/>
<path d="M5806 3680 c-119 -105 -24 -306 124 -261 41 12 86 54 75 70 -8 14
-35 14 -35 1 0 -18 -66 -43 -95 -36 -37 9 -75 50 -75 81 l0 25 111 0 112 0 -6
42 c-9 64 -60 108 -127 108 -41 0 -55 -5 -84 -30z"/>
<path d="M6136 3690 c-38 -24 -56 -58 -62 -118 -13 -120 113 -202 205 -134
l31 23 0 -81 c0 -73 2 -80 20 -80 19 0 20 7 20 200 0 193 -1 200 -20 200 -14
0 -20 -7 -20 -21 0 -20 -1 -20 -31 5 -38 32 -100 35 -143 6z m139 -46 c35 -37
41 -85 19 -131 -23 -46 -60 -69 -98 -59 -77 19 -105 129 -47 187 39 39 92 40
126 3z"/>
<path d="M6770 3672 c-64 -64 -66 -155 -4 -217 39 -39 88 -52 137 -36 39 13
82 55 72 70 -8 14 -35 14 -35 1 0 -18 -66 -43 -95 -36 -37 9 -75 50 -75 81 l0
25 111 0 112 0 -6 42 c-4 32 -15 51 -41 75 -31 28 -43 33 -87 33 -46 0 -55 -4
-89 -38z"/>
<path d="M7090 3697 c-32 -16 -47 -58 -34 -94 7 -23 21 -32 72 -49 35 -12 71
-28 79 -37 20 -19 9 -53 -20 -61 -39 -10 -55 -7 -85 19 -31 26 -68 25 -58 -2
3 -8 6 -16 6 -19 0 -2 19 -13 42 -25 89 -46 201 19 166 97 -14 29 -47 49 -100
59 -47 9 -76 39 -62 63 15 24 81 28 104 7 13 -11 26 -14 41 -10 23 8 23 8 -9
36 -36 32 -97 39 -142 16z"/>
<path d="M7570 3703 c-32 -12 -50 -37 -50 -69 0 -47 32 -75 99 -88 67 -12 95
-67 45 -86 -40 -15 -60 -12 -92 15 -18 15 -37 23 -46 19 -19 -7 -19 -9 -6 -34
14 -26 92 -54 127 -46 127 32 114 146 -19 171 -47 9 -76 39 -62 63 15 24 81
28 104 7 13 -11 26 -14 41 -10 23 8 23 8 -9 36 -25 23 -41 29 -75 28 -23 0
-49 -3 -57 -6z"/>
<path d="M4165 3678 c79 -251 80 -253 105 -253 22 0 27 10 58 108 19 60 38
105 42 100 5 -4 23 -54 40 -110 28 -93 34 -103 55 -103 19 0 26 7 34 38 6 20
26 83 45 140 l35 102 -23 0 c-20 0 -26 -12 -56 -111 l-34 -112 -36 109 c-32
97 -39 109 -61 112 -24 3 -27 -4 -61 -109 -40 -125 -33 -127 -78 21 -21 72
-29 85 -49 88 -20 3 -22 1 -16 -20z"/>
<path d="M6422 3591 c3 -92 7 -115 24 -138 31 -41 82 -51 133 -26 32 16 41 17
41 7 0 -8 10 -14 25 -14 l25 0 0 140 0 140 -25 0 c-25 0 -25 0 -25 -98 0 -85
-3 -101 -20 -120 -31 -33 -67 -38 -98 -15 -26 19 -27 24 -30 127 l-3 106 -25
0 -26 0 4 -109z"/>
<path d="M2020 2280 c0 -49 0 -49 -24 -39 -57 26 -106 -20 -106 -101 0 -68 57
-109 111 -80 13 7 19 7 19 0 0 -5 7 -10 15 -10 13 0 15 22 15 140 0 118 -2
140 -15 140 -11 0 -15 -12 -15 -50z"/>
<path d="M5810 2281 l0 -49 -30 11 c-64 24 -112 -40 -96 -127 10 -50 45 -73
92 -58 19 6 34 6 34 1 0 -5 7 -9 15 -9 13 0 15 22 15 140 0 118 -2 140 -15
140 -11 0 -15 -12 -15 -49z"/>
<path d="M7790 2190 c0 -118 2 -140 15 -140 11 0 15 11 15 39 0 48 16 61 37
32 32 -47 60 -74 71 -70 8 3 -3 25 -27 59 l-39 54 35 43 c46 56 22 56 -34 1
l-43 -42 0 82 c0 66 -3 82 -15 82 -13 0 -15 -22 -15 -140z"/>
<path d="M10100 2190 c0 -133 1 -140 20 -140 18 0 20 7 20 80 0 77 1 80 25 86
48 12 55 1 55 -86 0 -73 2 -80 20 -80 18 0 20 7 20 64 0 112 -33 156 -96 127
-24 -10 -24 -10 -24 39 0 43 -3 50 -20 50 -19 0 -20 -7 -20 -140z"/>
<path d="M11840 2190 c0 -118 2 -140 15 -140 11 0 15 11 15 39 0 48 16 61 37
32 33 -47 60 -74 72 -70 8 3 -2 24 -27 59 l-40 55 35 42 c46 56 22 56 -34 1
l-43 -42 0 82 c0 66 -3 82 -15 82 -13 0 -15 -22 -15 -140z"/>
<path d="M1400 2185 l0 -135 58 0 c69 0 102 16 115 53 8 24 5 35 -13 59 -20
27 -20 31 -6 47 17 18 21 58 8 77 -14 22 -52 34 -106 34 l-56 0 0 -135z"/>
<path d="M3230 2185 l0 -135 45 0 c96 0 145 46 145 136 0 84 -54 134 -144 134
l-46 0 0 -135z m129 86 c27 -27 36 -84 22 -132 -13 -44 -35 -59 -85 -59 l-36
0 0 105 0 105 40 0 c26 0 47 -7 59 -19z"/>
<path d="M3860 2305 c0 -11 11 -15 40 -15 l40 0 0 -120 c0 -113 1 -120 20
-120 19 0 20 7 20 119 l0 120 37 3 c20 2 38 9 41 16 3 9 -21 12 -97 12 -83 0
-101 -3 -101 -15z"/>
<path d="M10610 2185 c0 -113 2 -135 15 -135 12 0 15 18 15 101 0 55 4 98 8
95 5 -3 35 -48 68 -100 85 -137 94 -133 94 39 0 112 -3 135 -15 135 -11 0 -15
-20 -17 -102 l-3 -103 -67 103 c-37 56 -75 102 -83 102 -13 0 -15 -21 -15
-135z"/>
<path d="M2129 2221 c-79 -80 18 -219 109 -155 27 18 20 39 -8 24 -31 -17 -68
-12 -84 12 -9 12 -16 26 -16 30 0 5 29 8 65 8 l65 0 0 30 c0 39 -39 80 -75 80
-16 0 -38 -12 -56 -29z"/>
<path d="M2474 2240 c-27 -10 -37 -26 -29 -41 5 -7 13 -5 25 6 26 24 74 16 78
-12 3 -19 -1 -23 -21 -23 -66 0 -111 -40 -93 -85 10 -26 54 -40 87 -28 17 7
31 7 35 2 3 -5 11 -9 17 -9 9 0 11 23 7 86 -4 70 -9 88 -24 100 -22 16 -50 17
-82 4z"/>
<path d="M2640 2183 c0 -87 6 -108 36 -124 20 -10 32 -11 57 -1 21 8 33 9 35
2 2 -5 10 -10 18 -10 11 0 14 20 14 100 0 93 -1 100 -20 100 -17 0 -19 -8 -22
-82 l-3 -83 -29 -3 c-16 -2 -33 1 -39 7 -5 5 -9 44 -8 85 2 71 1 76 -18 76
-19 0 -21 -6 -21 -67z"/>
<path d="M3505 2227 c-20 -16 -28 -35 -32 -69 -5 -43 -3 -50 26 -79 27 -27 37
-31 67 -26 40 7 67 25 58 39 -4 6 -10 6 -17 -1 -20 -20 -75 -13 -91 11 -9 12
-16 26 -16 30 0 5 29 8 65 8 l65 0 0 30 c0 38 -39 80 -74 80 -14 0 -37 -10
-51 -23z"/>
<path d="M4094 2238 c-28 -13 -44 -49 -44 -98 0 -64 60 -105 119 -80 58 24 70
113 22 161 -30 30 -60 35 -97 17z"/>
<path d="M4304 2238 c-28 -13 -44 -49 -44 -98 0 -30 6 -43 31 -64 17 -14 39
-26 49 -26 84 0 122 109 61 171 -30 30 -60 35 -97 17z"/>
<path d="M4979 2221 c-41 -42 -41 -101 1 -143 26 -26 36 -30 66 -25 20 3 42
11 50 18 19 16 7 31 -16 19 -31 -17 -68 -12 -84 12 -9 12 -16 26 -16 30 0 5
29 8 65 8 l65 0 0 30 c0 39 -39 80 -75 80 -16 0 -38 -12 -56 -29z"/>
<path d="M5394 2238 c-28 -13 -44 -49 -44 -98 0 -30 6 -43 31 -64 17 -14 39
-26 49 -26 84 0 122 109 61 171 -30 30 -60 35 -97 17z"/>
<path d="M6202 2240 c-23 -10 -39 -36 -28 -47 3 -3 15 2 25 11 27 24 75 18 79
-10 3 -18 -3 -22 -38 -27 -23 -3 -50 -13 -61 -23 -47 -43 8 -111 71 -87 17 6
32 7 36 2 3 -5 11 -9 17 -9 9 0 11 23 7 86 -4 70 -9 88 -24 100 -22 16 -50 17
-84 4z"/>
<path d="M6620 2150 c0 -93 1 -100 20 -100 17 0 19 8 22 83 l3 82 35 0 35 0 3
-82 c3 -75 5 -83 22 -83 18 0 20 7 20 64 0 117 -36 161 -102 123 -24 -14 -28
-14 -28 -2 0 8 -7 15 -15 15 -12 0 -15 -18 -15 -100z"/>
<path d="M6880 2237 c-57 -29 -67 -111 -20 -159 26 -26 36 -30 66 -25 40 7 67
25 58 39 -4 6 -10 6 -17 -1 -20 -20 -75 -13 -91 11 -9 12 -16 26 -16 30 0 5
29 8 65 8 l65 0 0 30 c0 35 -38 80 -67 80 -10 0 -29 -6 -43 -13z"/>
<path d="M7150 2248 c0 -2 13 -46 28 -98 17 -59 33 -95 41 -95 8 0 22 28 34
68 11 37 23 67 26 67 3 0 15 -30 26 -68 13 -41 26 -67 34 -67 9 0 24 34 41 95
15 52 26 97 24 99 -2 2 -10 1 -17 -2 -8 -3 -20 -33 -27 -71 -7 -36 -15 -66
-19 -66 -4 0 -17 32 -30 71 -13 41 -27 69 -34 66 -7 -2 -21 -35 -33 -73 -21
-67 -22 -68 -33 -41 -6 16 -11 31 -11 35 0 28 -24 82 -35 82 -8 0 -15 -1 -15
-2z"/>
<path d="M7494 2238 c-28 -13 -44 -49 -44 -98 0 -30 6 -43 31 -64 17 -14 39
-26 49 -26 84 0 122 109 61 171 -30 30 -60 35 -97 17z"/>
<path d="M8209 2221 c-79 -80 18 -219 109 -155 27 18 20 39 -8 24 -31 -17 -68
-12 -84 12 -9 12 -16 26 -16 30 0 5 29 8 65 8 l65 0 0 30 c0 39 -39 80 -75 80
-16 0 -38 -12 -56 -29z"/>
<path d="M8415 2225 c-36 -35 -36 -115 0 -150 26 -27 54 -31 86 -15 18 10 19
7 19 -40 0 -38 4 -50 15 -50 13 0 15 22 15 140 0 118 -2 140 -15 140 -8 0 -15
-5 -15 -10 0 -7 -6 -7 -19 0 -32 16 -60 12 -86 -15z"/>
<path d="M8600 2183 c0 -87 6 -108 36 -124 20 -10 32 -11 57 -1 21 8 33 9 35
2 2 -5 10 -10 18 -10 11 0 14 20 14 100 0 93 -1 100 -20 100 -17 0 -19 -8 -22
-82 l-3 -83 -29 -3 c-43 -5 -51 10 -47 93 2 70 1 75 -18 75 -19 0 -21 -6 -21
-67z"/>
<path d="M8829 2221 c-79 -80 18 -219 109 -155 12 8 20 20 16 26 -4 6 -10 6
-17 -1 -20 -20 -75 -13 -91 11 -9 12 -16 26 -16 30 0 5 29 8 65 8 l65 0 0 30
c0 39 -39 80 -75 80 -16 0 -38 -12 -56 -29z"/>
<path d="M9680 2150 c0 -93 1 -100 20 -100 18 0 20 7 20 80 0 77 1 80 25 86
48 12 55 1 55 -86 0 -73 2 -80 20 -80 18 0 20 7 20 64 0 114 -33 156 -98 126
-18 -8 -28 -8 -30 -1 -2 6 -10 11 -18 11 -11 0 -14 -20 -14 -100z"/>
<path d="M10335 2227 c-20 -16 -28 -35 -32 -69 -5 -42 -3 -50 25 -78 35 -34
74 -39 111 -14 16 12 20 19 12 27 -8 8 -14 8 -23 -1 -21 -21 -66 -14 -84 13
-9 14 -14 28 -11 32 4 3 33 5 67 4 l60 -1 0 30 c0 38 -39 80 -74 80 -14 0 -37
-10 -51 -23z"/>
<path d="M10899 2221 c-41 -42 -41 -101 1 -143 26 -26 36 -30 66 -25 20 3 42
11 50 18 19 16 7 31 -16 19 -31 -17 -68 -12 -84 12 -9 12 -16 26 -16 30 0 5
29 8 65 8 l65 0 0 30 c0 39 -39 80 -75 80 -16 0 -38 -12 -56 -29z"/>
<path d="M11217 2158 c14 -51 27 -96 30 -100 12 -20 24 -2 47 70 14 44 27 71
30 62 3 -8 14 -42 24 -75 10 -35 23 -60 32 -60 8 0 23 34 40 95 15 52 26 97
24 99 -2 2 -10 1 -17 -2 -8 -3 -20 -33 -27 -71 -7 -36 -16 -66 -20 -66 -4 0
-16 30 -27 68 -12 39 -26 67 -33 67 -8 0 -23 -30 -35 -70 -22 -69 -22 -69 -34
-42 -6 16 -11 31 -11 35 0 27 -23 82 -35 82 -11 0 -8 -19 12 -92z"/>
<path d="M11534 2238 c-28 -13 -44 -49 -44 -98 0 -64 60 -105 119 -80 58 24
70 113 22 161 -30 30 -60 35 -97 17z"/>
<path d="M12110 2110 c0 -118 2 -140 15 -140 11 0 15 12 15 49 l0 49 29 -11
c57 -21 101 20 101 94 0 70 -52 115 -106 90 -15 -6 -24 -7 -24 -1 0 6 -7 10
-15 10 -13 0 -15 -22 -15 -140z"/>
<path d="M12342 2240 c-23 -10 -39 -36 -28 -47 3 -3 15 2 25 11 27 25 75 18
79 -11 3 -20 -1 -23 -31 -23 -77 0 -115 -76 -55 -110 22 -12 33 -12 58 -3 17
6 32 7 36 2 3 -5 11 -9 17 -9 9 0 11 23 7 86 -4 70 -9 88 -24 100 -22 16 -50
17 -84 4z"/>
<path d="M12510 2150 c0 -93 1 -100 20 -100 18 0 20 7 20 80 0 77 1 80 25 86
48 12 55 1 55 -86 0 -73 2 -80 20 -80 18 0 20 7 20 64 0 114 -33 156 -98 126
-18 -8 -28 -8 -30 -1 -2 6 -10 11 -18 11 -11 0 -14 -20 -14 -100z"/>
<path d="M12749 2221 c-79 -80 18 -219 109 -155 12 8 20 20 16 26 -4 6 -10 6
-17 -1 -20 -20 -75 -13 -91 11 -9 12 -16 26 -16 30 0 5 29 8 65 8 l65 0 0 30
c0 39 -39 80 -75 80 -16 0 -38 -12 -56 -29z"/>
<path d="M13414 2238 c-28 -13 -44 -49 -44 -98 0 -30 6 -43 31 -64 17 -14 39
-26 49 -26 84 0 122 109 61 171 -30 30 -60 35 -97 17z"/>
<path d="M13784 2238 c-27 -13 -44 -49 -44 -94 0 -41 45 -94 79 -94 85 0 124
109 62 171 -30 30 -60 35 -97 17z"/>
<path d="M13950 2150 c0 -93 1 -100 20 -100 18 0 20 7 20 80 0 77 1 80 25 86
48 12 55 1 55 -86 0 -73 2 -80 20 -80 18 0 20 7 20 64 0 114 -33 156 -98 126
-18 -8 -28 -8 -30 -1 -2 6 -10 11 -18 11 -11 0 -14 -20 -14 -100z"/>
<path d="M14202 2243 c-19 -7 -42 -58 -42 -92 0 -74 44 -115 101 -94 27 10 29
9 29 -11 0 -42 -45 -60 -90 -36 -23 12 -35 -3 -16 -19 8 -7 30 -15 49 -18 29
-4 40 -1 61 20 25 25 26 31 26 142 0 96 -3 115 -15 115 -8 0 -15 -5 -15 -10 0
-7 -6 -7 -19 0 -21 11 -47 12 -69 3z"/>
<path d="M14492 2240 c-23 -10 -39 -36 -28 -47 3 -3 15 2 25 11 27 24 75 18
79 -10 3 -18 -3 -22 -38 -27 -23 -3 -50 -13 -61 -23 -47 -43 8 -111 71 -87 16
6 30 7 30 2 0 -5 9 -9 21 -9 15 0 19 4 15 16 -3 9 -6 45 -6 80 0 91 -36 122
-108 94z"/>
<path d="M1400 1515 l0 -135 45 0 c95 0 145 46 145 135 0 89 -50 135 -145 135
l-45 0 0 -135z m129 86 c27 -27 36 -84 22 -132 -13 -44 -35 -59 -85 -59 l-36
0 0 105 0 105 40 0 c26 0 47 -7 59 -19z"/>
<path d="M2020 1635 c0 -11 11 -15 40 -15 l40 0 0 -120 c0 -113 1 -120 20
-120 19 0 20 7 20 120 l0 120 40 0 c29 0 40 4 40 15 0 12 -18 15 -100 15 -82
0 -100 -3 -100 -15z"/>
<path d="M1675 1557 c-20 -16 -28 -35 -32 -69 -5 -43 -3 -50 26 -79 27 -27 37
-31 67 -26 20 3 42 11 50 18 19 16 7 31 -16 19 -29 -15 -65 -12 -83 8 -31 34
-21 42 48 42 l65 0 0 30 c0 38 -39 80 -74 80 -14 0 -37 -10 -51 -23z"/>
<path d="M2264 1568 c-28 -13 -44 -49 -44 -98 0 -30 6 -43 31 -64 17 -14 39
-26 49 -26 84 0 122 109 61 171 -30 30 -60 35 -97 17z"/>
<path d="M2474 1568 c-28 -13 -44 -49 -44 -98 0 -30 6 -43 31 -64 17 -14 39
-26 49 -26 84 0 122 109 61 171 -30 30 -60 35 -97 17z"/>
<path d="M3394 1568 c-27 -13 -44 -49 -44 -94 0 -41 45 -94 79 -94 85 0 124
109 62 171 -30 30 -60 35 -97 17z"/>
<path d="M3560 1440 c0 -118 2 -140 15 -140 11 0 15 12 15 49 l0 49 29 -11
c57 -21 101 20 101 94 0 70 -52 115 -106 90 -15 -6 -24 -7 -24 -1 0 6 -7 10
-15 10 -13 0 -15 -22 -15 -140z"/>
<path d="M3795 1557 c-20 -16 -28 -35 -32 -69 -5 -42 -3 -50 25 -78 20 -19 41
-30 59 -30 33 0 76 27 67 42 -4 6 -10 6 -17 -1 -20 -20 -75 -13 -91 11 -9 12
-16 26 -16 30 0 5 29 8 65 8 l65 0 0 30 c0 38 -39 80 -74 80 -14 0 -37 -10
-51 -23z"/>
<path d="M3970 1479 c0 -90 2 -100 18 -97 14 3 17 16 20 81 3 72 4 77 27 83
48 12 55 1 55 -86 0 -73 2 -80 20 -80 18 0 20 7 20 68 0 105 -32 147 -92 124
-21 -8 -34 -9 -36 -2 -2 5 -10 10 -18 10 -11 0 -14 -20 -14 -101z"/>
</g>
</svg>
