<svg width="16" height="16" viewBox="0 0 16 16" fill="none" xmlns="http://www.w3.org/2000/svg">
<path fill-rule="evenodd" clip-rule="evenodd" d="M12.8201 3.015C11.7201 1.915 10.2201 1.115 8.62014 1.015C7.02014 0.915 5.42014 1.315 4.12014 2.215C2.72014 3.115 1.82014 4.415 1.32014 6.015C0.820139 7.515 0.920139 9.215 1.52014 10.715C2.12014 12.215 3.22014 13.415 4.62014 14.215C6.02014 15.015 7.62014 15.215 9.22014 14.915C10.8201 14.615 12.2201 13.715 13.2201 12.515C14.2201 11.215 14.8201 9.715 14.8201 8.115C14.8201 6.115 14.1201 4.415 12.8201 3.015ZM12.5201 11.815C11.6201 12.915 10.4201 13.615 9.12014 13.915C7.82014 14.215 6.42014 14.015 5.22014 13.315C4.02014 12.615 3.12014 11.615 2.52014 10.315C1.92014 9.015 1.92014 7.615 2.32014 6.315C2.72014 4.915 3.52014 3.815 4.62014 3.015C5.72014 2.215 7.12014 1.915 8.42014 2.015C9.82014 2.115 11.0201 2.715 12.0201 3.715C13.1201 4.815 13.7201 6.415 13.7201 8.015C13.8201 9.415 13.3201 10.715 12.5201 11.815Z" fill="#E51400"/>
<path d="M5.02014 5.01501H11.0201V11.015H5.02014V5.01501Z" fill="#E51400"/>
</svg>
